<svg id="logo-lulu" xmlns="http://www.w3.org/2000/svg" xmlns:xlink="http://www.w3.org/1999/xlink" width="140.675" height="40.813" viewBox="0 0 140.675 40.813">
  <defs>
    <clipPath id="clip-path">
      <rect id="Rectangle_16793" data-name="Rectangle 16793" width="140.675" height="40.812" fill="none"/>
    </clipPath>
  </defs>
  <g id="Group_47812" data-name="Group 47812" transform="translate(0 0)" clip-path="url(#clip-path)">
    <path id="Path_24394" data-name="Path 24394" d="M.511,4.219A39.7,39.7,0,0,0,9.7,2.077C17.062-.393,34.275-3.2,39.635,11.3c3.451,9.352-3.559,18.86-3.759,22.151a18.775,18.775,0,0,0,.243,5.515l-5.358,1.49a17.13,17.13,0,0,1-.489-7.757c1-5.262,5.838-12.34,5.339-17.118S33.277,3.065,23.252.593C18.21-.65,12.7,4.87,8.694,6.187S1.841,8.5,1.841,8.5Z" transform="translate(0.187 0.029)" fill="#b17f2b"/>
    <path id="Path_24395" data-name="Path 24395" d="M9.7,2.041A40.428,40.428,0,0,1,.526,4.179H.455L1.831,8.573l6.9-2.326A24.026,24.026,0,0,0,13.221,3.9C16.368,2,19.932-.163,23.258.654,30.711,2.488,34.739,7.38,35.581,15.6c.284,2.788-1.275,6.423-2.784,9.934A38.082,38.082,0,0,0,30.238,32.7a17.293,17.293,0,0,0,.493,7.78l.015.042L36.2,39.021v-.044a16.348,16.348,0,0,1-.265-5.473,17.911,17.911,0,0,1,1.554-4.729c1.842-4.355,4.631-10.94,2.21-17.479C33.526-5.424,12.125,1.224,9.7,2.041m.03.1h0c2.412-.812,23.726-7.43,29.875,9.191a15.442,15.442,0,0,1,.932,5.374c0,4.594-1.825,8.9-3.149,12.025a28.632,28.632,0,0,0-1.714,5.154,18.605,18.605,0,0,0,.407,5.055L30.819,40.4a17.413,17.413,0,0,1-.72-4.971,14.77,14.77,0,0,1,.246-2.706A37.233,37.233,0,0,1,32.9,25.575c1.393-3.241,2.827-6.577,2.827-9.285a6.169,6.169,0,0,0-.037-.7C34.836,7.316,30.778,2.4,23.282.549,19.917-.28,16.332,1.894,13.167,3.81A23.941,23.941,0,0,1,8.7,6.147S2.442,8.258,1.9,8.439C1.867,8.34.638,4.4.592,4.279A40.713,40.713,0,0,0,9.734,2.141" transform="translate(0.167 0.02)" fill="#b17f2b"/>
    <path id="Path_24396" data-name="Path 24396" d="M1.984,10.6S9.663,7.142,15.517,3.85c6.756-3.8,25.728-8.07,31.089,6.434,3.457,9.346-1.575,18.157-2.493,21.9-.786,3.2.081,4.733.081,4.733L38.834,38.4s-.846-1.531-.075-5.564c1-5.262,4.337-8.893,4.337-17.463,0-4.8-3.562-13.042-13.7-14.985C23.374-.765,18.562,3.454,15.345,6.151A108.718,108.718,0,0,1,2.81,14.56Z" transform="translate(0.728 0.065)" fill="#b17f2b"/>
    <path id="Path_24397" data-name="Path 24397" d="M28.379.207A11.608,11.608,0,0,0,23,1.051a30.333,30.333,0,0,0-7.5,2.772C9.721,7.075,2.054,10.535,1.982,10.566l-.046.019.856,4.072.067-.036A109.432,109.432,0,0,0,15.4,6.21L15.652,6a27.217,27.217,0,0,1,7.393-4.845A33.081,33.081,0,0,1,28.368.311c.338.031.683.082,1.031.148C39.423,2.377,43.053,10.44,43.053,15.395a29.979,29.979,0,0,1-2.6,12.076,29.148,29.148,0,0,0-1.735,5.374,16.85,16.85,0,0,0-.325,3.095,5.543,5.543,0,0,0,.413,2.508l.021.036,5.466-1.516-.03-.057c-.011-.015-.846-1.561-.077-4.7.189-.759.551-1.756.973-2.9,1.7-4.613,4.274-11.583,1.516-19.029a14.382,14.382,0,0,0-8.909-8.965A23.021,23.021,0,0,0,28.379.207m-.744.071h0a33.059,33.059,0,0,0-3.856.588A11.453,11.453,0,0,1,27.635.278M15.565,3.909h0a29.506,29.506,0,0,1,6.711-2.574,29.242,29.242,0,0,0-6.689,4.583l-.256.215A109.2,109.2,0,0,1,2.874,14.489c-.036-.134-.794-3.767-.811-3.844.422-.191,7.852-3.557,13.5-6.736m22.166-2.5h0a14.3,14.3,0,0,1,8.842,8.906,19.5,19.5,0,0,1,1.207,6.845c0,4.733-1.564,8.971-2.717,12.106a27.293,27.293,0,0,0-.979,2.924,10.554,10.554,0,0,0-.338,2.535A4.878,4.878,0,0,0,44.14,36.9c-.118.03-5.171,1.434-5.257,1.453a6,6,0,0,1-.379-2.443,16.972,16.972,0,0,1,.317-3.048,29.857,29.857,0,0,1,1.728-5.359,29.879,29.879,0,0,0,2.616-12.112C43.165,10.4,39.5,2.288,29.419.35c-.153-.026-.3-.04-.465-.062A22.579,22.579,0,0,1,37.731,1.41" transform="translate(0.71 0.049)" fill="#b17f2b"/>
    <path id="Path_24398" data-name="Path 24398" d="M16,16.571H7.14c.025.25.055.5.092.742h9.417A4.044,4.044,0,0,1,16,16.571" transform="translate(2.619 6.079)" fill="#b17f2b"/>
    <path id="Path_24399" data-name="Path 24399" d="M18.234,17.313h6.894c.036-.245.071-.492.092-.742H18.887a3.939,3.939,0,0,1-.653.742" transform="translate(6.689 6.079)" fill="#b17f2b"/>
    <path id="Path_24400" data-name="Path 24400" d="M8.5,20.426h18.76a8.665,8.665,0,0,0,.452-.75H8.054c.138.262.29.511.443.75" transform="translate(2.954 7.218)" fill="#b17f2b"/>
    <path id="Path_24401" data-name="Path 24401" d="M9.349,21.464H25.926c.213-.241.422-.489.616-.748H8.722c.194.258.407.507.627.748" transform="translate(3.2 7.599)" fill="#b17f2b"/>
    <path id="Path_24402" data-name="Path 24402" d="M19.42,18.039a4.185,4.185,0,0,1-1.826-.432H7.289c.056.254.122.5.194.746H28.837c.071-.246.144-.492.2-.746H21.251a4.163,4.163,0,0,1-1.832.432" transform="translate(2.674 6.459)" fill="#b17f2b"/>
    <path id="Path_24403" data-name="Path 24403" d="M7.89,19.39H28.2a7.845,7.845,0,0,0,.3-.749H7.6c.093.254.189.5.3.749" transform="translate(2.786 6.838)" fill="#b17f2b"/>
    <path id="Path_24404" data-name="Path 24404" d="M10.552,22.5H24.033a10.7,10.7,0,0,0,.893-.75H9.654a10.567,10.567,0,0,0,.9.75" transform="translate(3.541 7.978)" fill="#b17f2b"/>
    <path id="Path_24405" data-name="Path 24405" d="M15.748,23.991a12.088,12.088,0,0,0,1.914-.164H13.852a11.838,11.838,0,0,0,1.9.164" transform="translate(5.081 8.74)" fill="#b17f2b"/>
    <path id="Path_24406" data-name="Path 24406" d="M12.511,23.537h8.541a10.811,10.811,0,0,0,1.473-.75H11.038a11.484,11.484,0,0,0,1.473.75" transform="translate(4.049 8.359)" fill="#b17f2b"/>
    <path id="Path_24407" data-name="Path 24407" d="M9.945,10.06H24.427a10.924,10.924,0,0,0-.985-.742H10.924a11.224,11.224,0,0,0-.979.742" transform="translate(3.648 3.418)" fill="#b17f2b"/>
    <path id="Path_24408" data-name="Path 24408" d="M8.918,11.1H26.206c-.215-.257-.446-.507-.674-.748H9.6c-.239.241-.465.491-.679.748" transform="translate(3.271 3.797)" fill="#b17f2b"/>
    <path id="Path_24409" data-name="Path 24409" d="M18.977,16.28h6.006c0-.067.005-.13.005-.194,0-.189-.016-.37-.03-.554H19.216a4.183,4.183,0,0,1-.239.748" transform="translate(6.961 5.697)" fill="#b17f2b"/>
    <path id="Path_24410" data-name="Path 24410" d="M15.407,15.532H7.137c-.011.185-.031.366-.031.555,0,.063.011.127.011.193h8.53a3.76,3.76,0,0,1-.241-.748" transform="translate(2.607 5.697)" fill="#b17f2b"/>
    <path id="Path_24411" data-name="Path 24411" d="M8.336,12.137H18.675c.118-.011.241-.036.362-.036s.245.025.373.036H27.4c-.149-.254-.3-.5-.47-.748H8.825c-.067.193-.435.612-.5.748Z" transform="translate(3.055 4.178)" fill="#b17f2b"/>
    <path id="Path_24412" data-name="Path 24412" d="M11.5,9.028H21.73a10.838,10.838,0,0,0-1.836-.749H13.333a11.025,11.025,0,0,0-1.836.749" transform="translate(4.217 3.037)" fill="#b17f2b"/>
    <path id="Path_24413" data-name="Path 24413" d="M15.3,15.072a3.922,3.922,0,0,1,.063-.575H7.276c-.045.249-.082.5-.118.748h8.159c0-.062-.021-.115-.021-.172" transform="translate(2.626 5.318)" fill="#b17f2b"/>
    <path id="Path_24414" data-name="Path 24414" d="M19.233,15.072c0,.057-.019.111-.019.172h5.629c-.03-.251-.066-.5-.116-.748H19.178a4.127,4.127,0,0,1,.055.575" transform="translate(7.035 5.318)" fill="#b17f2b"/>
    <path id="Path_24415" data-name="Path 24415" d="M15.769,13.462h-8.2a7.05,7.05,0,0,0-.209.745h8.088a3.969,3.969,0,0,1,.325-.745" transform="translate(2.698 4.938)" fill="#b17f2b"/>
    <path id="Path_24416" data-name="Path 24416" d="M19.15,14.208h5.558c-.06-.253-.127-.506-.209-.745H18.823a3.85,3.85,0,0,1,.327.745" transform="translate(6.905 4.938)" fill="#b17f2b"/>
    <path id="Path_24417" data-name="Path 24417" d="M18.7,13.172h5.9c-.1-.253-.224-.5-.346-.745H17.876a3.94,3.94,0,0,1,.82.745" transform="translate(6.558 4.558)" fill="#b17f2b"/>
    <path id="Path_24418" data-name="Path 24418" d="M16.887,12.427H8.235c-.123.243-.3.492-.4.745h8.226a4.192,4.192,0,0,1,.826-.745" transform="translate(2.875 4.558)" fill="#b17f2b"/>
    <path id="Path_24419" data-name="Path 24419" d="M21.22,12.307s5.466-2.924,2.835-5.279c-1.78-1.579-5.849,3.722-6.629,6.041a27.8,27.8,0,0,1-5.573,8.942s4.2,5.754,7.027,5.437,3.513-3.291,3.513-3.291h2.829s-3.3,5.538-8.85,6.266c-3.688.481-7.854-4.78-7.854-4.78a36.238,36.238,0,0,1-4.2,2.474c-1.509.652-4.034.6-4.17-.5-.506-4.278,7.516-4.927,7.516-4.927s3-8.1,6.852-12.531c4.187-4.822,9.871-7.087,12.038-4.61s.517,5.389-1.335,6.762c-2.66,1.974-4,0-4,0" transform="translate(0.047 1.662)" fill="#b17f2b"/>
    <path id="Path_24420" data-name="Path 24420" d="M24.066,4.406c-2.809,0-6.684,2.289-9.638,5.681C10.835,14.224,7.954,21.61,7.582,22.567c-.756.074-5.078.585-6.837,2.709a3.027,3.027,0,0,0-.745,2,3.646,3.646,0,0,0,.019.407,1.025,1.025,0,0,0,.552.754,5.138,5.138,0,0,0,3.87-.108,34.481,34.481,0,0,0,4.09-2.4c.668.809,4.441,5.172,7.91,4.716,5.577-.734,8.951-6.3,8.983-6.353l.153-.261H22.292l-.026.135c-.008.027-.692,2.857-3.364,3.155-2.484.275-6.181-4.471-6.767-5.245a27.8,27.8,0,0,0,5.5-8.9c.6-1.769,3.376-5.657,5.32-6.159a1.029,1.029,0,0,1,1.024.191,1.636,1.636,0,0,1,.648,1.461c-.219,1.782-3.412,3.515-3.446,3.533l-.169.087.107.164a2.417,2.417,0,0,0,1.516.921,3.673,3.673,0,0,0,2.743-.878,5.969,5.969,0,0,0,2.415-3.89,3.973,3.973,0,0,0-1.044-3.13,3.4,3.4,0,0,0-2.683-1.07M.729,28.142h0a.787.787,0,0,1-.383-.485A2.566,2.566,0,0,1,1.02,25.5c1.8-2.166,6.659-2.585,6.715-2.585l.107-.016.036-.108c.036-.075,3.029-8.112,6.816-12.472,2.9-3.323,6.655-5.553,9.372-5.562a3.052,3.052,0,0,1,2.407.951,3.6,3.6,0,0,1,.964,2.866,5.593,5.593,0,0,1-2.279,3.643,3.279,3.279,0,0,1-2.453.815,2.1,2.1,0,0,1-1.162-.621c.723-.422,3.234-1.986,3.442-3.7A1.539,1.539,0,0,0,25,8.487a2.046,2.046,0,0,0-.775-1.54,1.4,1.4,0,0,0-1.357-.275c-2.125.551-4.956,4.584-5.563,6.39a27.763,27.763,0,0,1-5.527,8.876l-.1.108.082.122c.179.239,4.289,5.827,7.2,5.5a4.488,4.488,0,0,0,3.625-3.289h2.371c-.735,1.1-3.844,5.3-8.551,5.916-3.539.466-7.649-4.657-7.688-4.707l-.1-.134-.144.092A35.315,35.315,0,0,1,4.3,28a4.438,4.438,0,0,1-3.574.142" transform="translate(0 1.616)" fill="#fff"/>
    <path id="Path_24421" data-name="Path 24421" d="M14.015,14.98a3.284,3.284,0,0,1,4.7-2.083.214.214,0,1,1-.2.379,2.891,2.891,0,0,0-1.32-.317,2.826,2.826,0,0,0-2.749,2.13.221.221,0,0,1-.428-.108m-.1,1.091h0a3.613,3.613,0,0,1,.029-.458.219.219,0,0,1,.435.06,2.559,2.559,0,0,0-.026.4.219.219,0,0,1-.437,0" transform="translate(5.106 4.594)" fill="#b17f2b"/>
    <path id="Path_24422" data-name="Path 24422" d="M19.592,15.994a3.3,3.3,0,0,1-3.079,2.1,3.245,3.245,0,0,1-.872-.113.216.216,0,1,1,.116-.417,2.876,2.876,0,0,0,3.417-1.726.223.223,0,0,1,.418.154m.2-1.128h0a3.093,3.093,0,0,1-.066.621A.218.218,0,0,1,19.3,15.4a4,4,0,0,0,.051-.537.221.221,0,0,1,.443,0" transform="translate(5.678 5.374)" fill="#b17f2b"/>
    <path id="Path_24423" data-name="Path 24423" d="M84.1,9.579c.161.272.015.515-.209.835l-.21.325c-.323.56-5.312,9.627-6.613,12.177-.379.744-.4,1.134-.3,1.242.176.2,1.017.051,1.646-.212l.775-.329-.071-.086-.448,1.89.025-.042-.123.1c-.724.56-4.429,3.319-6.046,2.693l.018.012c-.223-.232-.567-.588-.59-.618l.01.018a2.126,2.126,0,0,1-.119-.77,10.387,10.387,0,0,1,.708-3.133l-.085-.082c-1.987,2.023-5.581,5.3-7.354,4.545l.018.016c-.161-.182-.424-.484-.444-.511l.01.016a1.384,1.384,0,0,1-.064-.458c0-2.079,2.756-7.567,5.065-11.8.03-.059.082-.156.087-.165l-.029.025.021-.005.008-.019c.219-.384.219-.384.219-.4l-.012.04a4.681,4.681,0,0,0,.6-1.271l.012-.077-.062-.005a1.769,1.769,0,0,0-.575.109l-.533.163.068.067-.044-1.713,0-.26-.031.064c3.934-2.471,3.934-2.471,3.939-2.478l-.012.011c.436-.265,1.751-1.07,2.437-.364a1.388,1.388,0,0,1,.323,1,7.977,7.977,0,0,1-.842,2.87l-.511.888c-.871,1.525-2.91,5.093-3.823,6.473A6.705,6.705,0,0,0,69.9,22.565l-.014.105.082-.026A5.861,5.861,0,0,0,71.6,21.556c3.134-2.582,8.3-11.237,8.51-11.6l.108-.176-.036.025,3-.42c.368-.063.741-.1.921.2m-19.164,13-3.263-.008-.011.045c-.008.033-.783,3.383-3.835,3.73-2.967.342-7.354-5.761-7.664-6.2A32.26,32.26,0,0,0,56.306,9.886c.724-2.233,3.779-6.5,5.9-7.143a1.279,1.279,0,0,1,1.344.239,2.078,2.078,0,0,1,.759,1.776c-.22,2.135-3.848,4.169-3.883,4.189l-.059.03.038.059c.016.021,1.54,2.289,4.49.027A6.716,6.716,0,0,0,67.517,4.64a4.531,4.531,0,0,0-1.125-3.449A3.521,3.521,0,0,0,63.551,0c-3.064,0-7.3,2.6-10.536,6.461-4.15,4.959-7.437,13.983-7.582,14.385-.347.03-5.756.569-7.667,3.2a3.443,3.443,0,0,0-.672,2.057,4.429,4.429,0,0,0,.023.447.967.967,0,0,0,.466.712,5.171,5.171,0,0,0,4.21-.074,38.4,38.4,0,0,0,4.6-2.812c.321.411,4.758,6.028,8.675,5.5,6.082-.816,9.782-7.144,9.819-7.207ZM126.971,9.691c.163.271.016.515-.208.835l-.21.323c-.321.563-5.312,9.631-6.613,12.18-.377.746-.4,1.136-.3,1.242.175.2,1.016.052,1.647-.21l.774-.331-.071-.087-.447,1.892.026-.041-.124.094c-.724.56-4.429,3.317-6.047,2.691l.018.015c-.224-.234-.567-.589-.59-.618l.008.019a2.144,2.144,0,0,1-.119-.771,10.5,10.5,0,0,1,.711-3.134l-.085-.085c-1.99,2.026-5.584,5.307-7.355,4.55l.016.014c-.159-.183-.422-.482-.444-.51l.011.016a1.382,1.382,0,0,1-.066-.458c.007-2.08,2.758-7.568,5.064-11.8.034-.059.086-.156.09-.165l-.03.027.019-.005.014-.022c.215-.383.215-.383.215-.4l-.012.04a4.707,4.707,0,0,0,.6-1.267l.011-.078-.062-.007a1.763,1.763,0,0,0-.575.108l-.532.164.066.064-.042-1.71,0-.258-.033.063c3.936-2.473,3.936-2.473,3.941-2.478l-.011.011c.435-.267,1.752-1.069,2.434-.364a1.372,1.372,0,0,1,.325,1,7.981,7.981,0,0,1-.842,2.877c0-.007-.511.887-.511.887-.872,1.521-2.911,5.09-3.822,6.471a6.63,6.63,0,0,0-1.037,2.214l-.014.107.081-.025a5.974,5.974,0,0,0,1.629-1.089c3.133-2.583,8.294-11.237,8.511-11.6l.109-.178-.038.026,3-.422c.365-.063.741-.094.919.2M107.808,22.7l-3.264-.008-.011.044c-.007.034-.785,3.382-3.833,3.73-2.969.34-7.354-5.761-7.664-6.2A32.208,32.208,0,0,0,99.177,10c.724-2.233,3.781-6.5,5.9-7.144a1.286,1.286,0,0,1,1.344.238,2.092,2.092,0,0,1,.761,1.78c-.223,2.131-3.85,4.166-3.887,4.188l-.055.03.037.057c.015.025,1.538,2.291,4.486.029a6.727,6.727,0,0,0,2.628-4.424,4.561,4.561,0,0,0-1.125-3.45A3.53,3.53,0,0,0,106.422.112c-3.063,0-7.3,2.6-10.534,6.46-4.152,4.96-7.438,13.987-7.582,14.385-.347.031-5.758.571-7.667,3.208a3.44,3.44,0,0,0-.675,2.057,4.06,4.06,0,0,0,.026.446.963.963,0,0,0,.465.711,5.173,5.173,0,0,0,4.208-.072,38.857,38.857,0,0,0,4.6-2.812c.318.411,4.758,6.029,8.673,5.5,6.087-.817,9.782-7.146,9.821-7.209Z" transform="translate(13.608 0)" fill="#b17f2b"/>
    <path id="Path_24424" data-name="Path 24424" d="M42.05,28.521v2.456a6.037,6.037,0,0,1-1.028.37,3.825,3.825,0,0,1-.925.123,3.28,3.28,0,0,1-.931-.13,2.762,2.762,0,0,1-.8-.381,2.951,2.951,0,0,1-.951-1.08,3.1,3.1,0,0,1-.339-1.439,3.01,3.01,0,0,1,.221-1.134,2.883,2.883,0,0,1,.638-.961,2.835,2.835,0,0,1,.98-.66,3.332,3.332,0,0,1,1.222-.215,3.711,3.711,0,0,1,.919.116,4.97,4.97,0,0,1,.946.35v.9a5.036,5.036,0,0,0-.981-.443,2.993,2.993,0,0,0-.891-.144,2.246,2.246,0,0,0-1.6,3.794,2.091,2.091,0,0,0,1.557.633,2.586,2.586,0,0,0,.567-.063,3.3,3.3,0,0,0,.582-.2V29.294H40.209v-.774Z" transform="translate(13.601 9.343)" fill="#b17f2b"/>
    <path id="Path_24425" data-name="Path 24425" d="M41.45,31.342v-5.8h1.607a1.832,1.832,0,0,1,1.283.414,1.511,1.511,0,0,1,.452,1.174,1.559,1.559,0,0,1-.249.923,1.481,1.481,0,0,1-.783.522,1.059,1.059,0,0,1,.26.21,2.956,2.956,0,0,1,.316.437l1.333,2.123h-.95l-.942-1.523a3.3,3.3,0,0,0-.685-.878,1.009,1.009,0,0,0-.621-.191h-.235v2.592Zm.787-3.289h.651a1.275,1.275,0,0,0,.821-.224,1.02,1.02,0,0,0,.014-1.372,1.305,1.305,0,0,0-.835-.213h-.651Z" transform="translate(15.205 9.368)" fill="#b17f2b"/>
    <path id="Path_24426" data-name="Path 24426" d="M45.4,28.472a2.319,2.319,0,0,0,.157.846,2.232,2.232,0,0,0,.451.715,2.018,2.018,0,0,0,1.48.647,1.989,1.989,0,0,0,1.487-.647,2.236,2.236,0,0,0,.452-.715,2.322,2.322,0,0,0,0-1.687,2.289,2.289,0,0,0-.463-.723,1.99,1.99,0,0,0-.675-.488,1.961,1.961,0,0,0-.8-.168,1.926,1.926,0,0,0-.791.169,2.184,2.184,0,0,0-.689.487,2.083,2.083,0,0,0-.451.709,2.363,2.363,0,0,0-.157.854m-.835-.031a3,3,0,0,1,1.81-2.746,2.836,2.836,0,0,1,1.114-.224,2.866,2.866,0,0,1,1.132.227,2.824,2.824,0,0,1,.943.648,3,3,0,0,1,.644.979,3.143,3.143,0,0,1,.216,1.171,3.007,3.007,0,0,1-.221,1.14,2.975,2.975,0,0,1-1.586,1.613,2.915,2.915,0,0,1-2.248-.005,2.906,2.906,0,0,1-.943-.648,2.972,2.972,0,0,1-.641-.983,3.121,3.121,0,0,1-.219-1.171" transform="translate(16.346 9.343)" fill="#b17f2b"/>
    <path id="Path_24427" data-name="Path 24427" d="M49.462,25.538h.779v3.331a3.852,3.852,0,0,0,.056.79,1.066,1.066,0,0,0,.193.4,1.528,1.528,0,0,0,.575.452,1.837,1.837,0,0,0,.759.149,1.658,1.658,0,0,0,1.148-.39,1.312,1.312,0,0,0,.436-1.029V25.538h.779v3.731a2.042,2.042,0,0,1-.655,1.572,2.422,2.422,0,0,1-1.709.6A2.641,2.641,0,0,1,50.7,31.21a2.269,2.269,0,0,1-.846-.686,1.637,1.637,0,0,1-.3-.6,4.29,4.29,0,0,1-.089-1.02Z" transform="translate(18.144 9.368)" fill="#b17f2b"/>
    <path id="Path_24428" data-name="Path 24428" d="M54.539,28.1h.852a1.291,1.291,0,0,0,.828-.215,1.063,1.063,0,0,0,0-1.386,1.266,1.266,0,0,0-.828-.217h-.852Zm-.779,3.238v-5.8h1.713a1.913,1.913,0,0,1,1.341.44A1.567,1.567,0,0,1,57.3,27.2a1.551,1.551,0,0,1-.482,1.211,1.931,1.931,0,0,1-1.341.436h-.934v2.5Z" transform="translate(19.721 9.368)" fill="#b17f2b"/>
    <rect id="Rectangle_16791" data-name="Rectangle 16791" width="0.787" height="5.805" transform="translate(79.886 34.906)" fill="#b17f2b"/>
    <path id="Path_24429" data-name="Path 24429" d="M59.9,31.343v-5.8h.683L64.2,30.044V25.538h.779v5.8h-.7l-3.6-4.509v4.509Z" transform="translate(21.973 9.368)" fill="#b17f2b"/>
    <path id="Path_24430" data-name="Path 24430" d="M66.1,31.343V26.295H64.084v-.757H68.9v.757H66.88v5.048Z" transform="translate(23.508 9.368)" fill="#b17f2b"/>
    <path id="Path_24431" data-name="Path 24431" d="M68.075,31.343v-5.8h3.3v.739H68.854v1.759h2.452v.749H68.854v1.81h2.6v.748Z" transform="translate(24.972 9.368)" fill="#b17f2b"/>
    <path id="Path_24432" data-name="Path 24432" d="M71.268,31.342v-5.8h1.607a1.832,1.832,0,0,1,1.283.414,1.511,1.511,0,0,1,.452,1.174,1.559,1.559,0,0,1-.249.923,1.481,1.481,0,0,1-.783.522,1.06,1.06,0,0,1,.26.21,2.955,2.955,0,0,1,.316.437l1.333,2.123h-.95L73.6,29.819a3.3,3.3,0,0,0-.685-.878,1.009,1.009,0,0,0-.621-.191h-.235v2.592Zm.787-3.289h.651a1.275,1.275,0,0,0,.821-.224,1.02,1.02,0,0,0,.014-1.372,1.305,1.305,0,0,0-.835-.213h-.651Z" transform="translate(26.144 9.368)" fill="#b17f2b"/>
    <path id="Path_24433" data-name="Path 24433" d="M74.6,31.343v-5.8h.683L78.9,30.044V25.538h.779v5.8h-.7l-3.6-4.509v4.509Z" transform="translate(27.364 9.368)" fill="#b17f2b"/>
    <path id="Path_24434" data-name="Path 24434" d="M80.42,28.887h1.71l-.867-2.09Zm-1.81,2.456,2.378-5.8h.573l2.41,5.8h-.812l-.708-1.709H80.114l-.7,1.709Z" transform="translate(28.837 9.368)" fill="#b17f2b"/>
    <path id="Path_24435" data-name="Path 24435" d="M84.033,31.343V26.295H82.015v-.757h4.814v.757H84.812v5.048Z" transform="translate(30.086 9.368)" fill="#b17f2b"/>
    <rect id="Rectangle_16792" data-name="Rectangle 16792" width="0.787" height="5.805" transform="translate(117.581 34.906)" fill="#b17f2b"/>
    <path id="Path_24436" data-name="Path 24436" d="M88.094,28.472a2.319,2.319,0,0,0,.157.846,2.232,2.232,0,0,0,.451.715,2.018,2.018,0,0,0,1.48.647,1.989,1.989,0,0,0,1.487-.647,2.236,2.236,0,0,0,.452-.715,2.322,2.322,0,0,0,0-1.687,2.289,2.289,0,0,0-.463-.723,1.991,1.991,0,0,0-.675-.488,1.961,1.961,0,0,0-.8-.168,1.926,1.926,0,0,0-.791.169,2.184,2.184,0,0,0-.689.487,2.083,2.083,0,0,0-.451.709,2.362,2.362,0,0,0-.157.854m-.835-.031a3,3,0,0,1,1.81-2.746,2.836,2.836,0,0,1,1.114-.224,2.866,2.866,0,0,1,1.132.227,2.824,2.824,0,0,1,.943.648,3,3,0,0,1,.644.979,3.143,3.143,0,0,1,.216,1.171,2.982,2.982,0,0,1-.223,1.14,2.893,2.893,0,0,1-.629.96,2.928,2.928,0,0,1-.955.653,2.915,2.915,0,0,1-2.248-.005,2.906,2.906,0,0,1-.943-.648,2.972,2.972,0,0,1-.641-.983,3.121,3.121,0,0,1-.219-1.171" transform="translate(32.01 9.343)" fill="#b17f2b"/>
    <path id="Path_24437" data-name="Path 24437" d="M92.185,31.343v-5.8h.683l3.617,4.506V25.538h.779v5.8h-.7l-3.6-4.509v4.509Z" transform="translate(33.817 9.368)" fill="#b17f2b"/>
    <path id="Path_24438" data-name="Path 24438" d="M98.01,28.887h1.71l-.867-2.09ZM96.2,31.343l2.378-5.8h.573l2.41,5.8h-.812l-.708-1.709H97.7l-.7,1.709Z" transform="translate(35.289 9.368)" fill="#b17f2b"/>
    <path id="Path_24439" data-name="Path 24439" d="M100.439,31.343v-5.8h.779v5.057h2.612v.748Z" transform="translate(36.844 9.368)" fill="#b17f2b"/>
  </g>
</svg>
