<svg id="logo-goodfood" xmlns="http://www.w3.org/2000/svg" xmlns:xlink="http://www.w3.org/1999/xlink" width="142.605" height="56.68" viewBox="0 0 142.605 56.68">
  <defs>
    <clipPath id="clip-path">
      <rect id="Rectangle_16787" data-name="Rectangle 16787" width="142.605" height="56.68" fill="none"/>
    </clipPath>
  </defs>
  <g id="Group_47809" data-name="Group 47809" transform="translate(0 0)" clip-path="url(#clip-path)">
    <path id="Path_24359" data-name="Path 24359" d="M140.963,11.992l-1.954-2.7-4.971.193-3.716,2.437L115.459,0l-.386,5.381,3.064,8.856,4.9,2.775L111.381,25.5l2.027.217,9.145-3.427,7.311-.217,4.754-2.147,3.716-5.96,1.688-.531,2.582-.29Zm-2.678-.193a.6.6,0,0,1-.651-.314.625.625,0,0,1,.241-.844.344.344,0,0,1,.144-.049.588.588,0,0,1,.676.266.632.632,0,0,1,.1.363.658.658,0,0,1-.144.41.639.639,0,0,1-.363.168M16.047,51.058c0,3.112-3.861,5.622-7.939,5.622S.169,54.17.169,51.058a2.625,2.625,0,0,1,.024-.434H4.2a1.592,1.592,0,0,0-.024.338c0,1.375,2,2.2,3.957,2.2,2.075,0,3.789-1.134,3.909-2.509.121-1.3-.821-2.678-3.837-2.7C2.461,47.873,0,44.76,0,41.116c0-3.837,3.957-6.973,8.083-6.973a8.771,8.771,0,0,1,2.606.41l3.378-3.33,1.11,3.981-1.231,1.182a6.5,6.5,0,0,1,2.22,4.681,5.959,5.959,0,0,1-3.451,5.5,5.237,5.237,0,0,1,3.331,4.488m-3.909-9.965c0-1.713-1.786-3.451-4.078-3.451a3.847,3.847,0,0,0-4.078,3.451c0,2.027,1.448,3.643,4.078,3.643a3.788,3.788,0,0,0,4.078-3.643m22.247,1.3c0,5.526-3.909,8.687-8.3,8.711-4.392-.048-8.3-3.185-8.3-8.711s4.006-8.711,8.3-8.711a8.265,8.265,0,0,1,8.3,8.711m-4.054,0c0-3.258-2.051-5.139-4.247-5.188s-4.247,1.906-4.247,5.188c0,3.5,2.075,5.139,4.247,5.188,2.147.024,4.247-1.689,4.247-5.188m22.223,0c0,5.526-3.909,8.687-8.3,8.711-4.391-.048-8.3-3.185-8.3-8.711s4.005-8.711,8.3-8.711a8.265,8.265,0,0,1,8.3,8.711m-4.078,0c0-3.258-2.05-5.139-4.247-5.188s-4.247,1.906-4.247,5.188c0,3.5,2.1,5.139,4.247,5.188s4.247-1.689,4.247-5.188m33.082-8.276v3.547H78.734v13.1H74.7v-13.1H71.881V34.1H74.7V32.261c0-2.462,2.461-4.1,5.284-4.1h2.558l-.965,3.523H79.988a1.3,1.3,0,0,0-1.255,1.279v1.182ZM98.979,42.4c0,5.526-3.909,8.687-8.3,8.711-4.392-.048-8.3-3.185-8.3-8.711s4.006-8.711,8.3-8.711c4.319,0,8.3,3.209,8.3,8.711m-4.054,0c0-3.258-2.051-5.139-4.223-5.188-2.2-.048-4.247,1.906-4.247,5.188,0,3.5,2.075,5.139,4.247,5.188,2.147.024,4.223-1.689,4.223-5.188m22.223,0c0,5.526-3.909,8.687-8.3,8.711-4.391-.048-8.3-3.185-8.3-8.711s4.005-8.711,8.3-8.711c4.32,0,8.3,3.209,8.3,8.711m-4.054,0c0-3.258-2.026-5.139-4.223-5.188-2.22-.048-4.247,1.906-4.247,5.188,0,3.5,2.1,5.139,4.247,5.188,2.124.024,4.223-1.689,4.223-5.188m21.645-14.236V50.72h-4.054V48.235a5.051,5.051,0,0,1-4.247,2.895c-4.15.145-7.7-3.282-7.7-8.517s3.571-8.517,7.7-8.517a4.931,4.931,0,0,1,4.247,2.509V29.993Zm-4.054,14.453c0-2.944-1.52-5.139-3.981-5.139-2.341,0-3.933,2.437-3.933,5.139,0,2.678,1.592,5.115,3.933,5.115,2.461,0,3.981-2.171,3.981-5.115M70.119,28.159V50.72H66.066V48.235A5.005,5.005,0,0,1,61.82,51.13c-4.15.145-7.7-3.282-7.7-8.517s3.571-8.517,7.7-8.517A4.931,4.931,0,0,1,66.066,36.6V29.993ZM66.066,42.613c0-2.944-1.52-5.139-3.981-5.139-2.341,0-3.933,2.437-3.933,5.139,0,2.678,1.592,5.115,3.933,5.115,2.461,0,3.981-2.171,3.981-5.115" transform="translate(0 0)" fill="#ec366d"/>
  </g>
</svg>
