<svg xmlns="http://www.w3.org/2000/svg" width="122.175" height="27.763"><g fill="#002856"><path data-name="Path 17536" d="m121.548 9.029-.343 4.226h-1.711a4.148 4.148 0 0 0-4.169 4.338v9.535h-4.852V9.029h4.624l.114 2.283a5.3 5.3 0 0 1 4.74-2.283Z"/><path data-name="Path 17537" d="M87.694 27.071h-4.909v-9.535c0-2-.171-4.509-2.969-4.509-2.683 0-3.769 1.94-3.769 4.224v9.82h-4.909V9.029h4.509l.114 2.283a6.153 6.153 0 0 1 5.424-2.741c4.911 0 6.452 3.54 6.452 7.195v11.305Z"/><path data-name="Path 17538" d="m69.024 22.845-.343 4.111a11.93 11.93 0 0 1-3.483.4c-4.624 0-5.938-2.112-5.938-6.336V3.891h4.911v5.081h4.852l-.343 4.224h-4.508v7.48c0 1.712.457 2.626 2.226 2.626a6.864 6.864 0 0 0 2.626-.457"/><path data-name="Path 17539" d="m57.663 9.029-.4 4.226h-1.312a4.1 4.1 0 0 0-4.111 4.338v9.535h-4.91V9.029h4.624l.114 2.283a5.339 5.339 0 0 1 4.8-2.283Z"/><path data-name="Path 17540" d="M24.891 25.071a20.908 20.908 0 0 1-11.018 2.683C5.823 27.526 0 22.5 0 14S5.881.122 13.93.008a14.9 14.9 0 0 1 10.561 3.481l-3.426 3.483a10.588 10.588 0 0 0-7.478-2.283c-5.024.229-8.107 3.94-8.164 9.021-.057 5.481 3.312 9.249 8.564 9.421a12.936 12.936 0 0 0 5.766-.971v-5.596h-5.48l.343-4.624h10.275Z"/><path data-name="Path 17541" d="M103.338 15.993a3.858 3.858 0 0 0-4.226-3.652 4.327 4.327 0 0 0-4.281 3.652Zm4.855 3.769H94.774a4.478 4.478 0 0 0 4.452 3.769c2.226.057 3.426-.628 5.024-2.228l3.2 2.457a9.781 9.781 0 0 1-8.107 3.824 9.159 9.159 0 0 1-9.535-9.476 9.074 9.074 0 0 1 9.306-9.478c5.823 0 8.964 3.54 8.964 9.761v1.371Z"/><path data-name="Path 17542" d="M39.166 19.192h-.686c-2.283 0-6.395.114-6.338 2.512 0 3.426 7.023 2.34 7.023-1.771Zm4.738-3.94v11.819h-4.283l-.112-1.769a6.984 6.984 0 0 1-5.654 2.226c-3.31 0-6.45-1.657-6.507-5.481-.114-5.995 6.735-6.452 11.075-6.452h.857v-.171c0-2-1.314-3.083-3.769-3.083a6.828 6.828 0 0 0-4.8 1.94l-2.8-2.855a12.34 12.34 0 0 1 8.058-2.855c5.423 0 7.935 2.569 7.935 6.68"/><path data-name="Path 17543" d="M119.209 24.842v-.857h.569c.286 0 .628.057.628.4 0 .457-.343.457-.686.457Zm0 .343h.512l.743 1.2h.459l-.8-1.257a.771.771 0 0 0 .745-.8c0-.571-.345-.8-.973-.8h-1.084v2.8h.4Zm.512 2.226a2.426 2.426 0 1 0-2.453-2.455 2.367 2.367 0 0 0 2.453 2.455m-2-2.4a1.95 1.95 0 0 1 2-2 1.984 1.984 0 0 1 2 2 1.964 1.964 0 0 1-2 2.055 2.034 2.034 0 0 1-2-2.055"/></g></svg>