<svg xmlns="http://www.w3.org/2000/svg" xmlns:xlink="http://www.w3.org/1999/xlink" width="142" height="31.541" viewBox="0 0 142 31.541">
  <defs>
    <clipPath id="clip-path">
      <rect id="Rectangle_16794" data-name="Rectangle 16794" width="142" height="31.541" fill="none"/>
    </clipPath>
  </defs>
  <g id="logo-tforce" transform="translate(0 0)">
    <path id="Path_24440" data-name="Path 24440" d="M1.528,6.531,0,12.372H8L3.55,29.4H12.4l4.45-17.032h8l1.529-5.841Z" transform="translate(0 1.733)" fill="#0053a1"/>
    <path id="Path_24441" data-name="Path 24441" d="M23.733,6.5,17.756,29.324h8.851L28.9,20.606H40.225l1.393-5.437H30.294l.763-2.831H44.4L45.932,6.5Z" transform="translate(4.712 1.724)" fill="#0053a1"/>
    <g id="Group_47815" data-name="Group 47815" transform="translate(0 0)">
      <g id="Group_47814" data-name="Group 47814" clip-path="url(#clip-path)">
        <path id="Path_24442" data-name="Path 24442" d="M50.042,11.113c6.112,0,10.156,2.246,10.156,7.279,0,4.269-2.965,10.2-12.627,10.2-5.751,0-10.424-2.2-10.424-7.775,0-5.348,4.358-9.706,12.9-9.706M47.93,23.964c3.146,0,4.269-3.685,4.269-5.122,0-1.978-.63-3.1-2.786-3.1-3.19,0-4.314,3.82-4.314,5.527a2.488,2.488,0,0,0,2.831,2.7" transform="translate(9.858 2.949)" fill="#0053a1"/>
        <path id="Path_24443" data-name="Path 24443" d="M59.393,11.52h7.729l-.674,2.607h.09A8.613,8.613,0,0,1,72.6,11.115a9.4,9.4,0,0,1,2.831.27L73.952,17a11.927,11.927,0,0,0-3.056-.4c-3.37,0-5.078,1.168-6.022,4.629l-1.8,6.965h-8Z" transform="translate(14.618 2.945)" fill="#0053a1"/>
        <path id="Path_24444" data-name="Path 24444" d="M85.43,17.853a1.655,1.655,0,0,0-.585-1.617,3.422,3.422,0,0,0-2.022-.495c-3.46,0-4.4,3.639-4.4,5.168s.449,3.056,2.741,3.056a3.789,3.789,0,0,0,3.505-2.427H92.3c-1.348,4.763-5.212,7.055-11.234,7.055-8.854,0-10.65-4.493-10.65-7.594,0-5.663,4.628-9.887,12.627-9.887,5.8,0,10.11,2.068,9.976,6.741Z" transform="translate(18.689 2.949)" fill="#0053a1"/>
        <path id="Path_24445" data-name="Path 24445" d="M110.651,23.326c-.539,1.124-2.112,5.258-11.1,5.258-7.414,0-10.38-3.281-10.38-7.325,0-7.639,7.324-10.11,12.538-10.11,4.629,0,10.246,2.068,10.246,7.28a8.4,8.4,0,0,1-.4,2.876H96.631c0,1.753.764,3.236,3.28,3.236a3.827,3.827,0,0,0,3.146-1.169h7.595Zm-6.292-5.348a2.681,2.681,0,0,0,.09-.539c0-1.258-.988-2.247-3.01-2.247A3.982,3.982,0,0,0,97.3,17.979Z" transform="translate(23.665 2.958)" fill="#0053a1"/>
        <path id="Path_24446" data-name="Path 24446" d="M127.778,13.971l3.28-6.605A104.58,104.58,0,0,0,41.23,13.432,101.588,101.588,0,0,1,85,3.905a98.581,98.581,0,0,1,42.779,10.066" transform="translate(10.942 -0.001)" fill="#e6403b"/>
      </g>
    </g>
  </g>
</svg>
