<svg xmlns="http://www.w3.org/2000/svg" xmlns:xlink="http://www.w3.org/1999/xlink" width="200.96" height="46.025" viewBox="0 0 200.96 46.025">
  <defs>
    <clipPath id="clip-path">
      <path id="Path_24305" data-name="Path 24305" d="M63.534,7.244h1.8a2.346,2.346,0,0,1,1.741.5,3.312,3.312,0,0,1,.468,2.135,3.871,3.871,0,0,1-.448,2.308A2.7,2.7,0,0,1,65.1,12.7H63.531Zm1.908-.314H60.5v.314h1.623V18.5H60.5v.314h4.658V18.5H63.531l.008-5.478h1.784a4.621,4.621,0,0,0,2.818-.727,2.5,2.5,0,0,0,.957-2.129,2.967,2.967,0,0,0-1.023-2.333A3.826,3.826,0,0,0,65.6,6.925c-.051,0-.1,0-.156,0" transform="translate(-60.498 -6.925)" fill="none"/>
    </clipPath>
    <clipPath id="clip-path-2">
      <path id="Path_24308" data-name="Path 24308" d="M78.17,6.93v.314h1.625V18.5H78.17v.314h8.5v-5.33h-.187A8.141,8.141,0,0,1,85.238,17.3a3.034,3.034,0,0,1-2.565,1.2H81.2V7.241h1.625V6.927Z" transform="translate(-78.17 -6.927)" fill="none"/>
    </clipPath>
    <clipPath id="clip-path-3">
      <path id="Path_24310" data-name="Path 24310" d="M91.4,7.244h1.8a2.349,2.349,0,0,1,1.742.5,3.322,3.322,0,0,1,.469,2.135,3.883,3.883,0,0,1-.45,2.308,2.7,2.7,0,0,1-1.993.515H91.4Zm1.9-.314H88.366v.314h1.625V18.5H88.366v.314h4.658V18.5H91.4l0-5.478h1.783A4.6,4.6,0,0,0,96,12.3a2.5,2.5,0,0,0,.96-2.129,2.963,2.963,0,0,0-1.025-2.333,3.819,3.819,0,0,0-2.475-.909c-.051,0-.1,0-.156,0" transform="translate(-88.366 -6.925)" fill="none"/>
    </clipPath>
    <clipPath id="clip-path-4">
      <path id="Path_24311" data-name="Path 24311" d="M105.7,6.928l-2.54,9.3-2.422-9.3H97.414v.314h.42a1.57,1.57,0,0,1,1.011.254,1.088,1.088,0,0,1,.3.849v8.512a1.829,1.829,0,0,1-.358,1.232A1.386,1.386,0,0,1,97.7,18.5h-.286v.314h3.806V18.5h-.528a1.069,1.069,0,0,1-.936-.409,2.4,2.4,0,0,1-.289-1.345V7.122L102.5,18.813h.269l3.2-11.691L105.9,18.5h-1.632v.314h4.571V18.5h-1.613V7.242h1.608V6.928Z" transform="translate(-97.411 -6.928)" fill="none"/>
    </clipPath>
    <clipPath id="clip-path-5">
      <path id="Path_24312" data-name="Path 24312" d="M110.052,18.767h0a2.019,2.019,0,0,1-1.187-.385,3.018,3.018,0,0,1-.918-1.112,3.488,3.488,0,0,1-.363-1.234,23.651,23.651,0,0,1-.105-2.711v-.384q0-1.243.039-2.078a11.74,11.74,0,0,1,.114-1.279,3.815,3.815,0,0,1,.563-1.447,2.455,2.455,0,0,1,.84-.761,1.974,1.974,0,0,1,2.011,0,2.454,2.454,0,0,1,.84.761,3.527,3.527,0,0,1,.555,1.417,22.374,22.374,0,0,1,.162,3.388,26.313,26.313,0,0,1-.114,3.021,4.114,4.114,0,0,1-.354,1.307,3.065,3.065,0,0,1-.91,1.116,1.991,1.991,0,0,1-1.17.379h-.006m.006-11.959a3.064,3.064,0,0,0-1.914.682,5.285,5.285,0,0,0-1.485,1.947,7.889,7.889,0,0,0-.573,1.753,9.819,9.819,0,0,0-.114,3.211,7.9,7.9,0,0,0,.245,1.146,6.319,6.319,0,0,0,.984,1.966,4.151,4.151,0,0,0,1.322,1.155,3.153,3.153,0,0,0,1.535.42,3.1,3.1,0,0,0,1.538-.42,4.116,4.116,0,0,0,1.3-1.155,6.365,6.365,0,0,0,.984-1.975,8.335,8.335,0,0,0,.325-2.412,9,9,0,0,0-.42-2.792,6.725,6.725,0,0,0-1.21-2.239,3.709,3.709,0,0,0-1.172-.96,2.949,2.949,0,0,0-1.351-.331Z" transform="translate(-105.891 -6.803)" fill="none"/>
    </clipPath>
    <clipPath id="clip-path-6">
      <path id="Path_24313" data-name="Path 24313" d="M115.244,7.246h1.771a2.111,2.111,0,0,1,1.679.551,3.21,3.21,0,0,1,.462,2.005,3.776,3.776,0,0,1-.475,2.267,2.407,2.407,0,0,1-1.9.57h-1.541Zm2.318-.314h-5.351v.314h1.623V18.5h-1.623v.314l4.644.006v-.314h-1.623V12.945H117a1.819,1.819,0,0,1,1.47.5,3.481,3.481,0,0,1,.409,2.042,5.079,5.079,0,0,0,.542,2.8,2.178,2.178,0,0,0,1.888.74,2.29,2.29,0,0,0,.269-.017c.078-.012.162-.026.251-.044a1.9,1.9,0,0,0,.457-.152v-.313c-.075.033-.15.063-.229.089a.906.906,0,0,1-.137.033,1.241,1.241,0,0,0-.184.038h-.152a1.013,1.013,0,0,1-.725-.245,1.81,1.81,0,0,1-.411-.852c-.014-.051-.027-.105-.036-.158s-.018-.11-.03-.191a2.086,2.086,0,0,1-.014-.29V16.1a8.146,8.146,0,0,0-.042-.835c-.027-.181-.047-.3-.056-.375s-.036-.167-.059-.247a2.278,2.278,0,0,0-.874-1.318,2.9,2.9,0,0,0-.8-.384,3.333,3.333,0,0,0-1-.138,3.765,3.765,0,0,0,2.323-.93,2.762,2.762,0,0,0,.82-2.1,2.685,2.685,0,0,0-.82-2.1,3.3,3.3,0,0,0-2.094-.749c-.071,0-.143,0-.214.008" transform="translate(-112.211 -6.924)" fill="none"/>
    </clipPath>
    <clipPath id="clip-path-7">
      <path id="Path_24314" data-name="Path 24314" d="M122.172,7.246h1.771a2.111,2.111,0,0,1,1.677.551,3.221,3.221,0,0,1,.463,2.005,3.788,3.788,0,0,1-.475,2.267,2.42,2.42,0,0,1-1.894.57h-1.542Zm2.315-.314h-5.35v.314h1.623V18.5h-1.623v.314l4.646.006v-.314H122.16V12.945h1.771a1.816,1.816,0,0,1,1.468.5,3.484,3.484,0,0,1,.414,2.042,5.105,5.105,0,0,0,.537,2.8,2.7,2.7,0,0,0,2.154.724c.081-.012.164-.026.251-.044a1.877,1.877,0,0,0,.457-.152v-.313c-.075.033-.152.063-.23.089a.809.809,0,0,1-.135.033,1.007,1.007,0,0,0-.178.038h-.159a1.013,1.013,0,0,1-.725-.245,1.824,1.824,0,0,1-.411-.852c-.012-.054-.029-.114-.036-.158s-.018-.11-.027-.191a2.084,2.084,0,0,1-.017-.29V16.1c0-.31-.017-.59-.041-.835-.026-.181-.044-.3-.056-.375a2.15,2.15,0,0,0-.057-.247,2.281,2.281,0,0,0-.877-1.318,2.866,2.866,0,0,0-.8-.384,3.313,3.313,0,0,0-.993-.138,3.777,3.777,0,0,0,2.326-.93,2.779,2.779,0,0,0,.815-2.1,2.7,2.7,0,0,0-.815-2.1,3.316,3.316,0,0,0-2.1-.749c-.069,0-.138,0-.209.008" transform="translate(-119.137 -6.924)" fill="none"/>
    </clipPath>
    <clipPath id="clip-path-8">
      <path id="Path_24316" data-name="Path 24316" d="M132.933,6.8a2.6,2.6,0,0,0-1.852.858A3.121,3.121,0,0,0,130.3,9.85a2.772,2.772,0,0,0,.209,1.041,2.634,2.634,0,0,0,.575.868,9.012,9.012,0,0,0,1.844,1.178q.776.4,1.166.645a6.156,6.156,0,0,1,1.778,1.4,2.346,2.346,0,0,1,.477,1.459,2.266,2.266,0,0,1-.66,1.665,2.224,2.224,0,0,1-1.643.662,3.017,3.017,0,0,1-2.466-1.274,7.4,7.4,0,0,1-1.316-3.6h-.25v5.064l.184,0,.882-1.631a4.5,4.5,0,0,0,1.347,1.312,3.072,3.072,0,0,0,1.393.436h.4a3.079,3.079,0,0,0,2.06-.976,3.507,3.507,0,0,0,.91-2.243v-.352a3.09,3.09,0,0,0-.659-1.849,7.717,7.717,0,0,0-2.3-1.754l-.769-.42Q130.9,10.1,130.9,9.049a1.751,1.751,0,0,1,.636-1.381,2.371,2.371,0,0,1,1.6-.548,2.682,2.682,0,0,1,2.148,1.1,7.132,7.132,0,0,1,1.279,3.147h.251V6.8h-.1L135.8,8.378a4.631,4.631,0,0,0-1.277-1.208,2.847,2.847,0,0,0-1.344-.367Z" transform="translate(-130.013 -6.803)" fill="none"/>
    </clipPath>
    <clipPath id="clip-path-9">
      <path id="Path_24318" data-name="Path 24318" d="M63.923,18.044v.313h.415a1.817,1.817,0,0,1,.882.165,1.09,1.09,0,0,1,.439.552V27.4a3.154,3.154,0,0,1-.351,1.679,1.211,1.211,0,0,1-1.1.545h-.286v.313h3.806v-.313h-.266a1.236,1.236,0,0,1-1.118-.569,3.132,3.132,0,0,1-.369-1.687v-8l5.609,10.769h.238V20.581a3.108,3.108,0,0,1,.358-1.671,1.224,1.224,0,0,1,1.1-.549h.295v-.314H69.745v.314h.271a1.263,1.263,0,0,1,1.127.573,3.114,3.114,0,0,1,.376,1.7v6.436l-4.7-9.022Z" transform="translate(-63.923 -18.044)" fill="none"/>
    </clipPath>
    <clipPath id="clip-path-10">
      <path id="Path_24319" data-name="Path 24319" d="M70.583,18.044v4.9h.188a7.841,7.841,0,0,1,.259-2.084,4.9,4.9,0,0,1,.623-1.414,2.393,2.393,0,0,1,2.124-1.1h.129l.12.009V29.618H72.414v.313l4.653,0v-.314H75.441V18.342h.032a2.727,2.727,0,0,1,2.371.984,7.607,7.607,0,0,1,.943,3.618h.2v-4.9Z" transform="translate(-70.583 -18.044)" fill="none"/>
    </clipPath>
    <clipPath id="clip-path-11">
      <path id="Path_24320" data-name="Path 24320" d="M76.541,18.046v.314h1.623V29.617H76.541v.313L85,29.936V25.242h-.188a7.088,7.088,0,0,1-1.035,3.311,2.519,2.519,0,0,1-2.154,1.065H79.577V23.692h.736a1.639,1.639,0,0,1,1.375.573,2.247,2.247,0,0,1,.391.793,3.938,3.938,0,0,1,.14,1.107h.17V20.745h-.17a3.729,3.729,0,0,1-.153,1.107,2.672,2.672,0,0,1-.42.847,1.72,1.72,0,0,1-1.435.694h-.636V18.363h2.072a2.449,2.449,0,0,1,2.033.83,6.124,6.124,0,0,1,.964,2.893h.179V18.046Z" transform="translate(-76.541 -18.046)" fill="none"/>
    </clipPath>
    <clipPath id="clip-path-12">
      <path id="Path_24321" data-name="Path 24321" d="M86.132,18.362H87.9a2.117,2.117,0,0,1,1.674.548,3.24,3.24,0,0,1,.46,2.005,3.78,3.78,0,0,1-.474,2.27,2.409,2.409,0,0,1-1.888.57H86.132Zm2.323-.314H83.1v.314h1.625V29.62H83.1v.313l4.652.014v-.316H86.124V24.069H87.9a1.816,1.816,0,0,1,1.468.5,3.481,3.481,0,0,1,.412,2.042,5.126,5.126,0,0,0,.536,2.8,2.176,2.176,0,0,0,1.89.74,1.818,1.818,0,0,0,.271-.017c.081-.011.164-.026.251-.042a1.98,1.98,0,0,0,.459-.152v-.314c-.075.035-.153.062-.232.089a1.035,1.035,0,0,1-.138.035,1.217,1.217,0,0,0-.179.036H92.48a1.016,1.016,0,0,1-.728-.245,1.809,1.809,0,0,1-.409-.85,1.443,1.443,0,0,1-.038-.159c-.006-.047-.017-.111-.027-.191a2.087,2.087,0,0,1-.017-.29v-.832a7.823,7.823,0,0,0-.041-.839c-.029-.181-.047-.305-.056-.376a1.706,1.706,0,0,0-.057-.245,2.253,2.253,0,0,0-.877-1.318,2.842,2.842,0,0,0-.8-.385,3.371,3.371,0,0,0-.994-.137,3.784,3.784,0,0,0,2.327-.933,2.778,2.778,0,0,0,.814-2.1,2.7,2.7,0,0,0-.815-2.1,3.326,3.326,0,0,0-2.1-.748c-.069,0-.138,0-.209.006" transform="translate(-83.097 -18.042)" fill="none"/>
    </clipPath>
    <clipPath id="clip-path-13">
      <path id="Path_24322" data-name="Path 24322" d="M89.691,18.044v.313h.42a1.8,1.8,0,0,1,.879.165,1.078,1.078,0,0,1,.444.552V27.4a3.17,3.17,0,0,1-.349,1.679,1.219,1.219,0,0,1-1.1.545H89.7v.313H93.5v-.313h-.271a1.237,1.237,0,0,1-1.116-.569,3.132,3.132,0,0,1-.369-1.687v-8l5.606,10.769h.238V20.581a3.108,3.108,0,0,1,.358-1.671,1.22,1.22,0,0,1,1.092-.549h.3v-.314H95.518v.314h.265a1.258,1.258,0,0,1,1.13.573,3.113,3.113,0,0,1,.375,1.7v6.436l-4.7-9.022Z" transform="translate(-89.691 -18.044)" fill="none"/>
    </clipPath>
    <clipPath id="clip-path-14">
      <path id="Path_24323" data-name="Path 24323" d="M100.015,20.13l1.691,5.771H98.29Zm.332-2.212L97.539,27.3a5.4,5.4,0,0,1-.833,1.805,1.7,1.7,0,0,1-1.125.572v.314h3.611v-.314h-.339a1.183,1.183,0,0,1-.88-.331,1.28,1.28,0,0,1-.32-.928l.033-.432c.015-.108.032-.184.038-.221s.03-.105.059-.209l.4-1.356h3.623l1.022,3.478h-1.4v.316h3.9v-.316h-1.07l-3.545-11.76Z" transform="translate(-95.58 -17.918)" fill="none"/>
    </clipPath>
    <clipPath id="clip-path-15">
      <path id="Path_24324" data-name="Path 24324" d="M101.357,18.044v4.9h.187a7.9,7.9,0,0,1,.26-2.084,4.91,4.91,0,0,1,.621-1.414,2.389,2.389,0,0,1,2.123-1.1h.131l.123.009V29.618h-1.614v.313l4.65,0v-.314h-1.623V18.342h.032a2.738,2.738,0,0,1,2.371.984,7.648,7.648,0,0,1,.945,3.618h.2v-4.9Z" transform="translate(-101.357 -18.044)" fill="none"/>
    </clipPath>
    <clipPath id="clip-path-16">
      <path id="Path_24326" data-name="Path 24326" d="M115.118,29.883Zm-1.186-.384a2.979,2.979,0,0,1-.916-1.113,3.432,3.432,0,0,1-.366-1.234,24,24,0,0,1-.107-2.711v-.384q0-1.239.044-2.079A11.775,11.775,0,0,1,112.7,20.7a3.751,3.751,0,0,1,.563-1.446,2.475,2.475,0,0,1,.835-.763,2.087,2.087,0,0,1,1.019-.274,2.028,2.028,0,0,1,1,.274,2.5,2.5,0,0,1,.839.763,3.632,3.632,0,0,1,.554,1.417,22.767,22.767,0,0,1,.162,3.388,26.691,26.691,0,0,1-.116,3.022,4.139,4.139,0,0,1-.349,1.306,3.057,3.057,0,0,1-.918,1.116,1.957,1.957,0,0,1-1.17.379h0a2.006,2.006,0,0,1-1.181-.384m-.722-10.9a5.275,5.275,0,0,0-1.488,1.945,8.072,8.072,0,0,0-.572,1.753,9.877,9.877,0,0,0-.2,1.941,8.949,8.949,0,0,0,.084,1.268,8.07,8.07,0,0,0,.244,1.148,6.457,6.457,0,0,0,.976,1.968,4.2,4.2,0,0,0,1.328,1.158,3.026,3.026,0,0,0,3.075,0,4.1,4.1,0,0,0,1.3-1.154,6.356,6.356,0,0,0,.987-1.975,8.446,8.446,0,0,0,.322-2.413,9.054,9.054,0,0,0-.42-2.792,6.865,6.865,0,0,0-1.21-2.239,3.79,3.79,0,0,0-1.173-.96,2.959,2.959,0,0,0-1.347-.331,3.076,3.076,0,0,0-1.912.683m1.909-.683h0Z" transform="translate(-110.955 -17.919)" fill="none"/>
    </clipPath>
    <clipPath id="clip-path-17">
      <path id="Path_24327" data-name="Path 24327" d="M116.946,18.044v.313h.414a1.82,1.82,0,0,1,.883.165,1.084,1.084,0,0,1,.436.552V27.4a3.159,3.159,0,0,1-.349,1.679,1.208,1.208,0,0,1-1.1.545h-.286v.313h3.806v-.313h-.268a1.246,1.246,0,0,1-1.121-.569A3.173,3.173,0,0,1,119,27.364v-8l5.609,10.769h.236V20.581a3.15,3.15,0,0,1,.358-1.671,1.224,1.224,0,0,1,1.094-.549h.3v-.314H122.77v.314h.269a1.263,1.263,0,0,1,1.127.573,3.086,3.086,0,0,1,.373,1.7v6.436l-4.692-9.022Z" transform="translate(-116.946 -18.044)" fill="none"/>
    </clipPath>
    <clipPath id="clip-path-18">
      <path id="Path_24328" data-name="Path 24328" d="M127.267,20.13l1.69,5.771h-3.418Zm.332-2.212L124.788,27.3a5.361,5.361,0,0,1-.83,1.805,1.709,1.709,0,0,1-1.128.572v.314h3.612v-.314h-.334a1.171,1.171,0,0,1-.879-.331,1.268,1.268,0,0,1-.325-.928l.032-.432c.017-.108.03-.184.038-.221s.03-.105.062-.209l.4-1.356h3.621l1.023,3.478h-1.41v.316h3.91v-.316h-1.07l-3.54-11.76Z" transform="translate(-122.829 -17.918)" fill="none"/>
    </clipPath>
    <clipPath id="clip-path-19">
      <path id="Path_24329" data-name="Path 24329" d="M129.038,18.048v.314h1.625V29.614h-1.625v.314h8.5V24.6h-.184a8.147,8.147,0,0,1-1.246,3.815,3.034,3.034,0,0,1-2.57,1.2H132.07V18.357h1.625v-.314Z" transform="translate(-129.038 -18.043)" fill="none"/>
    </clipPath>
    <clipPath id="clip-path-20">
      <path id="Path_24330" data-name="Path 24330" d="M19.774,13.163c0,.453-.047,4.3-.09,5.192-.024.433.024.666.156.749h0c.141.089.36-.011.59-.131.481-.251.578-.68.743-3.269.134-2.112-.369-2.887-.588-3.122a.6.6,0,0,0-.42-.22c-.36.024-.39.424-.39.8" transform="translate(-19.678 -12.363)" fill="none"/>
    </clipPath>
    <clipPath id="clip-path-21">
      <path id="Path_24334" data-name="Path 24334" d="M18.85,28.238l.478-.048a.408.408,0,0,1,.2.02.258.258,0,0,1,.143.239.23.23,0,0,1-.105.242.468.468,0,0,1-.2.054l-.463.047Zm.518-.415-.982.1.2,2.061.42-.042-.077-.808.42-.039a.334.334,0,0,1,.254.039.4.4,0,0,1,.093.254l.023.193a1.144,1.144,0,0,0,.032.172c.012.035.026.071.039.105l.474-.047v-.051a.177.177,0,0,1-.092-.105,1.01,1.01,0,0,1-.029-.191l-.014-.135a.677.677,0,0,0-.093-.314.365.365,0,0,0-.209-.143.409.409,0,0,0,.221-.224.627.627,0,0,0,.05-.3.641.641,0,0,0-.062-.215.679.679,0,0,0-.117-.161.5.5,0,0,0-.211-.126.958.958,0,0,0-.227-.027.946.946,0,0,0-.113.006" transform="translate(-18.385 -27.817)" fill="none"/>
    </clipPath>
    <clipPath id="clip-path-22">
      <path id="Path_24338" data-name="Path 24338" d="M26.129,29.462a.808.808,0,0,1-.081-.546.844.844,0,0,1,.217-.512.809.809,0,0,1,.068-.053.535.535,0,0,1,.739.159.847.847,0,0,1,.078.546.824.824,0,0,1-.217.51.488.488,0,0,1-.081.063.517.517,0,0,1-.277.08.525.525,0,0,1-.445-.248m-.089-1.4a1.1,1.1,0,0,0-.42.8,1.118,1.118,0,0,0,.2.885,1.072,1.072,0,0,0,1.343.173h0a1.317,1.317,0,0,0,.22-1.69,1.057,1.057,0,0,0-1.34-.17" transform="translate(-25.6 -27.894)" fill="none"/>
    </clipPath>
    <clipPath id="clip-path-23">
      <path id="Path_24342" data-name="Path 24342" d="M12.78,27.643l.367-.105a.354.354,0,0,1,.236,0v0a.283.283,0,0,1,.14.2.3.3,0,0,1-.009.247.329.329,0,0,1-.2.135l-.367.105Zm.334-.469-.852.248.582,1.986.418-.122-.211-.712.411-.12a.774.774,0,0,0,.451-.287v0a.654.654,0,0,0,.027-.551.638.638,0,0,0-.314-.42.714.714,0,0,0-.513-.018" transform="translate(-12.262 -27.134)" fill="none"/>
    </clipPath>
    <clipPath id="clip-path-24">
      <path id="Path_24346" data-name="Path 24346" d="M20.142,26.275l.382-.018a.309.309,0,0,1,.229.056.279.279,0,0,1,.092.221.294.294,0,0,1-.066.239.308.308,0,0,1-.22.09l-.381.023Zm.433-.379-.888.05.122,2.067.433-.027L20.2,27.25l.424-.024a.764.764,0,0,0,.5-.182v-.008a.638.638,0,0,0,.15-.524.628.628,0,0,0-.211-.486.69.69,0,0,0-.412-.135.736.736,0,0,0-.081,0" transform="translate(-19.688 -25.891)" fill="none"/>
    </clipPath>
    <clipPath id="clip-path-25">
      <path id="Path_24347" data-name="Path 24347" d="M22.478,27.909l.4.009.041-1.4v-.169c0-.072,0-.128,0-.169l.334,1.748.421.012.441-1.724a1.5,1.5,0,0,1,0,.167,1.3,1.3,0,0,0-.009.169l-.041,1.4.4.011.063-2.069-.62-.018L23.5,27.5l-.328-1.64-.629-.018Z" transform="translate(-22.478 -25.84)" fill="none"/>
    </clipPath>
    <clipPath id="clip-path-26">
      <path id="Path_24348" data-name="Path 24348" d="M25.09,27.536a.824.824,0,0,1-.105-.543.84.84,0,0,1,.2-.525.507.507,0,0,1,.42-.152.5.5,0,0,1,.384.226,1.035,1.035,0,0,1-.095,1.062l0,.006a.458.458,0,0,1-.078.065.522.522,0,0,1-.728-.138m-.149-1.41a1.108,1.108,0,0,0-.391.82,1.12,1.12,0,0,0,.236.876,1.062,1.062,0,0,0,1.345.123,1.114,1.114,0,0,0,.39-.82,1.092,1.092,0,0,0-.233-.874.9.9,0,0,0-.651-.305.857.857,0,0,0-.138-.011.907.907,0,0,0-.557.191" transform="translate(-24.536 -25.935)" fill="none"/>
    </clipPath>
    <clipPath id="clip-path-27">
      <path id="Path_24349" data-name="Path 24349" d="M27.528,27.184l-.459-.068.081-.552.472.077a.444.444,0,0,1,.194.065.276.276,0,0,1,.078.268.229.229,0,0,1-.158.211.61.61,0,0,1-.209,0m-1.052,1,.42.065.12-.8.418.062a.35.35,0,0,1,.235.105.392.392,0,0,1,.029.271l-.024.191a.879.879,0,0,0-.009.178.718.718,0,0,0,.011.114l.469.071.008-.051a.174.174,0,0,1-.062-.128,1.015,1.015,0,0,1,.018-.191l.02-.138a.656.656,0,0,0-.011-.328.389.389,0,0,0-.173-.191.426.426,0,0,0,.274-.162.677.677,0,0,0,.117-.277.609.609,0,0,0-.009-.221.526.526,0,0,0-.078-.188.48.48,0,0,0-.168-.17.864.864,0,0,0-.313-.1l-.975-.149Z" transform="translate(-26.476 -26.143)" fill="none"/>
    </clipPath>
    <clipPath id="clip-path-28">
      <path id="Path_24350" data-name="Path 24350" d="M29.406,27.533l-.453-.1.113-.543.468.1a.4.4,0,0,1,.187.077.261.261,0,0,1,.062.271.23.23,0,0,1-.167.2.492.492,0,0,1-.081.006.514.514,0,0,1-.128-.017m-1.107.945.414.086.169-.79.409.086a.332.332,0,0,1,.229.116.4.4,0,0,1,.014.272l-.036.188a.8.8,0,0,0-.021.178c0,.03,0,.066,0,.114l.466.1.008-.05a.184.184,0,0,1-.051-.131,1.2,1.2,0,0,1,.03-.191l.029-.134a.661.661,0,0,0,.009-.329.386.386,0,0,0-.165-.2.407.407,0,0,0,.283-.147.6.6,0,0,0,.14-.486.524.524,0,0,0-.066-.193A.53.53,0,0,0,30,26.778a1.044,1.044,0,0,0-.308-.12l-.969-.2Z" transform="translate(-28.299 -26.456)" fill="none"/>
    </clipPath>
    <clipPath id="clip-path-29">
      <path id="Path_24352" data-name="Path 24352" d="M31.743,27.276a.605.605,0,0,0-.331.384.513.513,0,0,0,.075.49,1.43,1.43,0,0,0,.382.28l.2.113a1.094,1.094,0,0,1,.242.173.176.176,0,0,1,.038.176.241.241,0,0,1-.241.181.92.92,0,0,1-.248-.039.452.452,0,0,1-.307-.23.436.436,0,0,1-.014-.224l-.4-.117a.615.615,0,0,0,.074.552,1.006,1.006,0,0,0,.558.363.909.909,0,0,0,.642,0,.6.6,0,0,0,.345-.388.507.507,0,0,0-.054-.459.959.959,0,0,0-.3-.247l-.314-.188a1.256,1.256,0,0,1-.238-.158.181.181,0,0,1-.045-.188.207.207,0,0,1,.153-.147.472.472,0,0,1,.274.009.625.625,0,0,1,.229.123.3.3,0,0,1,.08.3l.4.123a.625.625,0,0,0-.084-.554.935.935,0,0,0-.49-.329.893.893,0,0,0-.629,0" transform="translate(-31.105 -27.219)" fill="none"/>
    </clipPath>
    <clipPath id="clip-path-30">
      <path id="Path_24353" data-name="Path 24353" d="M17.107,20.006c0-5.258,3.525-9.54,7.858-9.54s7.856,4.279,7.856,9.54-3.523,9.538-7.856,9.538-7.858-4.28-7.858-9.538M24.965,9.982c-4.6,0-8.338,4.5-8.338,10.024s3.739,10.018,8.338,10.021h0c4.6,0,8.336-4.5,8.336-10.021S29.569,9.984,24.969,9.982Z" transform="translate(-16.627 -9.982)" fill="none"/>
    </clipPath>
    <clipPath id="clip-path-31">
      <path id="Path_24354" data-name="Path 24354" d="M27,18.63a27.832,27.832,0,0,1,1.93-4.846c.15-.211.2-.244.241-.227s.03.093.011.2l-.014.066A32.548,32.548,0,0,0,30.214,25.1c.056.168.05.211.018.233s-.1-.03-.164-.093c0,0-.014-.018-.008-.014-1.538-1.022-2.321-4.259-2.344-4.513-.009-.111-.035-.137-.039-.143l-.012.021c-.125.42-.48,2.049-.716,3.128-.107.506-.19.873-.211.937l-.026.105c-.017.072-.023.105-.059.105s-.044-.027-.105-.211-.366-1.374-.614-2.341c-.175-.679-.325-1.259-.349-1.334a.556.556,0,0,0-.048-.132.354.354,0,0,0-.023.039l-.191.6a6.086,6.086,0,0,1-1.944,3.424c-.272.2-.314.2-.345.176s0-.107.1-.25A22.091,22.091,0,0,0,24.919,13.9l.014,0c-.027-.129-.023-.176.011-.188s.077.033.15.159l.032.056a26.775,26.775,0,0,1,1.8,4.7.3.3,0,0,0,.035.092A.369.369,0,0,0,27,18.63m-7.814,6.629a.1.1,0,0,1-.032-.083.6.6,0,0,1,.032-.146,35.834,35.834,0,0,0,.56-7.5c0-1.139-.029-2.085-.072-2.559-.009-.105-.014-.194-.014-.272,0-.366.113-.427.343-.516l.024-.008a.876.876,0,0,0,.561-.363,1.235,1.235,0,0,1,1.113-.833c.471,0,2.225.63,2.225,3.737a3.791,3.791,0,0,1-2.413,3.934l-.05.017c-.211.08-.233.268-.247.43l-.008.048c-.332,2.925-1.47,3.862-1.819,4.082l0,0a.288.288,0,0,1-.144.056.079.079,0,0,1-.056-.02m-2.245-5.413c0,5.261,3.525,9.537,7.858,9.537s7.855-4.279,7.855-9.537S29.128,10.3,24.8,10.3s-7.858,4.28-7.858,9.541" transform="translate(-16.939 -10.304)" fill="none"/>
    </clipPath>
    <clipPath id="clip-path-32">
      <path id="Path_24355" data-name="Path 24355" d="M22.027,3.4a.4.4,0,1,1,.4.4.4.4,0,0,1-.4-.4m-.483,0a.88.88,0,0,0,.877.883h0a.881.881,0,1,0-.88-.883" transform="translate(-21.544 -2.52)" fill="none"/>
    </clipPath>
    <clipPath id="clip-path-33">
      <path id="Path_24356" data-name="Path 24356" d="M25.057,6c-.014-.02-.027-.041-.042-.06.014.021.029.042.042.06M2.132,43.824c.278-.546,1.413-2.749,1.413-2.749s-1.183-2.055-1.5-2.607h4.68c0,.021-.006.041-.006.065a.611.611,0,0,0,.077.3.676.676,0,0,0,.509.314,4.1,4.1,0,0,0,.815.057h.1c.575-.02,1.213-.042,1.408-.736H16.5c.03.023.49.366.952.7-.682.215-1.354.442-2.013.685l-.2.072,1.143,3.894ZM56.7,39.376a.893.893,0,0,0,.674-.439,1.9,1.9,0,0,0,.162-.465v0h5.711c-.314.552-1.5,2.607-1.5,2.607s1.133,2.2,1.411,2.749H49.15l1.136-3.883-.2-.081c-.647-.238-1.31-.462-1.983-.676.43-.342.865-.691.894-.713h4.437a1.007,1.007,0,0,0,.22.218.784.784,0,0,0,.686,0,.854.854,0,0,0,.176.361.929.929,0,0,0,1.22.268l.209-.146a.911.911,0,0,0,.594.218.756.756,0,0,0,.164-.015m-40.874.856A51.488,51.488,0,0,1,32.745,37.28h.029a51.592,51.592,0,0,1,16.934,2.959l-1.879,6.373A47.391,47.391,0,0,0,32.774,44.05h-.027A47.271,47.271,0,0,0,17.69,46.615Zm26.215-3.609a.732.732,0,0,0,.262-.572,3.58,3.58,0,0,0-.053-.922.7.7,0,0,0,.657.155c.024.068.047.159.065.229l.018.069a.706.706,0,0,0,.539.5.551.551,0,0,0,.2.006,2.816,2.816,0,0,1-.474,1.334,3.077,3.077,0,0,1-.534.387c-1.383-.274-2.78-.493-4.175-.66a1.98,1.98,0,0,1,1.094-.487l0-.011c.165.009.379.044.6.078a6.722,6.722,0,0,0,1.008.11,1.216,1.216,0,0,0,.785-.215m-18.308-.366a.268.268,0,0,1-.086-.229,3.86,3.86,0,0,1,1.258-2.917,10.446,10.446,0,0,0,5.282,3.754H30.4c-.916.047-1.844.12-2.776.22-.056-.054-.113-.116-.123-.123l-.042-.038a2.327,2.327,0,0,0-1.661-.748V36.17c-.187.012-.411.047-.648.087a7.092,7.092,0,0,1-.949.1.785.785,0,0,1-.463-.1m11.36.606h.162A10.45,10.45,0,0,0,40.551,33.1a3.881,3.881,0,0,1,1.274,2.931h0a.275.275,0,0,1-.09.227c-.23.193-.912.083-1.41,0-.239-.039-.462-.075-.65-.086a2.328,2.328,0,0,0-1.668.746,2.221,2.221,0,0,0-.159.155c-.922-.095-1.846-.168-2.756-.209m-12.883.555a1.5,1.5,0,0,1-.185-.283l0,0h.015a.658.658,0,0,0,.351-.1.673.673,0,0,0,.281-.481,2.766,2.766,0,0,0-.806-2.052,6.1,6.1,0,0,1,1.942-3.027l.021-.018a12.413,12.413,0,0,0,.788,1.259,4.339,4.339,0,0,0-1.45,3.335.731.731,0,0,0,.26.573c.4.328,1.139.209,1.793.1.224-.033.436-.068.6-.077a2.159,2.159,0,0,1,1.124.5c-1.407.17-2.816.393-4.21.669a1.979,1.979,0,0,1-.525-.4M40.841,32.7a13.253,13.253,0,0,0,.787-1.259l.038.039c.217.211.466.441.713.725a2.857,2.857,0,0,0-.549.223,1.1,1.1,0,0,0-.6.706c-.146-.175-.287-.319-.391-.433m-30.654.8a1.412,1.412,0,0,0,.882-.966,2.509,2.509,0,0,0,1.8-.839,3.65,3.65,0,0,0,.466-.9l.048.023a3.024,3.024,0,0,0,1.908.335,1.834,1.834,0,0,1,.185-.021,4.026,4.026,0,0,0-.8.886,1.291,1.291,0,0,0-.307.767.826.826,0,0,0,.02.184c.107.5.63.776,1.006.979l.056.027a8.593,8.593,0,0,0,1.136.469l.617.238a2.154,2.154,0,0,1,.567.4,3.8,3.8,0,0,0,.734.53c.581.308.9.429,1.283.331l.045-.006c.017.086.033.211.039.257.081.63.748.712,1.187.77l.194.024.209.051a2.305,2.305,0,0,0,.372.691l.283.22c-1.405.3-2.78.648-4.115,1.05l-1.353-1.016H9.676v-.038a1.459,1.459,0,0,0-.557-1.331v-.008l-.072-.056-.456-.387c-.256-.218-.545-.462-.629-.548a2,2,0,0,1-.178-.877,1.761,1.761,0,0,1,.009-.179,6.582,6.582,0,0,1,.134-.707s.027-.119.038-.181a1.17,1.17,0,0,1,.689-.1,3.339,3.339,0,0,0,1.533-.068m33.2,4.447a1.971,1.971,0,0,0,.244-.218,3.6,3.6,0,0,0,.618-1.947l.02-.018.289-.414a3.462,3.462,0,0,1,1.013-1.142,6.949,6.949,0,0,1,1.844-.506h.173c.558,0,1.595-.014,1.86-.679A.844.844,0,0,0,49.2,32a.907.907,0,0,1-.129-.155l-.063-.116a1.021,1.021,0,0,1,.078-1.4c.012-.009.027-.014.041-.024a.207.207,0,0,0,.074-.083A6.1,6.1,0,0,0,50.939,32.7a5.14,5.14,0,0,0,2.553,1.172,7.75,7.75,0,0,1,1.246.211,1.036,1.036,0,0,1,.42.734,1.2,1.2,0,0,1-.5,1.259,2.843,2.843,0,0,0-1.389,1.8.356.356,0,0,0,0,.105l0,0H48.842l-1.292,1.022c-1.35-.4-2.741-.76-4.16-1.059M18.29,27.838l0,0a.764.764,0,0,1,.913.326l.232.4a4.89,4.89,0,0,1,.442.877c.057.354-.943,1.42-1.557,1.748a10.556,10.556,0,0,0-1.155.743,1,1,0,0,0-.194.545.651.651,0,0,0,.024.179.965.965,0,0,0,.588.569,7.459,7.459,0,0,0,1.867.644,2.606,2.606,0,0,1,1.273.606,2.107,2.107,0,0,0,.683.4l.245.062a2.92,2.92,0,0,1,.558,1.423.514.514,0,0,1-.011.107.241.241,0,0,1-.069.159c-.083.054-.3.008-.472-.038l-.176-.042-.15-.033-.211-.03c-.433-.056-.742-.111-.775-.355a3.037,3.037,0,0,0-.053-.328c-.209-.84-.179-.475-.543-.345l-.08.02c-.187.045-.358.017-.939-.29a3.182,3.182,0,0,1-.645-.471,2.685,2.685,0,0,0-.694-.477l-.642-.245a8.523,8.523,0,0,1-1.074-.441l-.053-.027c-.3-.158-.7-.375-.764-.656a.706.706,0,0,1,.2-.554,3.143,3.143,0,0,1,.736-.8c.089-.042.409-.313.332-.54-.063-.191-.259-.4-.921-.29a2.571,2.571,0,0,1-1.632-.305l-.068-.027c.188-.477.4-.946.635-1.4a4.912,4.912,0,0,1,.537-.821l.137-.149a10.16,10.16,0,0,0,3.474-.134m28.071,4.235a.691.691,0,0,0,.1-.63,2.676,2.676,0,0,0-.715-1.032,5.714,5.714,0,0,1-.6-.707,2.661,2.661,0,0,1-.056-2.544,1.027,1.027,0,0,1,.411-.554c.116-.047.247,0,.432.084l.132.057a6.873,6.873,0,0,0,3.489-.053,1.3,1.3,0,0,1-.105.271A5.732,5.732,0,0,0,49,29.642v0a.983.983,0,0,0,.027.1,2.806,2.806,0,0,0-.235.209c-.391.176-.969-.232-1.259-.433l-.036-.026c-.621-.478-1.184-.582-.28.271l.036.024a3.437,3.437,0,0,0,1.175.648,1.584,1.584,0,0,0,.159,1.544l.051.087a1.032,1.032,0,0,0,.22.277c.167.169.247.248.14.518-.153.382-1.115.376-1.468.373h-.105a7.232,7.232,0,0,0-2.034.545,3.372,3.372,0,0,0-1.176,1.249,4.779,4.779,0,0,1-.433.563.186.186,0,0,1-.146.03.251.251,0,0,1-.172-.149l-.116-.394c-.087-.4-.014-.606-.487-.268a.263.263,0,0,1-.25,0c-.116-.075-.242-.2-.187-.308.009-.015.1-.2.1-.2.3-.542.09-.525-.376-.477a.689.689,0,0,0-.11.015c-.059.012-.251-.105-.326-.323-.095-.26.029-.492.351-.666a2.567,2.567,0,0,1,.645-.239,3.748,3.748,0,0,1,.533-.089,10.053,10.053,0,0,1,1.428-.023l.4.012c.051,0,.1.008.15.008a1.692,1.692,0,0,0,1.142-.444m-1.932-5.555c.433-.047.764-.719.82-1.322.03-.3.12-.339.328-.42l.172-.075.268-.128c.385-.2-.06.011.418-.241l0,0,.008.008a3.984,3.984,0,0,0,1.9.84,4.768,4.768,0,0,1,1.235.457,1.729,1.729,0,0,1,.062.542,6.711,6.711,0,0,1-3.408.116l-.105-.044a1.011,1.011,0,0,0-.8-.093,1.385,1.385,0,0,0-.68.815,3.141,3.141,0,0,0,.105,3.007,6.252,6.252,0,0,0,.647.764,2.344,2.344,0,0,1,.6.829.22.22,0,0,1-.024.211,1.277,1.277,0,0,1-.91.248l-.381-.014a9.2,9.2,0,0,0-1.784.063,10.4,10.4,0,0,0-.912-.945l-.135-.132a14.6,14.6,0,0,0,1.42-4.917.672.672,0,0,0,.2-.051c.027.041.056.078.056.078a1.127,1.127,0,0,0,.862.4h.032M15.25,27.558a3.766,3.766,0,0,1,2.139-.839,4.549,4.549,0,0,0,2.54-1.223,9.808,9.808,0,0,0,1.661-2.171c.02-.035.033-.066.054-.1,0,.056-.009.113-.012.178l-.011.141a5.228,5.228,0,0,1-.048,1.429v0c-.188.348-.239.442-.53.546a.311.311,0,0,1-.259-.006.747.747,0,0,0-.524,0c-.688.251-.666.615-.63,1.119l.02.329a1.175,1.175,0,0,0,.123.524,1.028,1.028,0,0,0,.233.257.807.807,0,0,0,.757.02c.075-.035.31-.117.555-.2.326-.114.71-.242,1.017-.369A14.4,14.4,0,0,0,23.6,31.009l-.117.114a6.468,6.468,0,0,0-2.075,3.226,1.741,1.741,0,0,1-.372-.244,3.077,3.077,0,0,0-1.51-.715,7.471,7.471,0,0,1-1.744-.608c-.179-.081-.293-.175-.32-.262a.412.412,0,0,1,.105-.316,4.914,4.914,0,0,1,.987-.578c.5-.269,1.932-1.5,1.81-2.26a4.11,4.11,0,0,0-.5-1.049l-.227-.394a1.23,1.23,0,0,0-1.45-.567,11.244,11.244,0,0,1-2.231.221c-.236,0-.471-.006-.706-.021m40.922-1.832c0-.349.065-.955.49-1.127.065-.026.176-.069.239-.086.722-.19.7-.2.209-.546a.75.75,0,0,1-.072-.05l-.021-.02A.18.18,0,0,1,57,23.792a3.538,3.538,0,0,1,.173-.757c.053-.176.072-.29.117-.451a2.576,2.576,0,0,1,.641-1.059c0-.009.009-.011.011-.018.011.036.036.131.036.131l.051.173c.08.271.2.644.271.83.251.669.159.751.909.427l.2-.081a.268.268,0,0,1,.045-.026,1.524,1.524,0,0,1,.027.162v.033c.015.172.3,1.267.363,1.529.242.934-.012.861.763.548.539-.22.846-.161.867-.117.191.316-.734,1.814-1.16,2.2a4.491,4.491,0,0,0-.707,1.106l-.024.059a5.4,5.4,0,0,1-.7,1.273,2.871,2.871,0,0,1-3.681.728l-.056-.024a3.358,3.358,0,0,0,.235-1,2.186,2.186,0,0,0,1.482.5,2.4,2.4,0,0,0,2.212-2.388,1.857,1.857,0,0,0-1.8-1.819,1.983,1.983,0,0,0-1.091.209c0-.041-.011-.123-.011-.23m-13.625-6.2,2.114.135a5.61,5.61,0,0,0,.272,1.542l.008,0a4.263,4.263,0,0,1-.679.286,4.705,4.705,0,0,0-1.1.42,15.3,15.3,0,0,0-.618-2.385M5.329,20.573a2.456,2.456,0,0,0,.484-1.347V19.2l.014-.017c.008-.009.033-.012.074-.012a3.663,3.663,0,0,1-.757,2.257l0-.006-.241.373c-.363.6-.656,1.19-.871,1.623l-.092.19c-.175.375-.211.388-.316.367a1.808,1.808,0,0,1,.05-.254,1.728,1.728,0,0,0,.077-.447.244.244,0,0,0,0-.066,5.462,5.462,0,0,0-.919-1.792l-.066-.105A1.537,1.537,0,0,1,2.6,20.5c0-.232.023-.463.038-.644V19.85a1.381,1.381,0,0,0,1.089-.275v.051a3.53,3.53,0,0,0,.169,1l.026.087c.062.229.162.609.5.651a.405.405,0,0,0,.06,0c.266,0,.527-.247.85-.8m56.179,1.172c.23-.071.271-.314.3-.489l.041-.17a10.717,10.717,0,0,0,.441-1.906,2.542,2.542,0,0,1,.105-.54.1.1,0,0,1,.035.009l.029.014c.05.02.105.045.172.068a2.819,2.819,0,0,1,.3,1.13.923.923,0,0,1-.075.387v0a5.471,5.471,0,0,0-.567,2.054.929.929,0,0,0,.466.749c.042.026.039.068-.011.1-.032.017-.165.1-.165.1a1.917,1.917,0,0,1-.694.224.572.572,0,0,1-.468-.164,3.185,3.185,0,0,1-.653-1.935c.275.271.466.39.636.39a.387.387,0,0,0,.11-.015M47.334,18.7c.015,0,1.365-.573,1.622-.749a2.168,2.168,0,0,1,.277-.155c.035.3.1.811.184,1.186a.853.853,0,0,0,.46.666.553.553,0,0,0,.515-.042l.059-.026a1.965,1.965,0,0,0,.964-1.064c.033-.075.066-.14.092-.191.009.02.012.035.024.06l.077.158.083.172a14.575,14.575,0,0,1,1.679,5.332l.09.9a2.722,2.722,0,0,0,.84,1.831.876.876,0,0,1,.153.172,4.312,4.312,0,0,1,.411,1.389v.029a1.4,1.4,0,0,0,.041.314,3.6,3.6,0,0,1-.161,1.468c-.114-.164-.209-.307-.277-.409-.561-.859-1.7-1.59-.408.256a11.8,11.8,0,0,0,1.98,2.377l0,0,.129.1c.275.2.844.63.8,1.029-.036.3-.036,1.611-.036,1.625a7.422,7.422,0,0,0,.152.946c.06.3.122.623.137.776a5.483,5.483,0,0,1-.262,1.852.427.427,0,0,1-.314.2.444.444,0,0,1-.352-.071l-.062-.065c-.275-.767-.388-.357-.644.072l-.105.069c-.271.173-.524-.086-.593-.17a.282.282,0,0,1-.09-.2.443.443,0,0,0,0-.063c.123-.692.093-.624-.45-.322a.5.5,0,0,0-.087.05c-.06.039-.295.123-.343.09a.415.415,0,0,1-.173-.411A2.522,2.522,0,0,1,54.9,36.487a1.572,1.572,0,0,0,.745-1.47c0-.078-.006-.158-.012-.245a1.429,1.429,0,0,0-.742-1.152,7.76,7.76,0,0,0-1.366-.23,4.735,4.735,0,0,1-2.3-1.073,6.037,6.037,0,0,1-1.76-2.81,1.114,1.114,0,0,1-.026-.265,6.507,6.507,0,0,1,.441-2.055,2.39,2.39,0,0,0,.248-1.086v-.128a8.08,8.08,0,0,1,.8.686c.874.856.721.462.265-.169a4.191,4.191,0,0,0-.945-1.031,5.275,5.275,0,0,0-1.792-.766,3.886,3.886,0,0,1-1.568-.612c.059-.035.114-.063.156-.09s.42-.275.772-.531a1.037,1.037,0,0,0,.539.4,1.2,1.2,0,0,0,1.125-.387,3.289,3.289,0,0,0,.3-.585s.105-.23.105-.241a6.266,6.266,0,0,1,.978-.707c.223-.105.165-.15-.054-.119-.259.041-1.173.29-1.337.581l-.14.3a2.707,2.707,0,0,1-.245.495.743.743,0,0,1-.614.194.568.568,0,0,1-.272-.235,1.054,1.054,0,0,0,.158-.17.236.236,0,0,0-.08-.323.245.245,0,0,0-.331.075l0-.011a9.822,9.822,0,0,1-1.166.855,6.451,6.451,0,0,1-.969.533l-.271.134-.132.056a.852.852,0,0,0-.63.821c-.05.5-.242.871-.393.886a.656.656,0,0,1-.472-.229,1.168,1.168,0,0,1-.1-.137c-.152-.42-.223-.42-.478-.105-.08.1-.384,0-.481-.03a.255.255,0,0,1-.2-.289c.167-.839.167-.883-.453-.709-.093.015-.156-.044-.211-.144s.026-.326.143-.692l.011-.036a2.153,2.153,0,0,1,.662-.8c.132-.128.316-.278.439-.406a3.24,3.24,0,0,1,1.154-.5,4.148,4.148,0,0,0,1.392-.743,7.891,7.891,0,0,1,1.574-1.047c.25-.119.235-.2-.172-.09a6.9,6.9,0,0,0-1.741.8c-.023.023-.054.048-.09.078a2.743,2.743,0,0,1,.2-2.675l.02-.03h.047l.131-.009L46.2,18.2a.519.519,0,0,0,.153.388,1.03,1.03,0,0,0,.6.191,1.007,1.007,0,0,0,.384-.075M15.644,17.1a1.628,1.628,0,0,0,.563.3c.561.209,1.259.384,1.6.087a.537.537,0,0,1,.051.065,17.009,17.009,0,0,0,2.413,1.733c.943.629,1.924,1.276,2.351,1.637.235.2.326.289.326.545a1.566,1.566,0,0,1-.018.238c-.026.2-.084.484-.146.782a11.632,11.632,0,0,0-.191,1.565,14.582,14.582,0,0,0,.054,1.641l.021.253a2.215,2.215,0,0,1,.02.283.333.333,0,0,1-.162.343,11.725,11.725,0,0,1-1.354.527,5.025,5.025,0,0,0-.6.217.375.375,0,0,1-.328.008c-.105-.068-.129-.248-.134-.385L20.1,26.6c-.032-.475-.035-.5.316-.629a.275.275,0,0,1,.233.009.788.788,0,0,0,.557,0,1.306,1.306,0,0,0,.781-.769c.176-.323.078-.719.122-1.437l.027-.493c.033-.36.229-.873-.722-1.178-1.61-.516-2.552-.791-2.878-.846a2.8,2.8,0,0,1-1.029-.363.23.23,0,0,0-.325,0l0,0a.24.24,0,0,0,0,.339,2.913,2.913,0,0,0,1.286.5c.2.038.855.224,2.813.835a.557.557,0,0,1,.134.059c-.077.158-.156.314-.242.483a9.605,9.605,0,0,1-1.553,2.037,4.137,4.137,0,0,1-2.26,1.1,4.326,4.326,0,0,0-3.635,2.488,15.741,15.741,0,0,0-.716,1.6A4.821,4.821,0,0,1,12.5,31.4c-.316.369-1.146.808-1.562.63a1.205,1.205,0,0,0-1.222-.059c-.194.111-.128.262-.5.23-.135-.011-.611-.039-.62.095s.326.253.456.265c.742.062.657-.026.907-.168.131-.075.241-.138.654.023a.937.937,0,0,1-.6.651,3.073,3.073,0,0,1-1.3.036c-.465-.05-1.143.08-1.207.463l-.044.194a7.22,7.22,0,0,0-.141.754,2.293,2.293,0,0,0,.3,1.459c.107.105.387.34.665.575l.447.379.077.063c.2.173.411.351.393,1.058-.021.621-.256.656-1,.682H8.093a1.245,1.245,0,0,1-.839-.188c-.143-.093.092-.4.123-.5a.677.677,0,0,0,.036-.152c.132-.555.5-.537-.516-.549a2.9,2.9,0,0,0-.323-.018v-.006l-.45-.026a.142.142,0,0,1-.084-.029c-.045-.065.021-.349.057-.5a3.045,3.045,0,0,0,.065-.468,4.05,4.05,0,0,1,.06-.465A7.209,7.209,0,0,0,6.4,34.194c0-.2,0-.426-.021-.668-.014-.209-.023-.379-.023-.518,0-.447.06-.567.089-.6.017-.02.074-.024.165-.03l.161-.014.144-.015a2.852,2.852,0,0,0,2.308-1.22c.474-.755.59-1.5.691-3.358a4.967,4.967,0,0,1,1.977-3.5l.328-.184c.435-.238.961-.579,1.405-.846a1,1,0,0,0,.507-.5,7.954,7.954,0,0,1,.329-.794A9.268,9.268,0,0,0,15,20.5a5.281,5.281,0,0,0-.184-3.114,1.2,1.2,0,0,0,.181.036.7.7,0,0,0,.111.011.607.607,0,0,0,.537-.326m26.723,1.923a14.08,14.08,0,0,0-1.27-2.509,3.3,3.3,0,0,0,.572,0l.012,0a1.687,1.687,0,0,0,1.453,1.423,1.5,1.5,0,0,0,1.092-.558.9.9,0,0,0,.794.839,2.493,2.493,0,0,0-.328.945Zm12.85,2.156a4.8,4.8,0,0,1-.178-4.149,3,3,0,0,1,1.53-1.405,2.782,2.782,0,0,1,2.085-.105,4.815,4.815,0,0,0,1.106.355,3.336,3.336,0,0,0,1.186-.162,2.238,2.238,0,0,1,.63-.111,4.581,4.581,0,0,1,.876.3,4,4,0,0,0,.551.2,1.352,1.352,0,0,0,.281.011,1.136,1.136,0,0,1,.4.03.742.742,0,0,1-.144.346h0v0a1.608,1.608,0,0,0-.2.745,1.057,1.057,0,0,0,.223.677.256.256,0,0,1,.066.135.044.044,0,0,1-.006.024c-.014.059-.1.141-.28.209a.852.852,0,0,1-.691-.056l-.032-.014-.069-.026c-.889-.339-.56-.256-.683.581-.021.107-.036.23-.051.357a10.341,10.341,0,0,1-.408,1.783l-.071.271a.2.2,0,0,1-.011.053,2.914,2.914,0,0,1-.346-.322l-.17-.179A4.311,4.311,0,0,1,59.3,18.278a1.28,1.28,0,0,1,.355-.873.565.565,0,0,0,.271-.433.111.111,0,0,0,0-.032c-.018-.275-.3-.414-.5-.513l-.095-.05a3.069,3.069,0,0,0-2.376-.038,2.556,2.556,0,0,0-1.316,2.054v.017A3.614,3.614,0,0,0,56.99,22a1.84,1.84,0,0,0-.178.516,3.266,3.266,0,0,1-.105.391c-.048.165-.1.343-.141.515-.481-.734-1.146-1.858-1.35-2.236M2.7,19.345a3.114,3.114,0,0,1-.48-.135c-.09-.027-.159-.03-.209-.048a5.746,5.746,0,0,0,1.2-1.468.488.488,0,0,0-.035-.241,1.855,1.855,0,0,0-.9-.689A10.937,10.937,0,0,1,3.555,16.4a4.968,4.968,0,0,0,1.954-.791,6.276,6.276,0,0,1,1.834-.781c.97-.221,1.825.307,2.875,1.789a3.392,3.392,0,0,1,.513,2,5.472,5.472,0,0,1-.382,2.058l-.06.116a1.411,1.411,0,0,0-.209.642.736.736,0,0,0,.378.617c.221.15.329.254.329.4a.836.836,0,0,1-.159.4l-.355.56a8.81,8.81,0,0,0-.552.924c-.021.05-.172.3-.191.239l-.044-.184L9.4,24.042c-.125-.746-.244-.9-.444-.928a.3.3,0,0,0-.32.185l-.209.37-.211.343L8,24.3l-.233.32c-.629.856-1.586,2.15-.59,3.384a2.01,2.01,0,0,0,2.216.354c-.023.352-.05.651-.083.907-1.523,0-2.676-.45-3.09-1.3V27.96c-.5-1.008-.063-2.547,1.154-4.116L7.7,23.4l.146-.173A2.852,2.852,0,0,0,8.5,21.689a.994.994,0,0,0-.035-.275.819.819,0,0,0-.549-.552.9.9,0,0,1-.236-.113,1.68,1.68,0,0,1,.271-.223l.119-.078a1.06,1.06,0,0,1,.763-.164l.123.033a.626.626,0,0,0,.527-.011c.209-.122.345-.394.46-.919a3.344,3.344,0,0,0-.518-2.464A2.731,2.731,0,0,0,7.18,15.665a1.126,1.126,0,0,0-.922.945,1.741,1.741,0,0,0-.089.513A2.157,2.157,0,0,0,6.8,18.657a.216.216,0,0,0,.035.03.891.891,0,0,1-.095.02.7.7,0,0,1-.125-.011c-.293-.03-1.231-.238-1.339.5v.059A2.065,2.065,0,0,1,4.863,20.3a2.145,2.145,0,0,1-.378.512,2.425,2.425,0,0,1-.083-.241l-.033-.114a2.794,2.794,0,0,1-.1-.8v-.068a1.063,1.063,0,0,1,.039-.284.792.792,0,0,0,.081-.3.27.27,0,0,0-.113-.223c-.211-.155-.391.042-.852.342a1.024,1.024,0,0,1-.56.23,1.328,1.328,0,0,1-.164-.015M23.236,22.6c.065-.316.125-.6.152-.826a1.082,1.082,0,0,0-.332-1.088,13.737,13.737,0,0,1,2.309-4.76,8.921,8.921,0,0,1,14.727,0,14.035,14.035,0,0,1,2.639,6.337l-.248.235a2.493,2.493,0,0,0-.8,1.014l-.011.036a2.876,2.876,0,0,0-.181.769.58.58,0,0,0,.078.307.721.721,0,0,0,.537.378c.039,0,.068.131.068.227v.039a.4.4,0,0,0-.006.074c0,.19.09.468.549.653.029.009.06.017.089.029-.66,6.037-4.932,10.728-10.072,10.728-4.881,0-8.964-4.205-9.943-9.776a1.023,1.023,0,0,0,.342-1.082l-.021-.191a14.409,14.409,0,0,1-.06-1.613l0,0a10.536,10.536,0,0,1,.182-1.491m4.942-10.858a10.642,10.642,0,0,1,9.155.029,4.122,4.122,0,0,0,.122,1.119,9.061,9.061,0,0,0-9.42-.018,4.534,4.534,0,0,0,.143-1.13m-.32-1.443a12.349,12.349,0,0,1,9.839.024,2.719,2.719,0,0,0-.319.936l0,0a11.082,11.082,0,0,0-9.239-.032,2.886,2.886,0,0,0-.286-.931m10.628-.835a.4.4,0,1,1,.4.394h-.009l.011,0a.4.4,0,0,1-.4-.4m-12.251,0a.4.4,0,1,1,.4.4h0l0,0a.4.4,0,0,1-.4-.4m13.2-1.321a.544.544,0,1,1,.539.54h0l.011,0h0a.544.544,0,0,1-.542-.543M25,8.135a.544.544,0,1,1,.542.543h0l0,0A.545.545,0,0,1,25,8.135M14.5,6.566c.14-.03.283-.083.43-.12l.211-.042a1.2,1.2,0,0,1,.328,0c.293.051.5.08.65.117l.044.009h.194c-.009.027-.021.059-.035.095a.21.21,0,0,0-.041.092c-.041.29.6.856.608.864.123.1.591.563,1.085,1.049.728.715,1.554,1.529,1.864,1.79.438.37.375.713.314.811-.08.135-.229.257-.349.224l-.138-.06c-.193-.09-.454-.211-.647-.038a.377.377,0,0,0-.114.293,1.347,1.347,0,0,0,.1.466,1.3,1.3,0,0,1,.05.178c-.08.143-.382.149-.579.036a6.245,6.245,0,0,1-.623-.5l-.417-.348a3.6,3.6,0,0,0-1.428-.576,1.914,1.914,0,0,1-.289-.1c-.075-.03-.147-.056-.218-.08a1.514,1.514,0,0,1-.611-1.01c-.032-.134-.117-.2-.135-.015a2.064,2.064,0,0,0,.346,1.449,3.021,3.021,0,0,0,.418.558l.211.263a6.072,6.072,0,0,0,1.98,1.792l.674.354c1.259.629,3.08,1.318,3.812,3.305a4.872,4.872,0,0,1,.1,2.675c-.5-.354-1.145-.784-1.784-1.207-.372-.247-.775-.515-1.143-.764L19.613,18a1.314,1.314,0,0,0,.7-.82c.086-.432-.242-.814-.537-1.291-.7-1.119-2.35-1.365-3.411-1.5l-.718-.113a7.306,7.306,0,0,1-3.278-1.47c-1.143-1.017-.987-2.968-.87-3.549.024-.134,0-.42-.105-.116-.158.641-.685,2.833.653,4.027a8.124,8.124,0,0,0,3.576,1.6l.682.1c.973.125,2.512.4,3.09,1.319.248.4.492.679.45.907-.03.15-.191.313-.48.5l-.451.209a4.655,4.655,0,0,1-.694-.543,1.168,1.168,0,0,0-.239-.256c-.778-.62-.426-.239-.487.131-.09.066-.459.077-1.125-.178-.385-.149-.408-.169-.57-.4-.483-.621-.39-.373-.5.153-.039.19-.068.245-.253.227a1.035,1.035,0,0,1-.5-.223h0a5.313,5.313,0,0,0-.525-.88v-.006a.869.869,0,0,0-.077-.09c-.939-1.173-.721-.721-.832.164-.011.066-.018.137-.024.211a2.574,2.574,0,0,1-.039.3.353.353,0,0,1-.081.182c-.021.011-.078.02-.277-.044a1.8,1.8,0,0,1-1.258-1.283l-.009-.02a2.019,2.019,0,0,0-.105-.265c-.456-1.178-.325-.7-.7-.28a.68.68,0,0,0-.1.113l-.035.039a.343.343,0,0,1-.09.09.233.233,0,0,1-.041-.036,4.336,4.336,0,0,1-.606-.994.833.833,0,0,1-.042-.3,4.9,4.9,0,0,1,.105-.811l.021-.114.014-.074c.113-.394.167-.606.009-.761s-.349-.1-.7,0l-.071.018a1.638,1.638,0,0,1-.193.048,5.578,5.578,0,0,0,.114-1.023,1.331,1.331,0,0,0-.718-1.372,1.4,1.4,0,0,1-.209-.113A6.23,6.23,0,0,0,10.938,7.97l.194-.2a2.178,2.178,0,0,1,.847-.659.89.89,0,0,1,.618.211c.065.045.2.167.286.245.15.134.3.274.471.116a.253.253,0,0,0,0-.357c-.3-.364-.475-.788-.412-.88,0,0,.092-.081.62.018h-.02c.289.072.924.345,1.1.345.086,0,.068-.063-.143-.239M11.61,5.535a1.2,1.2,0,0,1-.269-.3,2.425,2.425,0,0,1,1.146.209l.017.008h.014a2.672,2.672,0,0,0,.393.065l.138.436h-.044a.528.528,0,0,0-.45.209.434.434,0,0,0-.033.057,8.212,8.212,0,0,1-.912-.682m40.01-.492a.418.418,0,0,1,.167-.117l.014.014a2.3,2.3,0,0,1,.169.63,3.146,3.146,0,0,0,.3.991,3.878,3.878,0,0,0,.68.791,5.066,5.066,0,0,1,.429.451,4.484,4.484,0,0,1,.382.788,4.039,4.039,0,0,0,.688,1.252c.314.3,1.1,1.041,1.9.877l-.023.042-.233.211c-.293.248-.591.5-.591.8V11.8a1.356,1.356,0,0,0,.2.641l.018.032a.248.248,0,0,1,.054.141.508.508,0,0,1-.182.32c-.307.32-.408.524-.408.727a1.073,1.073,0,0,0,.063.322l.014.033a1.28,1.28,0,0,1,.072.283v.026l-.012.009-.078.042a1.16,1.16,0,0,1-.316.138l-.042.011c-.546.119-.821.418-.821.894a.874.874,0,0,0,0,.089l.011.172c.008.1.015.211.015.286a.2.2,0,0,1,0,.06.635.635,0,0,1-.105.041l-.135.029c-.322.08-.811.191-.853,1.091l-.014.355c-.023.691-.057,1.017-.271,1.044a.821.821,0,0,1-.734-.393c-.038-.092-.114-.394-.129-.438-.3-.924-.2-.7-.635.111-.065.113-.131.262-.229.445a1.815,1.815,0,0,1-.712.838l-.105.057a.123.123,0,0,1-.105,0c-.053-.02-.125-.122-.176-.334A9.441,9.441,0,0,1,49.7,17.6c-.026-.648.662-1.325-.736-.217,0,0-.175.116-.272.178-.184.111-1.243.581-1.542.706-.105.042-.457.068-.462-.021a.42.42,0,0,1,.017-.114l.008-.041c.165-.582.438-.46-.524-.366l-.459.026-.144.009a1.085,1.085,0,0,1-.757-.105.536.536,0,0,1-.14-.411,1.392,1.392,0,0,1,1.082-1.425c.587-.117,2.857-.361,3.863-.448a3.912,3.912,0,0,0,3.108-1.724,7.264,7.264,0,0,0,.381-3.614c-.081-.369-.462-.939-.232.105a6.426,6.426,0,0,1-.564,3.259,3.455,3.455,0,0,1-2.737,1.486c-.991.09-3.292.332-3.916.456a1.865,1.865,0,0,0-1.327,1.121c-.22.316-.722,1.02-1.213,1.006-.572-.015-1.02-.7-1.02-1.282-.051-1.745.809-1.79,2.89-1.906l.014,0,1.016-.063a3.739,3.739,0,0,0,3.539-2.567l.018-.054a3.069,3.069,0,0,0,.045-1.112l-.036-.314-.292.116a9.175,9.175,0,0,1-1.593.4,3.043,3.043,0,0,0-1.629.561l-.033.024-.024.035a.11.11,0,0,1-.074.05c-.035,0-.105-.039-.19-.156a7.874,7.874,0,0,0-.524-.656s-.026-.03-.045-.056c.009-.056.08-.172.391-.254l.346-.077c.4-.08.82-.161.839-.811V9.319a.628.628,0,0,0-.254-.5,2.307,2.307,0,0,0-1.655-.23h-.011L44.84,8.6a.41.41,0,0,1-.062.015.558.558,0,0,1-.1-.211.955.955,0,0,1-.045-.26c0-.105.033-.131.054-.146a.55.55,0,0,0,.2-.432A1.349,1.349,0,0,0,44.724,7l-.048-.1a.913.913,0,0,1-.078-.28.164.164,0,0,1,.015-.069.317.317,0,0,1,.215-.105,3.489,3.489,0,0,1,.894-.035,2.643,2.643,0,0,0,.6,0,2.279,2.279,0,0,0,.63-.25,1.722,1.722,0,0,1,.582-.221c.242-.014.775,0,1.2.009l.615.011a4.807,4.807,0,0,0,2.27-.915m-17.9,3.793.629-3.394a5.265,5.265,0,0,1,3.239-1.085,1.382,1.382,0,0,1,1.1.671A1.993,1.993,0,0,1,38.277,7.1,8.728,8.728,0,0,1,36.23,9.269l-.011.012a12.723,12.723,0,0,0-2.5-.445m-4.443.426A8.538,8.538,0,0,1,27.227,7.1a1.994,1.994,0,0,1-.409-2.076,1.386,1.386,0,0,1,1.1-.671,5.252,5.252,0,0,1,3.239,1.088l.63,3.394a12.767,12.767,0,0,0-2.5.438ZM14.337,5.042a2.882,2.882,0,0,0,.235-.254l.008-.011.009-.009a2.461,2.461,0,0,1,.8-.847c0,.024.006.042.006.071a1.408,1.408,0,0,1-.047.334,5.476,5.476,0,0,1-.484,1.389l0,0-.011.014-.011.023a.65.65,0,0,1-.209.238Zm26.2-.888a.751.751,0,0,1,.737-.757l.012.008a.748.748,0,1,1-.749.749m-26.762.325a1.516,1.516,0,0,0,.251-.295,2.332,2.332,0,0,1,1.365-1.091.624.624,0,0,1,.575.181,1.057,1.057,0,0,1,.229.721,2.08,2.08,0,0,1-.069.525,8,8,0,0,1-.468,1.411.743.743,0,0,1-.129-.024,1.17,1.17,0,0,0-.241-.015.39.39,0,0,0-.071.008,6.015,6.015,0,0,0,.516-1.479,1.733,1.733,0,0,0,.057-.43.661.661,0,0,0-.129-.435.217.217,0,0,0-.211-.054c-.342.059-.74.408-1.183,1.049a2.071,2.071,0,0,1-.387.375l.305.9s.054.161.105.3h-.042c-.262-.05-.487-.093-.685-.122l-.029-.105-.251-.824h-.057A2.266,2.266,0,0,1,12.638,5h-.009a2.232,2.232,0,0,0-1.614-.149.279.279,0,0,0-.181.223v.047a1.179,1.179,0,0,0,.486.769,8.88,8.88,0,0,0,.987.734.112.112,0,0,1-.05.009.9.9,0,0,0-.358,0,1.09,1.09,0,0,0-.119.038,6.727,6.727,0,0,1-.683-.519v0a1.372,1.372,0,0,1-.6-1.1.63.63,0,0,1,.363-.484,2.37,2.37,0,0,1,1.81.116,1.333,1.333,0,0,0,.363.048h.105l-.235-.734c.105-.032.439-.14.54-.176l.239.745ZM37.328,3.261a1.009,1.009,0,0,0,.835-.438,1.335,1.335,0,0,0,1.313,1.118,1.3,1.3,0,0,0,.629-.155,1.179,1.179,0,0,0-.057.369,1.229,1.229,0,0,1-.2,2.267,1.21,1.21,0,0,0,.217.7.621.621,0,0,0-.093-.006,1.021,1.021,0,0,0-1.023,1.023,1.034,1.034,0,0,0,.11.463.981.981,0,0,0-.176-.015A.875.875,0,0,0,38,9.459a1.017,1.017,0,0,0,.029.232l-.175.178a11.669,11.669,0,0,0-1.092-.418l.02-.024a10.218,10.218,0,0,0,1.9-2.1,2.322,2.322,0,0,0,.438-2.464,1.86,1.86,0,0,0-1.47-.91,5.232,5.232,0,0,0-3.2.91L34.8,3.012,34.814,3a.878.878,0,0,0,1.691-.152,1.026,1.026,0,0,0,.82.409h0m-11.3.671a1.33,1.33,0,0,0,1.312-1.118,1.019,1.019,0,0,0,.84.438A1.036,1.036,0,0,0,29,2.841.876.876,0,0,0,30.689,3h.006l.343,1.843a5.232,5.232,0,0,0-3.2-.91,1.857,1.857,0,0,0-1.468.91,2.331,2.331,0,0,0,.438,2.464,10.183,10.183,0,0,0,1.906,2.1l.018.018c-.366.129-.728.271-1.088.427a2.052,2.052,0,0,0-.153-.208,1,1,0,0,0,.024-.2.877.877,0,0,0-.877-.877h0a.855.855,0,0,0-.175.015.986.986,0,0,0,.105-.462A1.03,1.03,0,0,0,25.54,7.1c-.032,0-.063,0-.093,0a1.225,1.225,0,0,0,.217-.694A1.243,1.243,0,0,1,25.057,6a.749.749,0,0,1,.128.417v0a.748.748,0,0,1-.751.743l0,0a.747.747,0,0,1,0-1.494.755.755,0,0,1,.578.269,1.226,1.226,0,0,1,.447-1.8,1.284,1.284,0,0,0-.059-.369,1.284,1.284,0,0,0,.614.156h.015M29.478,2.7a.4.4,0,1,1,.4.4h0a.4.4,0,0,1-.4-.4m5.768,0a.4.4,0,0,1,.387-.4l.011,0a.4.4,0,1,1-.4.4M25.188,2.614a.85.85,0,0,1,.846-.853l0,0a.85.85,0,1,1-.85.85m13.442,0v0a.854.854,0,0,1,.835-.853l.012,0a.85.85,0,1,1,0,1.7h0a.848.848,0,0,1-.849-.849M32.207,1.7h1.065c.086,0,.233.02.233.138a.971.971,0,0,0,.855.909L33.234,8.806v.008c-.165-.008-.328-.012-.495-.012s-.314,0-.478.012V8.806l-1.125-6.06a.971.971,0,0,0,.832-.906h.006c0-.119.146-.138.233-.138m-4.563.534a.541.541,0,0,1,.537-.546h0l0,0a.544.544,0,0,1,0,1.088h0a.544.544,0,0,1-.543-.543m9.141,0a.546.546,0,0,1,.533-.546l.011,0a.544.544,0,0,1,0,1.088h0a.544.544,0,0,1-.542-.543m.335-1.029c-.026.006-.053.011-.078.018a1.025,1.025,0,0,0-.751.882.864.864,0,0,0-.666-.314.888.888,0,0,0-.811.539h-.232a.555.555,0,0,1-.6-.507l0-.011c0-.323-.3-.551-.718-.551H32.2c-.42,0-.718.227-.718.551a.56.56,0,0,1-.6.518h-.2a.886.886,0,0,0-.811-.539.863.863,0,0,0-.665.314,1.026,1.026,0,0,0-.952-.9h-.128l-.06.006a1.027,1.027,0,0,0-.867.754,1.33,1.33,0,0,0-2.493.644,1.311,1.311,0,0,0,.078.442,1.212,1.212,0,0,0-.546-.131,4.818,4.818,0,0,1,.032.487l-.032,0a.747.747,0,0,0-.749.746l0,0v0a.751.751,0,0,0,.563.724,4.7,4.7,0,0,0,.221-1.468.746.746,0,0,1-.03,1.491.8.8,0,0,1-.191-.023,4.641,4.641,0,0,1-.839,1.541,1.23,1.23,0,0,0,1.231,1.229,1.118,1.118,0,0,0,.214-.021,1.025,1.025,0,0,0,.891,1.535,1.13,1.13,0,0,0,.277-.042.879.879,0,0,0,1.327,1.049c.621.471.734,1.989.223,3.132a11.234,11.234,0,0,0-2.392,2.332A14.051,14.051,0,0,0,22.9,19.557a4.5,4.5,0,0,0-.254-2.324c-.891-2.12-2.782-2.919-4.037-3.549l-.653-.34a5.649,5.649,0,0,1-1.832-1.665l-.23-.29-.027-.036a.529.529,0,0,0,.075.023,3.159,3.159,0,0,1,1.213.481l.391.328a6.115,6.115,0,0,0,.691.554,1.208,1.208,0,0,0,1.178-.05.422.422,0,0,0,.141-.342,1.169,1.169,0,0,0-.089-.4c-.018-.059-.033-.1-.044-.146l.044.023.211.087a.827.827,0,0,0,.892-.436,1.127,1.127,0,0,0-.414-1.426c-.3-.254-1.155-1.094-1.837-1.768-.543-.537-.973-.958-1.106-1.076a3.2,3.2,0,0,1-.42-.46.568.568,0,0,0,0-.57.461.461,0,0,0-.462-.129h-.068a.082.082,0,0,0-.027,0c-.02-.006-.041-.009-.065-.017l-.021.011a.125.125,0,0,0-.032-.009,8.9,8.9,0,0,0,.448-1.384A1.791,1.791,0,0,0,16.3,2.964a1.1,1.1,0,0,0-.994-.326,2.541,2.541,0,0,0-1.437.979l-.126-.387-.248.08-1.181.381.138.42a2.577,2.577,0,0,0-1.8.03,1.094,1.094,0,0,0-.617.846,1.808,1.808,0,0,0,.76,1.515c.2.17.381.307.536.42a1.069,1.069,0,0,1-.086.065c-.165.141-.314.3-.457.445l-.181.191A5.583,5.583,0,0,1,7.7,9a.3.3,0,0,0-.271.25c-.041.251.224.545.657.734s.524.763.314,1.921l-.009.044a.4.4,0,0,0,.077.4c.146.137.363.1.74.006l.071-.02.15-.042c-.018.062-.036.146-.051.211l-.024.113-.02.116a5.092,5.092,0,0,0-.111.9,1.362,1.362,0,0,0,.075.478,4.637,4.637,0,0,0,.715,1.154.531.531,0,0,0,.4.181.642.642,0,0,0,.441-.266.019.019,0,0,0,.008-.015,2.584,2.584,0,0,1,.105.25l.008.023a2.258,2.258,0,0,0,1.574,1.587.821.821,0,0,0,.653,0,.712.712,0,0,0,.314-.483,2.881,2.881,0,0,0,.054-.375.509.509,0,0,1,.009-.1c.02.023.042.042.068.075a5.785,5.785,0,0,1,1.034,3.165,4.187,4.187,0,0,1-.138,1.068,8.735,8.735,0,0,1-.512,1.38c-.122.271-.209.533-.307.788a8.889,8.889,0,0,1-1.726,1.127l-.334.184a5.456,5.456,0,0,0-2.216,3.889c0,.036-.006.071-.006.105-.93.314-1.545.272-1.876-.138-.709-.876-.172-1.744.6-2.8l.241-.329.241-.323s.209-.262.23-.29c.009.056.02.1.029.173l.1.412.08.329a.4.4,0,0,0,.326.355c.105.014.289.2.769-.692.105-.193.3-.525.518-.859l.361-.569a.921.921,0,0,0-.307-1.453c-.235-.164-.221-.248-.014-.642l.06-.12a5.439,5.439,0,0,0-.158-4.547c-.784-1.207-1.89-2.33-3.382-1.989a6.72,6.72,0,0,0-1.968.833,4.754,4.754,0,0,1-1.783.713,14.507,14.507,0,0,0-1.664.463c-.15.048-.358.117-.37.339v.02c0,.239.259.355.585.506a1.726,1.726,0,0,1,.63.408,8.233,8.233,0,0,1-1.05,1.18.433.433,0,0,0-.223.367.514.514,0,0,0,.006.068c.047.245.295.4.742.477h.008l-.008.078a2.892,2.892,0,0,0,.211,1.76l.066.105a6.6,6.6,0,0,1,.839,1.574,1.1,1.1,0,0,1-.059.357.831.831,0,0,0,0,.63.459.459,0,0,0,.3.2c.516.12.712-.295.868-.63l.087-.179c.209-.42.5-1,.849-1.587l.23-.354a4.143,4.143,0,0,0,.839-2.518l.173.009a.81.81,0,0,0,.307,0l.093-.018c.178-.038.42-.086.477-.316s-.138-.412-.335-.566a1.851,1.851,0,0,1-.384-1.517c.107-.376.283-.581.548-.623a2.309,2.309,0,0,1,1.777,1.059,2.908,2.908,0,0,1,.486,1.6,2.234,2.234,0,0,1-.048.481c-.123.551-.229.606-.232.606a.59.59,0,0,1-.144-.032l-.179-.044a1.553,1.553,0,0,0-1.137.248l-.095.069c-.229.155-.543.364-.5.683.039.286.348.42.573.5a.33.33,0,0,1,.242.235,2.056,2.056,0,0,1-.525,1.378l-.141.169-.34.453c-1.363,1.744-1.8,3.432-1.213,4.625.357.724,1.244,1.581,3.453,1.584a2.96,2.96,0,0,1-.42,1.115,2.361,2.361,0,0,1-1.945,1l-.158.017L6.6,31.9a.641.641,0,0,0-.495.191c-.193.217-.247.629-.191,1.468a7.051,7.051,0,0,1-.15,2.175,4.842,4.842,0,0,0-.089.525,3.2,3.2,0,0,1-.074.391,2.351,2.351,0,0,0-.081.531.636.636,0,0,0,.105.385.6.6,0,0,0,.444.25l.507.029a3.064,3.064,0,0,1,.325.018l-.008.017c-.014.039-.027.075-.042.113H1.207l1.784,3.1c-.113.217-1.655,3.221-1.655,3.221H16.52l.858,2.922a46.534,46.534,0,0,1,15.37-2.7h.027a46.647,46.647,0,0,1,15.382,2.693l.853-2.919H63.951s-1.545-3-1.655-3.221c.117-.209,1.783-3.1,1.783-3.1h-6.45A6.269,6.269,0,0,0,57.7,36.8c-.018-.175-.08-.49-.146-.82q-.093-.424-.144-.856c0-.328.009-1.348.036-1.574.077-.674-.642-1.213-.987-1.47l-.114-.084a6.627,6.627,0,0,1-.9-.918,3.243,3.243,0,0,0,3.809-1.029,5.674,5.674,0,0,0,.769-1.393l.027-.059a4.47,4.47,0,0,1,.581-.934c.325-.29,1.693-2.082,1.259-2.8-.3-.492-1.083-.211-1.34-.111-.144.05-.218-.047-.314-.42-.084-.316-.263-1.115-.277-1.231v-.027c-.017-.146-.044-.447-.284-.566a.52.52,0,0,0-.527.068.292.292,0,0,1-.239.06.331.331,0,0,1-.17-.185c-.068-.161-.185-.549-.253-.782l-.056-.178-.029-.12c-.038-.162-.086-.384-.3-.442s-.384.105-.534.271c-.116.129-.218.254-.314.378a3.1,3.1,0,0,1-1.14-3.107,2.117,2.117,0,0,1,1.049-1.7,2.6,2.6,0,0,1,1.941.021l.119.063a1.281,1.281,0,0,1,.209.116.472.472,0,0,1-.071.063l-.024.014-.018.02a1.717,1.717,0,0,0-.486,1.187,4.352,4.352,0,0,0,1.446,2.594v.014a4.289,4.289,0,0,0,.823,2.8,1.1,1.1,0,0,0,.853.284,4.778,4.778,0,0,0,1.39-.555c.128-.059.5-.432-.1-.587s-.447-.7-.42-.973a4.944,4.944,0,0,1,.474-1.384,1.387,1.387,0,0,0,.114-.588,3.1,3.1,0,0,0-.218-1.059,1.448,1.448,0,0,0,.316-.069.84.84,0,0,0,.582-.534.558.558,0,0,0,.02-.15.683.683,0,0,0-.176-.444.563.563,0,0,1-.114-.346,1.145,1.145,0,0,1,.14-.525,1.185,1.185,0,0,0,.208-.558v-.086a.5.5,0,0,0-.062-.188c-.17-.289-.555-.277-.839-.266H63.1a3.671,3.671,0,0,1-.46-.169,4.746,4.746,0,0,0-1-.331,2.259,2.259,0,0,0-.812.128,3.015,3.015,0,0,1-1.008.146,4.513,4.513,0,0,1-.981-.322,3.225,3.225,0,0,0-2.347.062,3.553,3.553,0,0,0-1.875,1.668,5.23,5.23,0,0,0,.181,4.6c.259.48,1.178,2.031,1.662,2.693a.31.31,0,0,0,.05.05l-.017.006a1.6,1.6,0,0,0-.793,1.566,2.769,2.769,0,0,0,.017.314c.032.259.117.42.254.477a.285.285,0,0,0,.284-.038,1.552,1.552,0,0,1,.985-.251A1.405,1.405,0,0,1,58.6,27.562a1.9,1.9,0,0,1-1.73,1.906,1.4,1.4,0,0,1-1.483-.873,5.119,5.119,0,0,0-.513-1.909,1.809,1.809,0,0,0-.223-.257c-.278-.262-.691-.662-.793-2.412a13.785,13.785,0,0,0-1.468-4.983,1.1,1.1,0,0,0,.384.024c.648-.08.671-.8.692-1.506l.015-.349c.027-.536.2-.575.481-.642l.172-.044a.511.511,0,0,0,.442-.573c0-.089,0-.191-.014-.3l-.014-.169v-.056c0-.272.158-.363.442-.427l.056-.011a1.544,1.544,0,0,0,.432-.184l.078-.045a.471.471,0,0,0,.26-.445,1.452,1.452,0,0,0-.093-.445l-.011-.033a.5.5,0,0,1-.041-.161c0-.093.065-.181.272-.4a.956.956,0,0,0,.314-.656.7.7,0,0,0-.131-.4l-.011-.017a.922.922,0,0,1-.131-.42c.021-.1.29-.328.42-.441l.28-.251a.782.782,0,0,0,.188-.5.53.53,0,0,0-.1-.32.291.291,0,0,0-.375-.069l.018-.008c-.533.257-1.154-.238-1.641-.7A3.906,3.906,0,0,1,54.2,8.4a4.31,4.31,0,0,0-.453-.9,5.205,5.205,0,0,0-.466-.5,3.5,3.5,0,0,1-.6-.689,2.806,2.806,0,0,1-.244-.839,2.453,2.453,0,0,0-.233-.794.488.488,0,0,0-.373-.247.767.767,0,0,0-.567.274,4.484,4.484,0,0,1-1.918.764l-.606-.011c-.456-.012-.978-.026-1.243-.011a2.071,2.071,0,0,0-.775.275,1.8,1.8,0,0,1-.484.2,2.082,2.082,0,0,1-.493,0,3.894,3.894,0,0,0-1.016.042.747.747,0,0,0-.545.351.9.9,0,0,0,.038.755l.062.14c.107.217.156.354.09.412a.848.848,0,0,0-.159.91.772.772,0,0,0,.345.5.544.544,0,0,0,.426.015,1.819,1.819,0,0,1,1.226.14.151.151,0,0,1,.075.131c-.012.259-.042.272-.454.354l-.376.081a.941.941,0,0,0-.718.527.49.49,0,0,0,.023.432l.105.132a7.181,7.181,0,0,1,.493.615.7.7,0,0,0,.587.363.567.567,0,0,0,.426-.217,2.555,2.555,0,0,1,1.365-.459,9.148,9.148,0,0,0,1.431-.322v.146a1.524,1.524,0,0,1-.05.451l-.021.06a3.216,3.216,0,0,1-3.113,2.24l-1.01.063c-2,.1-3.346.181-3.346,2.242a2.786,2.786,0,0,1-.892-.077l-.032-.012c-.08-.1-.159-.217-.241-.322A11.286,11.286,0,0,0,38.113,13.3a2.9,2.9,0,0,1,.286-3.128A.881.881,0,0,0,39.684,9.1a1.014,1.014,0,0,0,1.3-.985,1.01,1.01,0,0,0-.135-.506c.02-.152.045-.3.075-.451a.749.749,0,0,1,.152-1.482h0a.733.733,0,0,1,.314.075,6.206,6.206,0,0,0-.468,1.407.839.839,0,0,0,.152.015.747.747,0,0,0,.748-.748l-.011,0a.749.749,0,0,0-.421-.671,6.171,6.171,0,0,1,1.1-1.619A1.226,1.226,0,0,0,41.274,2.9a1.21,1.21,0,0,0-.561.134,1.3,1.3,0,0,0,.078-.442A1.328,1.328,0,0,0,38.3,1.947a1.022,1.022,0,0,0-.8-.74Z" transform="translate(-1.207 -1.207)" fill="none"/>
    </clipPath>
    <clipPath id="clip-path-34">
      <path id="Path_24357" data-name="Path 24357" d="M32.274,4.815a.252.252,0,0,0-.211.215c0,.125.266.367.42.466a.723.723,0,0,0,.582.051,2.826,2.826,0,0,1,.468-.15c.2-.051.161-.152.113-.19a3.247,3.247,0,0,1-.305-.2h-.008a1.415,1.415,0,0,0-1.059-.191" transform="translate(-32.063 -4.783)" fill="none"/>
    </clipPath>
    <clipPath id="clip-path-35">
      <path id="Path_24358" data-name="Path 24358" d="M11.621,5.776c-.125,0-.471.021-.71.047-.5.057-.26.251-.15.295h0a4.622,4.622,0,0,0,.6.334c.34.138.387-.011.487-.343s-.1-.332-.224-.332h-.008" transform="translate(-10.607 -5.776)" fill="none"/>
    </clipPath>
  </defs>
  <g id="logo-pmi" transform="translate(-1.207 -1.207)">
    <rect id="Rectangle_16748" data-name="Rectangle 16748" width="0.578" height="34.653" transform="translate(78.011 6.805)" fill="#0074c2"/>
    <g id="Group_47740" data-name="Group 47740" transform="translate(90.409 9.81)">
      <g id="Group_47739" data-name="Group 47739" clip-path="url(#clip-path)">
        <rect id="Rectangle_16749" data-name="Rectangle 16749" width="12.227" height="15.522" transform="translate(-1.817 -1.813)" fill="#0074c2"/>
      </g>
    </g>
    <path id="Path_24306" data-name="Path 24306" d="M72.634,6.927v.316h1.623v4.732H69.779V7.243h1.626V6.927H66.746v.316h1.628V18.5H66.746v.314H71.4V18.5H69.779v-6.2h4.479v6.2H72.634v.314h4.656V18.5H75.648V7.243h1.643V6.927Z" transform="translate(33.063 2.886)" fill="#0074c2"/>
    <path id="Path_24307" data-name="Path 24307" d="M74.416,6.927v.316h1.622V18.5H74.416v.314H79.07V18.5H77.446V7.243H79.07V6.927Z" transform="translate(36.932 2.886)" fill="#0074c2"/>
    <g id="Group_47742" data-name="Group 47742" transform="translate(116.996 9.813)">
      <g id="Group_47741" data-name="Group 47741" clip-path="url(#clip-path-2)">
        <rect id="Rectangle_16750" data-name="Rectangle 16750" width="12.134" height="15.522" transform="translate(-1.814 -1.818)" fill="#0074c2"/>
      </g>
    </g>
    <path id="Path_24309" data-name="Path 24309" d="M84.611,6.927v.316h1.623V18.5H84.611v.314h4.655V18.5H87.644V7.243h1.622V6.927Z" transform="translate(42.075 2.886)" fill="#0074c2"/>
    <g id="Group_47744" data-name="Group 47744" transform="translate(132.336 9.81)">
      <g id="Group_47743" data-name="Group 47743" clip-path="url(#clip-path-3)">
        <rect id="Rectangle_16751" data-name="Rectangle 16751" width="12.227" height="15.522" transform="translate(-1.817 -1.813)" fill="#0074c2"/>
      </g>
    </g>
    <g id="Group_47746" data-name="Group 47746" transform="translate(145.944 9.814)">
      <g id="Group_47745" data-name="Group 47745" transform="translate(0)" clip-path="url(#clip-path-4)">
        <rect id="Rectangle_16752" data-name="Rectangle 16752" width="15.054" height="15.522" transform="translate(-1.811 -1.819)" fill="#0074c2"/>
      </g>
    </g>
    <g id="Group_47748" data-name="Group 47748" transform="translate(158.702 9.626)">
      <g id="Group_47747" data-name="Group 47747" transform="translate(0)" clip-path="url(#clip-path-5)">
        <rect id="Rectangle_16753" data-name="Rectangle 16753" width="11.949" height="15.913" transform="translate(-1.82 -1.816)" fill="#0074c2"/>
      </g>
    </g>
    <g id="Group_47750" data-name="Group 47750" transform="translate(168.21 9.808)">
      <g id="Group_47749" data-name="Group 47749" clip-path="url(#clip-path-6)">
        <rect id="Rectangle_16754" data-name="Rectangle 16754" width="13.715" height="15.728" transform="translate(-1.814 -1.813)" fill="#0074c2"/>
      </g>
    </g>
    <g id="Group_47752" data-name="Group 47752" transform="translate(178.63 9.808)">
      <g id="Group_47751" data-name="Group 47751" clip-path="url(#clip-path-7)">
        <rect id="Rectangle_16755" data-name="Rectangle 16755" width="13.716" height="15.728" transform="translate(-1.814 -1.813)" fill="#0074c2"/>
      </g>
    </g>
    <path id="Path_24315" data-name="Path 24315" d="M126.062,6.927v.316h1.623V18.5h-1.623v.314h4.659V18.5H129.1V7.243h1.623V6.927Z" transform="translate(62.986 2.886)" fill="#0074c2"/>
    <g id="Group_47754" data-name="Group 47754" transform="translate(194.993 9.626)">
      <g id="Group_47753" data-name="Group 47753" transform="translate(0)" clip-path="url(#clip-path-8)">
        <rect id="Rectangle_16756" data-name="Rectangle 16756" width="10.808" height="15.913" transform="translate(-1.817 -1.816)" fill="#0074c2"/>
      </g>
    </g>
    <path id="Path_24317" data-name="Path 24317" d="M60.5,18.044v.316h1.625V29.614H60.5v.316h4.659v-.316H63.531l.006-11.253h1.625v-.316Z" transform="translate(29.91 8.494)" fill="#0074c2"/>
    <g id="Group_47756" data-name="Group 47756" transform="translate(95.562 26.538)">
      <g id="Group_47755" data-name="Group 47755" clip-path="url(#clip-path-9)">
        <rect id="Rectangle_16757" data-name="Rectangle 16757" width="13.282" height="15.728" transform="translate(-1.814 -1.818)" fill="#0074c2"/>
      </g>
    </g>
    <g id="Group_47758" data-name="Group 47758" transform="translate(105.582 26.538)">
      <g id="Group_47757" data-name="Group 47757" clip-path="url(#clip-path-10)">
        <rect id="Rectangle_16758" data-name="Rectangle 16758" width="12.033" height="15.522" transform="translate(-1.816 -1.818)" fill="#0074c2"/>
      </g>
    </g>
    <g id="Group_47760" data-name="Group 47760" transform="translate(114.545 26.541)">
      <g id="Group_47759" data-name="Group 47759" transform="translate(0 0)" clip-path="url(#clip-path-11)">
        <rect id="Rectangle_16759" data-name="Rectangle 16759" width="12.084" height="15.522" transform="translate(-1.816 -1.821)" fill="#0074c2"/>
      </g>
    </g>
    <g id="Group_47762" data-name="Group 47762" transform="translate(124.409 26.535)">
      <g id="Group_47761" data-name="Group 47761" transform="translate(0 0)" clip-path="url(#clip-path-12)">
        <rect id="Rectangle_16760" data-name="Rectangle 16760" width="13.719" height="15.728" transform="translate(-1.816 -1.815)" fill="#0074c2"/>
      </g>
    </g>
    <g id="Group_47764" data-name="Group 47764" transform="translate(134.329 26.538)">
      <g id="Group_47763" data-name="Group 47763" clip-path="url(#clip-path-13)">
        <rect id="Rectangle_16761" data-name="Rectangle 16761" width="13.282" height="15.728" transform="translate(-1.81 -1.818)" fill="#0074c2"/>
      </g>
    </g>
    <g id="Group_47766" data-name="Group 47766" transform="translate(143.189 26.348)">
      <g id="Group_47765" data-name="Group 47765" transform="translate(0)" clip-path="url(#clip-path-14)">
        <rect id="Rectangle_16762" data-name="Rectangle 16762" width="13.379" height="15.708" transform="translate(-1.817 -1.815)" fill="#0074c2"/>
      </g>
    </g>
    <g id="Group_47768" data-name="Group 47768" transform="translate(151.88 26.538)">
      <g id="Group_47767" data-name="Group 47767" transform="translate(0)" clip-path="url(#clip-path-15)">
        <rect id="Rectangle_16763" data-name="Rectangle 16763" width="12.033" height="15.522" transform="translate(-1.816 -1.818)" fill="#0074c2"/>
      </g>
    </g>
    <path id="Path_24325" data-name="Path 24325" d="M107.316,18.044v.316h1.623V29.614h-1.623v.316h4.653v-.316h-1.62V18.36h1.62v-.316Z" transform="translate(53.529 8.494)" fill="#0074c2"/>
    <g id="Group_47770" data-name="Group 47770" transform="translate(166.32 26.35)">
      <g id="Group_47769" data-name="Group 47769" transform="translate(0)" clip-path="url(#clip-path-16)">
        <rect id="Rectangle_16764" data-name="Rectangle 16764" width="11.947" height="15.913" transform="translate(-1.822 -1.816)" fill="#0074c2"/>
      </g>
    </g>
    <g id="Group_47772" data-name="Group 47772" transform="translate(175.334 26.538)">
      <g id="Group_47771" data-name="Group 47771" transform="translate(0)" clip-path="url(#clip-path-17)">
        <rect id="Rectangle_16765" data-name="Rectangle 16765" width="13.282" height="15.728" transform="translate(-1.817 -1.818)" fill="#0074c2"/>
      </g>
    </g>
    <g id="Group_47774" data-name="Group 47774" transform="translate(184.184 26.348)">
      <g id="Group_47773" data-name="Group 47773" clip-path="url(#clip-path-18)">
        <rect id="Rectangle_16766" data-name="Rectangle 16766" width="13.382" height="15.708" transform="translate(-1.816 -1.815)" fill="#0074c2"/>
      </g>
    </g>
    <g id="Group_47776" data-name="Group 47776" transform="translate(193.526 26.536)">
      <g id="Group_47775" data-name="Group 47775" transform="translate(0)" clip-path="url(#clip-path-19)">
        <rect id="Rectangle_16767" data-name="Rectangle 16767" width="12.131" height="15.522" transform="translate(-1.82 -1.816)" fill="#0074c2"/>
      </g>
    </g>
    <g id="Group_47778" data-name="Group 47778" transform="translate(28.996 17.991)">
      <g id="Group_47777" data-name="Group 47777" clip-path="url(#clip-path-20)">
        <rect id="Rectangle_16768" data-name="Rectangle 16768" width="5.148" height="10.409" transform="translate(-1.817 -1.816)" fill="#0074c2"/>
      </g>
    </g>
    <rect id="Rectangle_16769" data-name="Rectangle 16769" width="0.433" height="2.069" transform="translate(18.551 43.11) rotate(-16.775)" fill="#0074c2"/>
    <path id="Path_24331" data-name="Path 24331" d="M14.822,28.633l.352,1.392L14.04,28.831l-.439.111.509,2.013.388-.107-.361-1.411L15.3,30.645l.42-.105-.509-2Z" transform="translate(6.252 13.787)" fill="#0074c2"/>
    <path id="Path_24332" data-name="Path 24332" d="M15.182,28.531l.071.349.608-.122.334,1.679.42-.086-.332-1.676.606-.12-.071-.355Z" transform="translate(7.05 13.617)" fill="#0074c2"/>
    <path id="Path_24333" data-name="Path 24333" d="M16.8,28.184l.308,2.045L18.638,30l-.054-.367-1.115.168-.078-.525.972-.147-.053-.355-.975.146-.062-.429,1.061-.161-.056-.367Z" transform="translate(7.865 13.497)" fill="#0074c2"/>
    <g id="Group_47780" data-name="Group 47780" transform="translate(27.051 41.241)">
      <g id="Group_47779" data-name="Group 47779" clip-path="url(#clip-path-21)">
        <rect id="Rectangle_16770" data-name="Rectangle 16770" width="5.505" height="5.794" transform="translate(-1.805 -1.815)" fill="#0074c2"/>
      </g>
    </g>
    <path id="Path_24335" data-name="Path 24335" d="M21.353,27.7l.065,1.429-.871-1.4-.451.026.093,2.063.4-.017-.066-1.458.9,1.419.432-.018-.095-2.067Z" transform="translate(9.529 13.357)" fill="#0074c2"/>
    <path id="Path_24336" data-name="Path 24336" d="M22.7,28.145l.254.812h-.524Zm-.238-.471-.746,2.061h.453l.14-.42.764,0,.131.426h.469l-.719-2.072Z" transform="translate(10.344 13.352)" fill="#0074c2"/>
    <path id="Path_24337" data-name="Path 24337" d="M23.267,28.048l.62.03L23.8,29.789l.432.017.086-1.706.618.033.018-.36-1.668-.083Z" transform="translate(11.129 13.36)" fill="#0074c2"/>
    <rect id="Rectangle_16771" data-name="Rectangle 16771" width="2.068" height="0.432" transform="matrix(0.091, -0.996, 0.996, 0.091, 36.612, 43.251)" fill="#0074c2"/>
    <g id="Group_47782" data-name="Group 47782" transform="translate(37.906 41.357)">
      <g id="Group_47781" data-name="Group 47781" clip-path="url(#clip-path-22)">
        <rect id="Rectangle_16772" data-name="Rectangle 16772" width="5.622" height="5.824" transform="translate(-1.81 -1.819)" fill="#0074c2"/>
      </g>
    </g>
    <path id="Path_24339" data-name="Path 24339" d="M27.323,30.152l.394.071.266-1.431.549,1.583.42.078.375-2.034-.394-.072-.26,1.407L28.14,28.2l-.445-.084Z" transform="translate(13.175 13.575)" fill="#0074c2"/>
    <path id="Path_24340" data-name="Path 24340" d="M29.734,29.784l.451-.724.059.849Zm-.879.6.444.105.233-.378.74.178.033.442.457.11-.226-2.183-.48-.113Z" transform="translate(13.948 13.789)" fill="#0074c2"/>
    <path id="Path_24341" data-name="Path 24341" d="M30.552,30.854l1.405.414.105-.354-.988-.293.483-1.629-.42-.122Z" transform="translate(14.804 13.955)" fill="#0074c2"/>
    <g id="Group_47784" data-name="Group 47784" transform="translate(17.839 40.214)">
      <g id="Group_47783" data-name="Group 47783" clip-path="url(#clip-path-23)">
        <rect id="Rectangle_16773" data-name="Rectangle 16773" width="5.356" height="5.905" transform="translate(-1.816 -1.815)" fill="#0074c2"/>
      </g>
    </g>
    <path id="Path_24343" data-name="Path 24343" d="M15.19,26.689l.178.767-.772.184-.179-.77-.42.1.469,2.014.415-.093-.211-.9.775-.179.211.9.42-.1-.466-2.014Z" transform="translate(6.452 12.805)" fill="#0074c2"/>
    <path id="Path_24344" data-name="Path 24344" d="M15.853,26.461,16.22,28.5l.426-.078-.366-2.033Z" transform="translate(7.388 12.702)" fill="#0074c2"/>
    <path id="Path_24345" data-name="Path 24345" d="M16.922,26.272l.293,2.043,1.45-.209-.057-.367-1.016.146-.242-1.679Z" transform="translate(7.928 12.611)" fill="#0074c2"/>
    <rect id="Rectangle_16774" data-name="Rectangle 16774" width="0.433" height="2.068" transform="matrix(0.995, -0.101, 0.101, 0.995, 27.361, 38.557)" fill="#0074c2"/>
    <g id="Group_47786" data-name="Group 47786" transform="translate(29.011 38.343)">
      <g id="Group_47785" data-name="Group 47785" clip-path="url(#clip-path-24)">
        <rect id="Rectangle_16775" data-name="Rectangle 16775" width="5.227" height="5.75" transform="translate(-1.817 -1.81)" fill="#0074c2"/>
      </g>
    </g>
    <g id="Group_47788" data-name="Group 47788" transform="translate(33.209 38.267)">
      <g id="Group_47787" data-name="Group 47787" clip-path="url(#clip-path-25)">
        <rect id="Rectangle_16776" data-name="Rectangle 16776" width="5.69" height="5.759" transform="translate(-1.814 -1.816)" fill="#0074c2"/>
      </g>
    </g>
    <g id="Group_47790" data-name="Group 47790" transform="translate(36.305 38.41)">
      <g id="Group_47789" data-name="Group 47789" clip-path="url(#clip-path-26)">
        <rect id="Rectangle_16777" data-name="Rectangle 16777" width="5.619" height="5.821" transform="translate(-1.81 -1.809)" fill="#0074c2"/>
      </g>
    </g>
    <g id="Group_47792" data-name="Group 47792" transform="translate(39.224 38.723)">
      <g id="Group_47791" data-name="Group 47791" clip-path="url(#clip-path-27)">
        <rect id="Rectangle_16778" data-name="Rectangle 16778" width="5.496" height="5.928" transform="translate(-1.813 -1.815)" fill="#0074c2"/>
      </g>
    </g>
    <g id="Group_47794" data-name="Group 47794" transform="translate(41.966 39.194)">
      <g id="Group_47793" data-name="Group 47793" clip-path="url(#clip-path-28)">
        <rect id="Rectangle_16779" data-name="Rectangle 16779" width="5.567" height="6.001" transform="translate(-1.814 -1.816)" fill="#0074c2"/>
      </g>
    </g>
    <path id="Path_24351" data-name="Path 24351" d="M30.074,28.872l.42.111.519-2.008-.42-.105Z" transform="translate(14.563 12.946)" fill="#0074c2"/>
    <g id="Group_47796" data-name="Group 47796" transform="translate(46.188 40.341)">
      <g id="Group_47795" data-name="Group 47795" clip-path="url(#clip-path-29)">
        <rect id="Rectangle_16780" data-name="Rectangle 16780" width="5.5" height="5.845" transform="translate(-1.817 -1.821)" fill="#0074c2"/>
      </g>
    </g>
    <g id="Group_47798" data-name="Group 47798" transform="translate(24.406 14.409)">
      <g id="Group_47797" data-name="Group 47797" clip-path="url(#clip-path-30)">
        <rect id="Rectangle_16781" data-name="Rectangle 16781" width="20.312" height="23.679" transform="translate(-1.817 -1.813)" fill="#0074c2"/>
      </g>
    </g>
    <g id="Group_47800" data-name="Group 47800" transform="translate(24.875 14.893)">
      <g id="Group_47799" data-name="Group 47799" clip-path="url(#clip-path-31)">
        <rect id="Rectangle_16782" data-name="Rectangle 16782" width="19.346" height="22.71" transform="translate(-1.802 -1.812)" fill="#0074c2"/>
      </g>
    </g>
    <g id="Group_47802" data-name="Group 47802" transform="translate(31.804 3.182)">
      <g id="Group_47801" data-name="Group 47801" clip-path="url(#clip-path-32)">
        <rect id="Rectangle_16783" data-name="Rectangle 16783" width="5.391" height="5.391" transform="translate(-1.814 -1.815)" fill="#0074c2"/>
      </g>
    </g>
    <g id="Group_47804" data-name="Group 47804" transform="translate(1.207 1.207)">
      <g id="Group_47803" data-name="Group 47803" clip-path="url(#clip-path-33)">
        <rect id="Rectangle_16784" data-name="Rectangle 16784" width="66.593" height="49.657" transform="translate(-1.816 -1.816)" fill="#0074c2"/>
      </g>
    </g>
    <g id="Group_47806" data-name="Group 47806" transform="translate(47.629 6.587)">
      <g id="Group_47805" data-name="Group 47805" clip-path="url(#clip-path-34)">
        <rect id="Rectangle_16785" data-name="Rectangle 16785" width="5.249" height="4.434" transform="translate(-1.819 -1.818)" fill="#0074c2"/>
      </g>
    </g>
    <g id="Group_47808" data-name="Group 47808" transform="translate(15.349 8.081)">
      <g id="Group_47807" data-name="Group 47807" clip-path="url(#clip-path-35)">
        <rect id="Rectangle_16786" data-name="Rectangle 16786" width="4.905" height="4.358" transform="translate(-1.816 -1.818)" fill="#0074c2"/>
      </g>
    </g>
  </g>
</svg>
