<svg xmlns="http://www.w3.org/2000/svg" xmlns:xlink="http://www.w3.org/1999/xlink" width="114.479" height="46.025" viewBox="0 0 114.479 46.025">
  <defs>
    <clipPath id="clip-path">
      <rect id="Rectangle_16747" data-name="Rectangle 16747" width="114.479" height="46.025" fill="none"/>
    </clipPath>
  </defs>
  <g id="logo-bigbasket" transform="translate(0 0)">
    <g id="Group_47738" data-name="Group 47738" transform="translate(0 -0.001)" clip-path="url(#clip-path)">
      <path id="Path_24293" data-name="Path 24293" d="M6.009.058A7.9,7.9,0,0,1,7.152,0h32.27a7.051,7.051,0,0,1,5.662,3.07,6.654,6.654,0,0,1,1.046,2.473,9.912,9.912,0,0,1,.137,2V37.737a13.281,13.281,0,0,1-.167,2.847,6.992,6.992,0,0,1-7.089,5.435H6.683A6.893,6.893,0,0,1,.091,40.111a13.866,13.866,0,0,1-.075-2.067V8.072A11.724,11.724,0,0,1,.171,5.458,6.923,6.923,0,0,1,6.009.1Z" transform="translate(0 0.001)" fill="#a5cd39" fill-rule="evenodd"/>
      <path id="Path_24294" data-name="Path 24294" d="M26.628,23.5a14.357,14.357,0,0,0-1.48-4.106,8.616,8.616,0,0,0-9.255-4.46,7.955,7.955,0,0,0-4.912,2.619c-.177.194-.3.428-.486.61V3.858H4.4V38.267a10.24,10.24,0,0,0,2.949-.16A3.9,3.9,0,0,0,9.593,36.9a2.771,2.771,0,0,0,.571-2.039,4.086,4.086,0,0,0,.525.952,3.913,3.913,0,0,0,1.142,1.071,8.946,8.946,0,0,0,1.492.808,11.306,11.306,0,0,0,4.136.632,8.544,8.544,0,0,0,4.221-.974,9.093,9.093,0,0,0,2.553-2.2,10.507,10.507,0,0,0,1.92-3.589,15.418,15.418,0,0,0,.474-8.06M19.739,30.9a5.314,5.314,0,0,1-1.617,2.113,4.631,4.631,0,0,1-3.244.689,4.521,4.521,0,0,1-2.925-1.566A7.593,7.593,0,0,1,10.3,28.532a9.286,9.286,0,0,1,0-3.93,7.58,7.58,0,0,1,1.474-3.332,4.907,4.907,0,0,1,2.947-1.8,4.576,4.576,0,0,1,3.651.844,6.278,6.278,0,0,1,1.714,2.637,12.119,12.119,0,0,1,.537,3.417,10.312,10.312,0,0,1-.852,4.528Z" transform="translate(2.163 1.897)" fill="#ec1c24"/>
      <path id="Path_24295" data-name="Path 24295" d="M30.2,16.918a9.728,9.728,0,0,0-2.388-3.344,8.975,8.975,0,0,0-6.124-2.38,8.694,8.694,0,0,0-4.346,1.19,12.537,12.537,0,0,1,1.97,2.279,5.784,5.784,0,0,1,4.655.376A5.922,5.922,0,0,1,26.25,17.6a11.967,11.967,0,0,1,1.069,4.267,14.072,14.072,0,0,1-.418,4.761,8.38,8.38,0,0,1-1.48,3.065A5.1,5.1,0,0,1,22.944,31.4a6.127,6.127,0,0,1-3.765-.125,12.659,12.659,0,0,1-2.285,2.415,9.782,9.782,0,0,0,5,1.065,7.947,7.947,0,0,0,6.53-2.847,10.371,10.371,0,0,0,1.914-3.122,17.045,17.045,0,0,0,.987-3.942A15.615,15.615,0,0,0,30.2,16.918" transform="translate(8.303 5.503)" fill="#231f20"/>
      <path id="Path_24296" data-name="Path 24296" d="M17.459,3.862h-3.7V13.8a6.731,6.731,0,0,1,3.7,1.14Z" transform="translate(6.762 1.899)" fill="#231f20"/>
      <path id="Path_24297" data-name="Path 24297" d="M44.317,8.588a4.855,4.855,0,0,0-4.4-1.287A4.6,4.6,0,0,0,36.85,9.1V.99H33.332V20.732a4.722,4.722,0,0,0,2.7-.529,1.711,1.711,0,0,0,.652-1.316,2.859,2.859,0,0,0,1.29,1.236,6.082,6.082,0,0,0,3.856.568,4.87,4.87,0,0,0,3.429-2.449,8.883,8.883,0,0,0,.943-5.866,6.958,6.958,0,0,0-1.881-3.788m-2.776,8.846a2.694,2.694,0,0,1-3.918-.4,5.432,5.432,0,0,1-.777-4.346A3.335,3.335,0,0,1,39,10.006a2.538,2.538,0,0,1,2.285.359,3.659,3.659,0,0,1,1.326,2.427,5.709,5.709,0,0,1-1.074,4.642" transform="translate(16.383 0.487)" fill="#ec1c24"/>
      <rect id="Rectangle_16745" data-name="Rectangle 16745" width="3.518" height="13.158" transform="translate(63.602 8.096)" fill="#ec1c24"/>
      <rect id="Rectangle_16746" data-name="Rectangle 16746" width="3.515" height="2.928" transform="translate(63.603 1.478)" fill="#ec1c24"/>
      <path id="Path_24298" data-name="Path 24298" d="M55.9,5.993a1.914,1.914,0,0,0-.628.528,1.938,1.938,0,0,0-.349.741,4.322,4.322,0,0,0-4.713-2.021,5.217,5.217,0,0,0-3.941,3.308,8.925,8.925,0,0,0-.464,4.4,5.214,5.214,0,0,0,6.484,4.91,3.783,3.783,0,0,0,2.674-1.891c-.034.81.028,1.624-.04,2.433a2.645,2.645,0,0,1-1.764,2.279,3.8,3.8,0,0,1-2.668-.319,2.142,2.142,0,0,1-.886-1.253h-3.5a3.977,3.977,0,0,0,1.787,3,7.491,7.491,0,0,0,5.377,1.032,5.659,5.659,0,0,0,4.53-2.962,7.338,7.338,0,0,0,.531-3.019V5.593a4.58,4.58,0,0,0-2.428.4m-1.417,7.854a2.807,2.807,0,0,1-3.073,1.384,3.038,3.038,0,0,1-2.131-2.847,5.671,5.671,0,0,1,.434-3.111,2.476,2.476,0,0,1,1.6-1.31,2.671,2.671,0,0,1,3,1.071,5.506,5.506,0,0,1,.172,4.813" transform="translate(22.468 2.536)" fill="#ec1c24"/>
      <path id="Path_24299" data-name="Path 24299" d="M78.761,25.238a1.814,1.814,0,0,0-.428-1.14,2.619,2.619,0,0,0-1.714-.671V16.648h-2.17v6.8H72.671v1.788h1.778V34.09a2.293,2.293,0,0,0,1.1,2.152c.993.524,2.125.21,3.175.109V34.6a4.156,4.156,0,0,1-1.679-.148.952.952,0,0,1-.422-.923V25.238Z" transform="translate(35.718 8.183)" fill="#231f20"/>
      <path id="Path_24300" data-name="Path 24300" d="M38.044,23.112a4.224,4.224,0,0,0-2.216,1.782V16.64H33.581V36.167c.571,0,1.245.119,1.714-.325a1.555,1.555,0,0,0,.362-.616,1.574,1.574,0,0,0,.055-.711,3.956,3.956,0,0,0,1.629,1.624,5.149,5.149,0,0,0,6.363-1.9,9.5,9.5,0,0,0,1.274-5.217,7.006,7.006,0,0,0-1.748-4.706,5.146,5.146,0,0,0-5.186-1.207m3.89,9.962a3.048,3.048,0,0,1-2.582,1.55,3.354,3.354,0,0,1-3-1.6,5.923,5.923,0,0,1-.646-3.524,6.878,6.878,0,0,1,.846-3.259,2.808,2.808,0,0,1,1.845-1.31,3.478,3.478,0,0,1,3.342.99,5.565,5.565,0,0,1,.977,3.419,7.133,7.133,0,0,1-.783,3.73" transform="translate(16.505 8.179)" fill="#231f20"/>
      <path id="Path_24301" data-name="Path 24301" d="M74.691,22.337A5.155,5.155,0,0,0,70.3,20.849a5.657,5.657,0,0,0-3.9,1.806,7.89,7.89,0,0,0-1.714,5.354,7.029,7.029,0,0,0,1.53,4.664A5.434,5.434,0,0,0,70.155,34.5a6.136,6.136,0,0,0,3.776-.855A5.411,5.411,0,0,0,76.338,30H74.16a3.352,3.352,0,0,1-3.266,2.574,3.554,3.554,0,0,1-2.828-1.037,4.737,4.737,0,0,1-1.023-3.195h9.483c-.018-2.1-.325-4.4-1.835-6.009m-5.083,4.278a3,3,0,0,0-2.537.764,4.336,4.336,0,0,1,1.292-3.641,3.558,3.558,0,0,1,4.941.16,4.831,4.831,0,0,1,.931,2.718Z" transform="translate(31.789 10.224)" fill="#231f20"/>
      <path id="Path_24302" data-name="Path 24302" d="M52.794,32.512c-.394-.182-.371-.661-.382-1.026V24.241a3,3,0,0,0-.9-2.17,5.651,5.651,0,0,0-3.627-1.253,6.677,6.677,0,0,0-4.318,1.138,4.2,4.2,0,0,0-1.292,3.031,2.423,2.423,0,0,0,1.714-.348c.634-.386.811-1.2,1.445-1.588a4.306,4.306,0,0,1,3.04-.348,2.083,2.083,0,0,1,1.817,1.532,1.673,1.673,0,0,1-.571,1.817,10.81,10.81,0,0,1-2,.331c-1.468.227-3.04.176-4.354.956a3.95,3.95,0,0,0-.5,6.2,5.082,5.082,0,0,0,4.485.752,5.913,5.913,0,0,0,3.011-1.9,2,2,0,0,0,.2.9,2.015,2.015,0,0,0,.582.714,3.2,3.2,0,0,0,2.719.1v-1.6a3.413,3.413,0,0,1-1.074.018m-2.616-2.33a3.8,3.8,0,0,1-3.044,2.37c-.995.188-2.286.154-2.891-.786a2.178,2.178,0,0,1,.313-2.729,6.083,6.083,0,0,1,2.856-.808,10.3,10.3,0,0,0,2.811-.661,23.528,23.528,0,0,1-.046,2.615" transform="translate(20.446 10.233)" fill="#231f20"/>
      <path id="Path_24303" data-name="Path 24303" d="M67.912,24.178a1.981,1.981,0,0,0-1.257-.57,2.6,2.6,0,0,0-1.062.255,2.566,2.566,0,0,0-.862.668q-2.307,2.237-4.61,4.476V16.637h-2.1V36.572h2.1v-4.9c.571-.57,1.205-1.095,1.821-1.624l4,6.522H68.8c-1.715-2.722-3.508-5.423-5.244-8.145,1.456-1.424,2.935-2.809,4.358-4.249" transform="translate(28.516 8.178)" fill="#231f20"/>
      <path id="Path_24304" data-name="Path 24304" d="M57.571,26.935c-1.181-.307-2.36-.6-3.536-.934a2.285,2.285,0,0,1-1.433-.873,1.543,1.543,0,0,1-.036-1.1,1.563,1.563,0,0,1,.7-.849,4.655,4.655,0,0,1,3.427-.227c.714.154,1.052.877,1.657,1.219a2.561,2.561,0,0,0,1.908.37,3.913,3.913,0,0,0-1.714-2.888,5.9,5.9,0,0,0-3.3-.843,5.662,5.662,0,0,0-3.668,1.225A3.868,3.868,0,0,0,50.5,25.83,3.235,3.235,0,0,0,52.783,27.9c1.395.428,2.858.685,4.234,1.14a1.979,1.979,0,0,1,.82.359,1.941,1.941,0,0,1,.573.689,1.756,1.756,0,0,1-.274,1.52,2.9,2.9,0,0,1-2.142.98,4.352,4.352,0,0,1-3.01-.683,2.636,2.636,0,0,1-.631-.889,2.666,2.666,0,0,1-.221-1.065h-2.17a4.94,4.94,0,0,0,.975,2.944,4.753,4.753,0,0,0,3.017,1.515,7.486,7.486,0,0,0,4.479-.507,3.985,3.985,0,0,0,2.215-2.847,3.452,3.452,0,0,0,.037-1.393,3.5,3.5,0,0,0-.516-1.3,4.85,4.85,0,0,0-2.6-1.435" transform="translate(24.557 10.228)" fill="#231f20"/>
    </g>
  </g>
</svg>
