<svg id="logo-nestle" xmlns="http://www.w3.org/2000/svg" xmlns:xlink="http://www.w3.org/1999/xlink" width="64.962" height="65.104" viewBox="0 0 64.962 65.104">
  <defs>
    <clipPath id="clip-path">
      <rect id="Rectangle_6404" data-name="Rectangle 6404" width="64.962" height="65.104" fill="none"/>
    </clipPath>
  </defs>
  <g id="Group_18310" data-name="Group 18310" transform="translate(0 0)" clip-path="url(#clip-path)">
    <path id="Path_8712" data-name="Path 8712" d="M14.325,13.95c-.132-.132-.2-.264-.329-.4-1.185-1.183-2.3-2.433-3.486-3.618l-.2-.2c-.131-.132-.131-.2-.065-.329a8.561,8.561,0,0,0,.394-.789,20.99,20.99,0,0,0,4.277,4.736l.262-.264a39.655,39.655,0,0,1,6.25-5.2A5.3,5.3,0,0,0,23.14,5.989c.394-.723.789-1.447,1.183-2.1a4.038,4.038,0,0,1,1.118-1.25,3.364,3.364,0,0,1,2.96-.592,2.289,2.289,0,0,1,1.25.789,2.69,2.69,0,0,0,.724.461q.887.3,1.776.592a1.1,1.1,0,0,1,.329.132c-.526.329-1.053.592-1.579.921a16.19,16.19,0,0,0,1.579.658c-.132.065-.2.132-.329.132a13.543,13.543,0,0,0-2.763,1.382,5.966,5.966,0,0,0-1.38,1.183,7.052,7.052,0,0,0-.988,1.447c-.065.132-.065.2-.131.329.065.067.2.067.262.132a3.863,3.863,0,0,1,1.118.658,1.634,1.634,0,0,0,.461.264c.592.264,1.25.461,1.908.724a2.443,2.443,0,0,1-.789.459,5,5,0,0,0-.789.461,10.408,10.408,0,0,1,1.447.856A9.663,9.663,0,0,0,26.1,16.186h.33c1.315,0,2.63-.065,3.947-.065,1.512,0,3.026,0,4.538.065,1.053.066,2.171.132,3.224.2.723.067,1.447.2,2.171.264h.2c-.067-.132-.067-.2-.132-.329a12.021,12.021,0,0,1-1.25-3.947,5.05,5.05,0,0,0-.461-1.711,1.393,1.393,0,0,0-.921-.789A5.281,5.281,0,0,0,35.7,9.739c-.723.066-1.447.2-2.236.264a19.716,19.716,0,0,0,.986-1.711,18.583,18.583,0,0,0-1.908,0c.067-.065.132-.132.132-.2.461-.527.921-1.053,1.382-1.645a2.173,2.173,0,0,0,.461-.855,4.217,4.217,0,0,1,.264-.856,3.823,3.823,0,0,1,3.091-2.762A4.459,4.459,0,0,1,41.69,2.9,7.94,7.94,0,0,1,42.743,3.95a3.8,3.8,0,0,1,.461.527,7.917,7.917,0,0,0,1.513,1.447C46.3,7.239,47.808,8.556,49.322,10a1.452,1.452,0,0,0,.329.264,8.163,8.163,0,0,0,3.026-2.96,9.7,9.7,0,0,0,1.382-4.079c1.183.065,2.368.2,3.552.264-.065.131-.131.2-.2.329A11.808,11.808,0,0,0,56.1,6.385a2.1,2.1,0,0,0-.2.921c-.067.262-.067.526.2.658a.594.594,0,0,0,.658-.065,4.3,4.3,0,0,0,1.183-.988l1.777-2.368a3.7,3.7,0,0,0,.329-.526c.921.723,1.776,1.382,2.632,2.171-.132.065-.2.132-.264.132a8.931,8.931,0,0,0-1.315.855c-.132.132-.33.264-.4.394-.264.33-.132.592.264.659h.723a7.865,7.865,0,0,0,2.368-.856c.066-.065.2-.065.264-.132a31.04,31.04,0,0,1,0,3.486,23.706,23.706,0,0,0-5.592.921l.33.329a4.193,4.193,0,0,0,1.25.527c.329.065.591.132.92.2.132,0,.2.065.329.065-.131.921-.262,1.842-.394,2.829-.132-.065-.264-.065-.329-.131a19.677,19.677,0,0,0-3.815-1.185,16.966,16.966,0,0,0-2.632-.264.945.945,0,0,0-.4.132c-.131.2-.329.4-.459.592.065.065.065.132.131.2a53.254,53.254,0,0,1,3.618,6.25Q60.34,27.106,63,33.224a27.584,27.584,0,0,1,1.315,3.224,1.329,1.329,0,0,1,.065.329,41.937,41.937,0,0,1-4.407-2.763.064.064,0,0,0-.065.067c0,.131.065.2.065.329.527,1.579,1.119,3.223,1.645,4.8a3.338,3.338,0,0,1,.132.789c0,.4-.132.592-.527.592H59.517a1.092,1.092,0,0,0-.789.329c-.329.4-.658.724-1.052,1.118l-.527.526A.753.753,0,0,1,55.9,42.3a4.058,4.058,0,0,1-.2-.856c-.394-2.565-.855-5.065-1.25-7.63-.262-1.447-.461-2.829-.723-4.276a.4.4,0,0,0-.2-.4,43.529,43.529,0,0,1-3.488-3.486c-.065-.065-.131-.132-.2-.132-.526-.2-.986-.461-1.512-.658,0,.132-.066.2-.066.329a13.055,13.055,0,0,0,.2,2.763c.066.2,0,.262-.131.394a7.433,7.433,0,0,1-.724.724.543.543,0,0,0-.2.526,13.869,13.869,0,0,0,.065,1.645.985.985,0,0,1-.264.723,7.091,7.091,0,0,1-1.052.921,28.689,28.689,0,0,1-3.75,2.5,16.753,16.753,0,0,1-3.553,1.447c-.131.066-.262.066-.394.132a6.3,6.3,0,0,1-2.433.394c-2.106,0-4.277-.065-6.382-.065a8.814,8.814,0,0,0-1.315.132,24.448,24.448,0,0,0-3.685.789,3.991,3.991,0,0,1-1.25.065,7.4,7.4,0,0,1-2.829-.855.625.625,0,0,0-.591,0,23.412,23.412,0,0,0-2.632,1.842c-.658.526-1.315,1.052-2.039,1.579-.592.461-1.118.855-1.711,1.315a5.28,5.28,0,0,1-1.579.855,10.78,10.78,0,0,1-2.1.461H9.26a.587.587,0,0,1-.527-.329A3.806,3.806,0,0,0,6.76,41.973a3.557,3.557,0,0,0-1.447,0,.965.965,0,0,1-.461-.066,3.284,3.284,0,0,1-.988-.921,5.771,5.771,0,0,1-1.118-2.5,8.881,8.881,0,0,1-.065-3.947,6.122,6.122,0,0,1,.394-1.053.657.657,0,0,1,.264-.329,2.8,2.8,0,0,1,1.25-.4,18.152,18.152,0,0,0,3.223-.986,11.955,11.955,0,0,1,1.382-.526c.067,0,.132-.066.264-.132-.066-.066-.132-.132-.132-.2-.789-.789-1.513-1.711-2.236-2.566a2.068,2.068,0,0,1-.4-1.052c0-.2-.065-.461-.065-.659-.065-.2-.065-.394-.132-.591-.329-.724-.658-1.382-.986-2.106-.132-.262-.132-.394.065-.591.132-.132.2-.264.329-.4a.6.6,0,0,0,0-.658,4.946,4.946,0,0,1-.461-.789c-.2-.329-.2-.4.132-.592a1.191,1.191,0,0,0,.592-1.315.5.5,0,0,0-.065-.329,1.13,1.13,0,0,1,.394-.988,2.779,2.779,0,0,1,.921-.591,7.8,7.8,0,0,1,2.1-.658l2.566-.4c.131,0,.262-.065.262-.132.329-.394.658-.855,1.053-1.315h-.4c-.986.065-1.908.2-2.894.264-.461.065-.855.065-1.315.131H8.536l.4-.789c.065-.131.131-.131.262-.131h.856c.921-.066,1.908-.132,2.829-.264a3.894,3.894,0,0,0,.92-.132c.33,0,.33,0,.527-.329m-.658,5.394a1.37,1.37,0,0,1,.394-.264c2.565-1.776,5.065-3.486,7.632-5.262a3.433,3.433,0,0,0,1.118-1.25,6.274,6.274,0,0,0,.329-.658,4.577,4.577,0,0,1,.986-1.25A2.63,2.63,0,0,1,25.64,10a.443.443,0,0,0,.394-.264,7.891,7.891,0,0,1,4.407-4.079c.065-.065.2-.065.329-.132-.461-.2-.789-.329-1.183-.526.394-.329.789-.526,1.183-.855a5.421,5.421,0,0,0-.789-.264,1.358,1.358,0,0,1-.658-.394,2.16,2.16,0,0,0-1.842-.659,2.6,2.6,0,0,0-1.644.789,5.861,5.861,0,0,0-.986,1.25c-.4.658-.724,1.316-1.053,1.974a4.143,4.143,0,0,1-1.315,1.512c-.132.132-.33.2-.461.33a39.54,39.54,0,0,0-4.145,3.288,46.577,46.577,0,0,0-6.709,7.7A1.166,1.166,0,0,1,10.9,20a2.661,2.661,0,0,0-.592-.329c.4-.658.789-1.25,1.185-1.841h-.4a3.336,3.336,0,0,0-.789.131,8.434,8.434,0,0,0-1.841.461,2.711,2.711,0,0,0-.592.329.647.647,0,0,0-.2.921,1.756,1.756,0,0,0,.461.527,6.024,6.024,0,0,0,2.1,1.183,1.293,1.293,0,0,0,.986-.065c.264-.132.592-.2.856-.329a3.694,3.694,0,0,1,2.236-.2,16.26,16.26,0,0,1,4.8,2.039c.066.067.132.067.2.2a5.079,5.079,0,0,1-.724.262.551.551,0,0,1-.461,0c-.724-.329-1.382-.658-2.1-.986a6.206,6.206,0,0,0-1.974-.526,3.89,3.89,0,0,0-2.1.394c-.461.2-.986.4-1.447.592a.3.3,0,0,1-.33,0,11.5,11.5,0,0,1-1.249-.658,7.858,7.858,0,0,1-1.579-.988c-.066-.065-.066-.065-.132-.065a1.4,1.4,0,0,0,.065,1.513A4,4,0,0,0,8.6,23.818a7.042,7.042,0,0,0,4.145,1.118.4.4,0,0,1,.262.065c.132.132.264.329.461.526a2.191,2.191,0,0,1-1.38.592,5.868,5.868,0,0,1-1.448-.2,6.362,6.362,0,0,1-3.288-1.711c-.2-.2-.4-.329-.592-.526A.991.991,0,0,0,6.826,24.8a6.577,6.577,0,0,0,1.053,1.315A11.635,11.635,0,0,0,10.9,28.159l.592.2,1.776.2a6.086,6.086,0,0,0,2.171-.2,2.609,2.609,0,0,0,1.579-.921.672.672,0,0,1,.526-.329,2.678,2.678,0,0,1,.724,0,22.989,22.989,0,0,1,4.276,1.25c.065,0,.132.067.2.132-.658.4-.789.461-1.512.2a10.077,10.077,0,0,0-1.316-.394,3.979,3.979,0,0,0-1.512-.2,1.6,1.6,0,0,0-1.448.986.573.573,0,0,0,.264.789,1.331,1.331,0,0,0,.526.264,8.96,8.96,0,0,0,1.909.329,24.489,24.489,0,0,0,3.091-.132c.789-.067,1.579-.2,2.3-.264a.39.39,0,0,1,.262.066,4.214,4.214,0,0,1,.527.591,2.788,2.788,0,0,0-.329.067,27.976,27.976,0,0,1-5.263.461,23.764,23.764,0,0,1-3.026-.132,3.507,3.507,0,0,1-1.183-.986.835.835,0,0,0-.592-.461,2.842,2.842,0,0,0-1.25-.264H12.154a3.526,3.526,0,0,1-1.447-.264l-1.185-.591A4.408,4.408,0,0,1,7.879,27.3c-.066-.066-.132-.066-.132-.132a.064.064,0,0,0-.065.065A3.01,3.01,0,0,0,8.4,28.684c.461.461.856.921,1.316,1.382a1.548,1.548,0,0,0,1.052.461,5.7,5.7,0,0,0,1.053-.132,2.674,2.674,0,0,1,1.25-.065,5.723,5.723,0,0,1,.986.329,12.277,12.277,0,0,1,2.565,1.447,2.667,2.667,0,0,0,2.106.461,3.211,3.211,0,0,1,1.118,0,3.129,3.129,0,0,1,2.236,1.579,3.98,3.98,0,0,1,.329.789c.067.2.132.4.2.658-.262.2-.461.329-.658.461a.946.946,0,0,1-.132-.394,4.711,4.711,0,0,0-.789-1.382,2.309,2.309,0,0,0-1.644-.789,1.9,1.9,0,0,0-1.645.658c0,.065-.065.065-.131.132l-.4-.4a10.774,10.774,0,0,0-2.632-1.908,4.4,4.4,0,0,0-3.158-.461,8.562,8.562,0,0,0-1.25.264c-.658.2-1.249.526-1.841.724a27.317,27.317,0,0,1-3.947,1.183c-.132,0-.2.132-.264.264-.132.394-.264.855-.394,1.25a7.126,7.126,0,0,0-.264,1.644,5.291,5.291,0,0,0,1.183,3.092,2.019,2.019,0,0,0,.527.526.482.482,0,0,0,.394.132,4.333,4.333,0,0,1,.921,0,3.817,3.817,0,0,1,2.435,1.25,1.135,1.135,0,0,0,.723.394,4.723,4.723,0,0,0,2.171-.394,1.408,1.408,0,0,0,.724-.658,7.915,7.915,0,0,0,.526-1.053,5.622,5.622,0,0,0,.526-3.092.88.88,0,0,0-.132-.591,2.318,2.318,0,0,0-1.183-1.053,13.448,13.448,0,0,1-1.513-.461,1.683,1.683,0,0,0-.986,0c-.724.2-1.513.461-2.236.658h-.2a7.391,7.391,0,0,1,.855-.658c.264-.2.592-.394.921-.658a15.974,15.974,0,0,0-1.579-.264c.329-.132.723-.262,1.052-.394a.551.551,0,0,1,.461,0c.724.2,1.448.394,2.238.591a9.484,9.484,0,0,1,1.776.592,5.11,5.11,0,0,1,1.382.921,1.218,1.218,0,0,1,.329,1.053c-.264,1.118-.461,2.236-.724,3.355,0,.132-.065.2-.065.329h.065a14.444,14.444,0,0,1,1.513-1.315,11.806,11.806,0,0,0,.921-.789c.131-.132.2-.264.329-.4a.919.919,0,0,0,.92-.132q.3-.2.592-.394a10.21,10.21,0,0,0,.856-.789,2.739,2.739,0,0,1,.921-.592.628.628,0,0,1,.591,0,11.143,11.143,0,0,0,2.368.789,2.187,2.187,0,0,0,1.579-.065,3.571,3.571,0,0,1,1.447-.329l2.171-.2c1.118-.065,2.3-.131,3.421-.2,1.644,0,3.223.067,4.868.132h.394l1.974-.592a15,15,0,0,0,6.644-4.144,2.645,2.645,0,0,0,.592-1.118c.065-.264,0-.4-.2-.461-.132-.066-.2-.066-.33-.132a2.963,2.963,0,0,0-1.512.065,4.506,4.506,0,0,0-1.316.461.489.489,0,0,1-.591,0c.132-.131.2-.262.329-.329a9.158,9.158,0,0,1,1.382-.723,5.916,5.916,0,0,1,2.1-.592.359.359,0,0,0,.394-.264,8.736,8.736,0,0,0,1.119-3.42c.065-.592.065-.592-.592-.789-.067.065-.132.2-.2.262a11.806,11.806,0,0,1-.789.921,6.609,6.609,0,0,1-.988.921,1.2,1.2,0,0,1-1.776-.2,19.2,19.2,0,0,1-1.25-1.908c-.526-.988-1.118-1.908-1.644-2.9a1.166,1.166,0,0,0-.264-.329A2.742,2.742,0,0,0,39.52,22.3a2.728,2.728,0,0,1-.659-.264,7.719,7.719,0,0,1,.33-1.315.391.391,0,0,0-.067-.461.559.559,0,0,0-.986-.065c-.132.2-.264.459-.4.658-.065.065-.065.2-.2.262a2.3,2.3,0,0,1-.592.264,2.66,2.66,0,0,1,.329-1.513,1.427,1.427,0,0,1,1.645-.855,2.72,2.72,0,0,1,.658.264,2.987,2.987,0,0,1,.789.789c.789,1.052,1.579,2.171,2.368,3.223.065.066.065.132.132.264a.7.7,0,0,1,.2-.329c.2-.461.4-.921.592-1.316.132-.2.065-.329-.067-.526a24.39,24.39,0,0,1-2.433-3.355A.762.762,0,0,0,40.7,17.7a34.153,34.153,0,0,0-3.618-.527c-2.1-.131-4.21-.2-6.249-.2-1.842,0-3.685.066-5.527.066a.659.659,0,0,0-.658.394,17.014,17.014,0,0,0-1.183,3.026,2.579,2.579,0,0,0-.132.4c-.264-.066-.461-.066-.724-.132v-.2A16.864,16.864,0,0,1,23.732,17.5a8.024,8.024,0,0,1,4.539-4.012c.067,0,.132-.065.264-.132a8.473,8.473,0,0,1-.986-.658c.394-.264.789-.526,1.25-.789a2.666,2.666,0,0,0-.4-.132,2.526,2.526,0,0,1-1.183-.592,1.658,1.658,0,0,0-.461-.262,2.245,2.245,0,0,0-2.829.658,5.623,5.623,0,0,0-.658,1.053,4.1,4.1,0,0,1-1.119,1.447A12.831,12.831,0,0,1,20.64,15.2c-1.974,1.315-3.947,2.632-5.854,3.947a1.346,1.346,0,0,1-1.382.264c.394,0,.394,0,.264-.066M60.11,29.08h0c0-.2-.065-.264-.065-.4-.264-.526-.527-1.118-.789-1.644-1.447-2.96-2.9-5.921-4.539-8.815a28.754,28.754,0,0,0-4.868-6.38c-1.908-1.842-3.88-3.618-5.92-5.4A15.012,15.012,0,0,1,42.48,5a8.531,8.531,0,0,0-1.052-1.118,3.413,3.413,0,0,0-2.171-1.053,3.344,3.344,0,0,0-3.026,1.185,3.723,3.723,0,0,0-.789,1.512,2.635,2.635,0,0,1-.658,1.185,3.706,3.706,0,0,0-.461.526c-.067.067-.067.132-.132.2.658,0,1.25-.132,1.908-.132-.4.526-.724.986-1.053,1.512h.329a7.6,7.6,0,0,1,2.106-.065A2.586,2.586,0,0,1,39.717,10.4c.065.2.132.329.2.527.067.394.2.855.264,1.25a13.091,13.091,0,0,0,1.579,4.407,32.507,32.507,0,0,0,3.289,4.6c.2.2.2.2.065.461a20.83,20.83,0,0,1-1.053,2.1.9.9,0,0,0,0,.986c.066.132.132.2.2.329.262.33.394.4.723.132a9.766,9.766,0,0,0,1.842-1.841c.2-.264.2-.264.461-.132.461.2.921.394,1.315.592.067,0,.132.065.264.065a1.391,1.391,0,0,1-.264-.4,55.5,55.5,0,0,1-4.8-7.038,25.973,25.973,0,0,1-1.513-3.026,1.259,1.259,0,0,1-.132-.856.361.361,0,0,1,.2-.329c.131-.065.262,0,.394.132a1.425,1.425,0,0,1,.329.526,14.18,14.18,0,0,0,.658,1.447,48.508,48.508,0,0,0,3.882,6.382,36.661,36.661,0,0,0,3.158,4.012,58.9,58.9,0,0,0,9.341,8.289c.856.658,1.777,1.183,2.7,1.776.067.066.2.132.264.066v-.132c-.658-1.316-1.25-2.632-1.908-3.947a.514.514,0,0,0-.264-.264,32.285,32.285,0,0,1-6.249-4.933,25.925,25.925,0,0,1-4.342-5.657l-.2-.4a1.45,1.45,0,0,1,.592.066c.131,0,.2.065.262.2l.4.592a31.051,31.051,0,0,0,6.776,7.3c.591.461,1.183.789,1.776,1.185a.174.174,0,0,0,.2.2M56.1,4.28a8.83,8.83,0,0,0-1.316-.132A9.149,9.149,0,0,1,53.2,8.029a10.325,10.325,0,0,1-2.894,2.96l2.763,3.158c.065,0,.065-.065.131-.065a8.7,8.7,0,0,1,2.435-1.908,20.219,20.219,0,0,1,6.776-2.039A7.164,7.164,0,0,1,63.6,10a5.266,5.266,0,0,0,0-1.447c-.131.065-.262.065-.394.132-.526.131-.986.262-1.513.394a3.217,3.217,0,0,1-1.118,0,.866.866,0,0,1-.658-1.25,1.425,1.425,0,0,1,.329-.526,9.748,9.748,0,0,1,.856-.724.892.892,0,0,1,.262-.2c-.394-.329-.723-.658-1.118-.986a.91.91,0,0,1-.2.262c-.2.329-.461.592-.658.921-.4.527-.856,1.053-1.25,1.513a4.6,4.6,0,0,1-1.118.855,9.689,9.689,0,0,1-1.118.132,1.117,1.117,0,0,1-.921-.921,2.187,2.187,0,0,1,.065-.921,10.773,10.773,0,0,1,.921-2.565A.918.918,0,0,1,56.1,4.28m-1.25,25.853a.065.065,0,0,0-.066.065v.329c.2,1.315.461,2.565.659,3.882.394,2.1.723,4.209,1.118,6.249.065.2.065.4.132.592.065.264.329.329.591.264.066-.066.2-.066.264-.132.526-.526.986-1.118.658-1.908,0-.067,0-.132-.065-.132-.527-2.5-1.053-5-1.645-7.5a1.056,1.056,0,0,0-.262-.459c-.4-.264-.724-.592-1.053-.856-.065-.2-.2-.264-.329-.394m2.565,2.17a2.787,2.787,0,0,0,.067.329q.689,2.763,1.38,5.526c.066.4.2.724.264,1.119a.867.867,0,0,0,.921.723h.329c.658,0,.789-.2.658-.855-.592-1.777-1.183-3.553-1.711-5.394a.663.663,0,0,0-.262-.33c-.461-.329-.856-.658-1.316-.986-.132-.065-.2-.065-.329-.132M60.7,13.489a2.557,2.557,0,0,1-.394-.132,5.389,5.389,0,0,1-2.369-1.183c-.131-.132-.2-.132-.329-.066a9.024,9.024,0,0,0-2.1,1.053c-.065.065-.132.065-.2.2.2,0,.329.067.526.067h.461a13.836,13.836,0,0,1,4.079,1.118c.065,0,.132.065.2.065a1.8,1.8,0,0,0,.066-.592,1.457,1.457,0,0,0,.065-.526" transform="translate(0.577 0.436)" fill="#2e5791"/>
    <path id="Path_8713" data-name="Path 8713" d="M5.791,44.987v.4c0,3.026,0,5.985.065,9.012v.526a.84.84,0,0,1-.789.724H3.555a.921.921,0,0,1-.856-.856V40.58a1.048,1.048,0,0,1,.921-.855H5.659a1.7,1.7,0,0,1,1.579.92c.527.921,1.053,1.842,1.513,2.763,1.25,2.236,2.5,4.473,3.683,6.776a1.38,1.38,0,0,1,.2.329c0-.132.066-.2.066-.264,0-2.3,0-4.67-.066-6.973v-2.3a1.039,1.039,0,0,1,1.053-1.053H37.894c.394,0,.658.2.658.592v1.118c0,.329-.264.526-.592.591h-22.3V54.657a.921.921,0,0,1-.856.856H12.632a1.475,1.475,0,0,1-1.25-.789c-.658-1.185-1.315-2.3-1.973-3.486L6.055,45.119c-.067-.132-.132-.2-.2-.329a.287.287,0,0,1-.065.2" transform="translate(0.625 9.196)" fill="#2e5791"/>
    <path id="Path_8714" data-name="Path 8714" d="M17.216,49.944c0,.2.066.329.066.461a2.752,2.752,0,0,0,2.7,2.17,2.66,2.66,0,0,0,2.368-1.183.66.66,0,0,1,.724-.329h1.644a.622.622,0,0,1,.592.723,3.907,3.907,0,0,1-1.185,1.908,7.117,7.117,0,0,1-2.433,1.25,6.671,6.671,0,0,1-3.224,0,5.3,5.3,0,0,1-3.355-2.565,6.312,6.312,0,0,1,.065-6.776,5.147,5.147,0,0,1,3.882-2.5,6.787,6.787,0,0,1,3.026.264,5.1,5.1,0,0,1,3.486,3.88,4.613,4.613,0,0,1,.2,1.909c0,.526-.329.789-.856.855h-7.17c-.2-.132-.329-.065-.527-.065m5.46-2.3a1.859,1.859,0,0,0-.264-.855A2.787,2.787,0,0,0,19.255,45.4a2.543,2.543,0,0,0-1.973,1.908.587.587,0,0,1-.066.329Z" transform="translate(3.277 9.963)" fill="#2e5791"/>
    <path id="Path_8715" data-name="Path 8715" d="M44.987,49.877a4.021,4.021,0,0,0,.132.592,2.608,2.608,0,0,0,2.039,1.973,2.718,2.718,0,0,0,2.959-1.052.939.939,0,0,1,.789-.4h1.579a.59.59,0,0,1,.592.789,3.843,3.843,0,0,1-.921,1.579,4.922,4.922,0,0,1-1.315.988,6.81,6.81,0,0,1-4.407.591,5.239,5.239,0,0,1-3.486-2.5,6.542,6.542,0,0,1-.329-6.315A5.116,5.116,0,0,1,46.828,43.1a6.519,6.519,0,0,1,3.158.329,5.326,5.326,0,0,1,3.289,3.618,6.33,6.33,0,0,1,.264,1.908,1.128,1.128,0,0,1-.065.461c-.066.329-.329.461-.659.527H45.448c-.067-.067-.264-.067-.461-.067m5.394-2.236a2.619,2.619,0,0,0-2.7-2.368,2.554,2.554,0,0,0-2.632,2.368Z" transform="translate(9.713 9.963)" fill="#2e5791"/>
    <path id="Path_8716" data-name="Path 8716" d="M25.341,51.022h.724a.711.711,0,0,1,.723.461,1.339,1.339,0,0,0,.789.789,3.636,3.636,0,0,0,2.039.329,4.8,4.8,0,0,0,.921-.264.878.878,0,0,0,.592-.921c0-.329-.067-.526-.329-.658a2.328,2.328,0,0,0-.592-.262c-.921-.264-1.908-.461-2.829-.724a5.3,5.3,0,0,1-1.776-.724,3.052,3.052,0,0,1-.264-5,4.539,4.539,0,0,1,1.974-.921,7.424,7.424,0,0,1,4.144.2,5.078,5.078,0,0,1,1.776,1.118,2.542,2.542,0,0,1,.724,1.447c.065.461-.132.659-.592.659H31.853a.631.631,0,0,1-.591-.4,1.42,1.42,0,0,0-.789-.723,3.435,3.435,0,0,0-2.435-.132.987.987,0,0,0-.723.789c-.066.394,0,.658.394.789a3.434,3.434,0,0,0,1.053.394c.921.264,1.908.461,2.829.724a4.408,4.408,0,0,1,1.38.658,2.856,2.856,0,0,1,1.316,2.632,3.062,3.062,0,0,1-1.514,2.7,6.124,6.124,0,0,1-2.3.855,7.524,7.524,0,0,1-3.816-.329,6.094,6.094,0,0,1-1.973-1.183,2.207,2.207,0,0,1-.724-1.513v-.4a.576.576,0,0,1,.592-.526,1.666,1.666,0,0,0,.789.132" transform="translate(5.546 9.936)" fill="#2e5791"/>
    <path id="Path_8717" data-name="Path 8717" d="M5.561,9.583a1.529,1.529,0,0,1,1.052-.855c-.262-.2-.459-.264-.591-.461a5.937,5.937,0,0,1-.4-.658,2.549,2.549,0,0,1-2.3-.725A2.609,2.609,0,0,1,2.6,4.517a.574.574,0,0,1-.4-.2,2.279,2.279,0,0,1-.986-1.841A2.359,2.359,0,0,1,3.654.176,2.308,2.308,0,0,1,5.1.7a.51.51,0,0,0,.526.067A3.116,3.116,0,0,1,7.8.571a2.963,2.963,0,0,1,2.1,2.7v.462a2.214,2.214,0,0,1,2.368,2.5,3.579,3.579,0,0,0,.461-.592,6.408,6.408,0,0,1,.658-.328,1.141,1.141,0,0,0-.131-.33,2.659,2.659,0,0,1,.2-2.235A2.427,2.427,0,0,1,16.02,1.491c.2.065.264,0,.4-.2A2.512,2.512,0,0,1,18.191.044a2.577,2.577,0,0,1,3.091,2.368,2.071,2.071,0,0,1-.789,1.908.485.485,0,0,0-.131.394,2.971,2.971,0,0,1,0,1.513,2.263,2.263,0,0,1-1.908,1.645,2.262,2.262,0,0,1-.659.065h-.329c-.065.264-.065.461-.132.724a2.191,2.191,0,0,1-1.709,1.644,2.981,2.981,0,0,1-2.632-.788A4.008,4.008,0,0,1,11.81,7.412c-.065-.33-.2-.724-.262-1.052a.95.95,0,0,0-.132-.4A2.319,2.319,0,0,0,9.442,4.517h-.2A2.928,2.928,0,0,0,5.3,1.688a6.223,6.223,0,0,0-.986-.4A1.518,1.518,0,0,0,3.127,4.057c.067.065.132.065.2.133,0,.2.065.328.065.525A2.389,2.389,0,0,0,5.561,6.821a5.109,5.109,0,0,0,.986.064A2.561,2.561,0,0,0,8.587,8.729a.593.593,0,0,1-.065.328H8.061a1.873,1.873,0,0,0-1.382.789.642.642,0,0,1-.592.262,4.792,4.792,0,0,0-1.973.4,2.193,2.193,0,0,0-1.382,1.645.705.705,0,0,1-.527.656,1.608,1.608,0,0,0-.986,1.844,1.819,1.819,0,0,0,1.711,1.38,1.6,1.6,0,0,0,1.315-.723,1.432,1.432,0,0,0,.2-.33,3.184,3.184,0,0,0,2.039-.394A2.557,2.557,0,0,0,7.6,12.805a2.122,2.122,0,0,0,2.368-1.972h.461a2.623,2.623,0,0,1-.461,1.972,2.134,2.134,0,0,1-1.842.724A2.382,2.382,0,0,1,7.008,15.5a2.463,2.463,0,0,1-2.3.394c-.065.131-.132.2-.2.328A2.623,2.623,0,0,1,2.93,17.28a2.208,2.208,0,0,1-.921-.066A2.888,2.888,0,0,1,.233,15.7a2.355,2.355,0,0,1,1.183-3.158.655.655,0,0,0,.4-.528A2.664,2.664,0,0,1,3.851,9.583a2.945,2.945,0,0,1,1.315,0h.4m8.551-3.948a3.7,3.7,0,0,0-.526.329A1.876,1.876,0,0,0,12.928,8.2a2.027,2.027,0,0,0,2.3,1.249,1.976,1.976,0,0,0,1.711-1.908v-.2h.264a2.8,2.8,0,0,0,2.433-2.829c0-.2,0-.264.132-.4a1.858,1.858,0,0,0,.394-1.643,1.6,1.6,0,0,0-1.38-1.25,1.436,1.436,0,0,0-1.579.525,3.705,3.705,0,0,1-.4.528,2.734,2.734,0,0,0-2.236.985,2.378,2.378,0,0,0-.461,2.368" transform="translate(0 0)" fill="#2e5791"/>
    <path id="Path_8718" data-name="Path 8718" d="M33.661,46.279h-.592a.631.631,0,0,1-.723-.724v-.723A.621.621,0,0,1,33,44.174H33.6V40.688c.065-.527.329-.856.855-.856h1.315a.76.76,0,0,1,.789.789v3.553h1.974c.461,0,.658.2.658.658v.789a.63.63,0,0,1-.724.723H36.555V51.41a1.941,1.941,0,0,0,.132.855,1.558,1.558,0,0,0,1.447,1.118h.4c.461.065.658.264.658.724v.855a.691.691,0,0,1-.724.724H37.016a3.6,3.6,0,0,1-3.42-3.158c0-.264-.067-.592-.067-.856V46.8a.789.789,0,0,0,.132-.526" transform="translate(7.488 9.221)" fill="#2e5791"/>
    <path id="Path_8719" data-name="Path 8719" d="M38.6,47.673V40.765a.8.8,0,0,1,.2-.658,1.06,1.06,0,0,1,.724-.329h1.315a.882.882,0,0,1,.921.986V54.777a.871.871,0,0,1-.855.856H39.517a.761.761,0,0,1-.789-.791V54.58c-.067-2.3-.067-4.6-.132-6.907" transform="translate(8.934 9.208)" fill="#2e5791"/>
    <path id="Path_8720" data-name="Path 8720" d="M47.667,42.251h-4.6c-.329,0-.461-.2-.461-.526v-.659a.415.415,0,0,1,.461-.459l1.579-.2c.789-.065,1.579-.2,2.368-.262.723-.067,1.512-.132,2.236-.2.789-.065,1.513-.131,2.3-.262.262,0,.526-.067.723-.067a.678.678,0,0,1,.789.724v1.183a.777.777,0,0,1-.723.724H47.667" transform="translate(9.862 9.17)" fill="#2e5791"/>
    <path id="Path_8721" data-name="Path 8721" d="M8.348,5.926c-.132.2-.264.329-.394.526A26.25,26.25,0,0,1,3.875,2.834l.2-.2c.065-.065.132-.065.2-.2A22.864,22.864,0,0,1,8.348,5.926" transform="translate(0.897 0.565)" fill="#2e5791"/>
    <path id="Path_8722" data-name="Path 8722" d="M3.177,11.958c-.132-.132-.2-.264-.264-.329A11.4,11.4,0,0,1,6.466,9.064c.065.131.132.2.2.329a21.634,21.634,0,0,1-3.486,2.565" transform="translate(0.674 2.098)" fill="#2e5791"/>
    <path id="Path_8723" data-name="Path 8723" d="M40.947,22.941c-.132.2-.329.461-.461.658-.065.132-.2.132-.329.132-.526,0-.986.065-1.514.065a4.467,4.467,0,0,0-.92.132,1.565,1.565,0,0,0-.988.592,8.253,8.253,0,0,1-.723.855c-.461.592-.856,1.185-1.316,1.777a1.947,1.947,0,0,0,.789.461,3.53,3.53,0,0,0,2.829-.132,3.911,3.911,0,0,0,1.382-.921c.264-.2.264-.2.592-.065.065,0,.065.065.132.065a.919.919,0,0,1-.2.264,5.715,5.715,0,0,1-2.762,1.841.712.712,0,0,1-.526,0c-.921-.2-1.777-.329-2.7-.526a.933.933,0,0,0-.591.065L29.106,29.98a4.946,4.946,0,0,1-1.711.329H23.909a.5.5,0,0,1-.461-.264,3.994,3.994,0,0,0-.526-.526c.2,0,.262.065.394.065a11.143,11.143,0,0,0,2.96-.065c.329-.066.658-.066.986-.132.067,0,.2-.067.264-.067.264-.131.329-.262.264-.526a4.251,4.251,0,0,0-1.579-1.973.908.908,0,0,0-.724-.067,6.108,6.108,0,0,0-.986.4c-.724.329-1.382.723-2.106,1.118a1.619,1.619,0,0,1-1.447.2,12.013,12.013,0,0,1-2.894-1.118.233.233,0,0,0-.132-.065c.2-.067.394-.2.592-.264a.4.4,0,0,1,.262.065c.461.132.988.264,1.448.4a2.615,2.615,0,0,0,1.579-.132c.92-.461,1.841-.855,2.829-1.315.591-.264,1.183-.461,1.709-.659a.245.245,0,0,0,.2-.065c.329-.065.461.065.658.329.658.921,1.315,1.908,1.973,2.829.2.264.2.264.461.132a13.278,13.278,0,0,0,2.236-.921,6.954,6.954,0,0,0,1.909-1.447c.658-.789,1.38-1.513,2.038-2.3a3.1,3.1,0,0,1,1.842-1.052,15.473,15.473,0,0,1,3.026-.132c.132.132.2.2.264.2" transform="translate(4.149 5.259)" fill="#2e5791"/>
    <path id="Path_8724" data-name="Path 8724" d="M23.638,18.741c0,.065,0,.065-.065.065-.132.2-.264.461-.461.527a2.49,2.49,0,0,1-.724.065,6.4,6.4,0,0,0-1.579.132,2.72,2.72,0,0,0-.658.264.811.811,0,0,0,0,1.447,3.222,3.222,0,0,0,1.25.461,7.151,7.151,0,0,0,2.368-.066c1.118-.262,2.3-.461,3.421-.789h.131a5.961,5.961,0,0,1,.329.659c-.131.065-.2.065-.262.131a32.167,32.167,0,0,1-4.144,1.118,5.5,5.5,0,0,1-3.553-.459,14.2,14.2,0,0,1-1.447-.659,2.86,2.86,0,0,0-2.632.066c-.394.2-.789.461-1.183.658a5.994,5.994,0,0,1-2.238.921,3.261,3.261,0,0,1-1.38,0,2.137,2.137,0,0,0-.4-.2c.329-.2.592-.33.856-.527h.262a1.1,1.1,0,0,0,.658,0,4.779,4.779,0,0,0,1.842-1.118c.264-.2.264-.461,0-.723a3,3,0,0,0-1.053-.724l-.789-.2a4.13,4.13,0,0,0-1.25.2c-.329.132-.329.132-.658-.132.066-.065.066-.132.132-.132a4.946,4.946,0,0,1,.789-.461,2.309,2.309,0,0,1,2.171,0c.394.2.789.461,1.25.659.329.131.658.2.986.329.132,0,.264.065.329,0a2.992,2.992,0,0,1,1.513.131c.723.2.723.2,1.118-.394a3.422,3.422,0,0,1,1.776-1.118,7.493,7.493,0,0,1,2.96-.066.346.346,0,0,1,.329-.065" transform="translate(2.381 4.327)" fill="#2e5791"/>
    <path id="Path_8725" data-name="Path 8725" d="M29.742,27.366a1.948,1.948,0,0,0-.264-.526.9.9,0,0,0,.264-.2c.855-.591,1.711-1.118,2.565-1.709a6.705,6.705,0,0,0,1.908-2.171c.067-.132.067-.2.132-.329a.289.289,0,0,0-.329.065l-3.552,1.776a3.491,3.491,0,0,1-.724.329,5.42,5.42,0,0,1-.986.264,1.064,1.064,0,0,1-1.118-.461c-.066-.132-.2-.262-.264-.394a1.409,1.409,0,0,0-1.053-.658,8.218,8.218,0,0,0-4.341.723l-.789.4a.439.439,0,0,1-.4.065,8.407,8.407,0,0,0-.789-.394A21.207,21.207,0,0,1,27.439,22.1c.067.065.067.2.132.262a6.911,6.911,0,0,0,.658.789,1.236,1.236,0,0,0,1.316.264c.329-.132.723-.264,1.052-.4,1.448-.658,2.9-1.249,4.277-1.973a.8.8,0,0,1,.986.132.71.71,0,0,1-.067.329c-.2.658-.461,1.315-.723,1.973a2.18,2.18,0,0,1-.658.921,14.605,14.605,0,0,1-1.579,1.25c-.856.526-1.645.986-2.5,1.447-.132.066-.329.132-.592.264" transform="translate(4.631 4.847)" fill="#2e5791"/>
    <path id="Path_8726" data-name="Path 8726" d="M21.021,20.418a.918.918,0,0,1,.2-.264A5.2,5.2,0,0,1,24.9,18.379c.2,0,.394-.065.591-.065a8.592,8.592,0,0,1,3.158.262,5.317,5.317,0,0,0,2.039-.065c.592-.2,1.118-.329,1.777-.526.065.2.131.459.2.658l-.067.065a8.632,8.632,0,0,1-2.829,1.053,5.694,5.694,0,0,1-1.052.065c-1.25-.065-2.435-.2-3.685-.329a2.913,2.913,0,0,0-1.315.132,4.348,4.348,0,0,0-1.776.789.632.632,0,0,1-.592.132c-.132-.067-.2-.067-.329-.132" transform="translate(4.866 4.164)" fill="#2e5791"/>
    <path id="Path_8727" data-name="Path 8727" d="M35.014,20.528l-.592-.2a3.485,3.485,0,0,0-1.644-.132,1.182,1.182,0,0,0-.592.264,1.7,1.7,0,0,0-.394.329,4.247,4.247,0,0,1-2.763,1.052,8.722,8.722,0,0,1-2.632-.2c-.132-.065-.2-.065-.262-.264s-.132-.394-.2-.591a1.808,1.808,0,0,1,.592-.066c.592,0,1.25.066,1.842.066a3.581,3.581,0,0,0,2.5-.921,2.328,2.328,0,0,1,1.711-.658,5.78,5.78,0,0,1,2.17.394c.264.066.264.132.264.4v.526" transform="translate(6.004 4.448)" fill="#2e5791"/>
    <path id="Path_8728" data-name="Path 8728" d="M16.8,17.691l-.264-.264.264-.262c.4-.461.789-.988,1.185-1.513a2.521,2.521,0,0,0,.526-1.118.5.5,0,0,1,.526-.4.38.38,0,0,1,.4.4.487.487,0,0,1-.066.329,4.227,4.227,0,0,1-.526.921,8.493,8.493,0,0,1-1.908,1.842c-.066,0-.066,0-.132.065" transform="translate(3.827 3.273)" fill="#2e5791"/>
    <path id="Path_8729" data-name="Path 8729" d="M22.473,10.523a.636.636,0,0,1-.592.592.608.608,0,0,1-.592-.658.589.589,0,0,1,.592-.592.7.7,0,0,1,.592.658" transform="translate(4.928 2.284)" fill="#2e5791"/>
    <path id="Path_8730" data-name="Path 8730" d="M23.648,3.993a.592.592,0,1,1-.592-.592.59.59,0,0,1,.592.592" transform="translate(5.2 0.788)" fill="#2e5791"/>
    <path id="Path_8731" data-name="Path 8731" d="M30.636,5.033a.691.691,0,0,1,.724-.724.783.783,0,0,1,.789.659.746.746,0,0,1-.789.723.643.643,0,0,1-.724-.658" transform="translate(7.092 0.998)" fill="#2e5791"/>
    <path id="Path_8732" data-name="Path 8732" d="M12.43,6.449c-.132-.065-.2-.2-.329-.329a25.477,25.477,0,0,1,3.092-3.947.2.2,0,0,0,.131.065c.066.067.132.067.132.132A11.559,11.559,0,0,1,12.43,6.449" transform="translate(2.801 0.503)" fill="#2e5791"/>
  </g>
</svg>
