<svg id="logo-tata" xmlns="http://www.w3.org/2000/svg" xmlns:xlink="http://www.w3.org/1999/xlink" width="77.861" height="68.783" viewBox="0 0 77.861 68.783">
  <defs>
    <clipPath id="clip-path">
      <rect id="Rectangle_3561" data-name="Rectangle 3561" width="77.861" height="68.783" fill="none"/>
    </clipPath>
  </defs>
  <g id="Group_9996" data-name="Group 9996" transform="translate(0 0)" clip-path="url(#clip-path)">
    <path id="Path_5111" data-name="Path 5111" d="M8.431,12.982c.2-.325.325-.584.519-.909a20.3,20.3,0,0,1,6.294-6.358A33.526,33.526,0,0,1,26.469,1.043,41.292,41.292,0,0,1,32.7.136,48.884,48.884,0,0,1,38.862.071a40.219,40.219,0,0,1,13.5,3.179,25.433,25.433,0,0,1,8.824,6.229,19.091,19.091,0,0,1,2.4,3.439c-.455-.065-.844-.2-1.169-.26-3.049-.584-6.1-1.233-9.148-1.751-2.271-.389-4.543-.649-6.813-.844s-4.543-.324-6.749-.454a2.163,2.163,0,0,0-1.621.454,2.06,2.06,0,0,0-.714,1.753V23.169a12.484,12.484,0,0,0,.065,1.558c.065,4.153.065,8.305.13,12.458a8.868,8.868,0,0,0,.064,1.3c0,.259-.064.324-.324.324H34.968c-.259,0-.324-.129-.324-.324,0-1.363,0-2.79.065-4.153v-.584c.065-4.023.065-7.982.129-12,0-3.049.065-6.1.065-9.084a10.794,10.794,0,0,0-.129-1.426,1.758,1.758,0,0,0-1.948-1.623c-1.428,0-2.854.13-4.216.2-.974.065-1.948.129-2.92.259-1.363.13-2.79.26-4.153.455-1.816.259-3.634.519-5.45.842-2.4.455-4.8.974-7.2,1.428-.259.2-.324.2-.454.2" transform="translate(2.988 0)" fill="#486aae"/>
    <path id="Path_5112" data-name="Path 5112" d="M27.421,10.16a19.825,19.825,0,0,1,2.076.325A2.027,2.027,0,0,1,31.055,12.5a18.023,18.023,0,0,1-.39,3.763c-.519,2.985-1.1,5.9-1.686,8.889-.649,2.985-1.3,5.905-1.946,8.889-.065.26-.2.325-.455.26a32.251,32.251,0,0,1-12.263-5.515A17.914,17.914,0,0,1,8.085,20.8a14.069,14.069,0,0,1-.844-5.9,17.745,17.745,0,0,1,.325-1.816c0-.13.2-.26.324-.325,2.013-.389,4.024-.844,6.035-1.168,1.556-.26,3.114-.454,4.736-.649,1.168-.13,2.335-.26,3.5-.325,1.428-.129,2.854-.194,4.218-.259h1.1c-.065-.13-.065-.13-.065-.2" transform="translate(2.555 3.601)" fill="#486aae"/>
    <path id="Path_5113" data-name="Path 5113" d="M36.807,34.259c-.26-.974-.454-1.881-.649-2.855-.649-3.049-1.363-6.164-1.946-9.213-.519-2.725-.974-5.45-1.428-8.175a13.556,13.556,0,0,1-.065-1.623,2.02,2.02,0,0,1,2.141-2.076,38.869,38.869,0,0,1,3.893,0c.909,0,1.818.13,2.725.2,1.3.129,2.6.194,3.829.389,1.816.2,3.633.454,5.385.779,1.686.26,3.374.649,5.06.974.325.064.39.259.455.519A13.926,13.926,0,0,1,53.547,24.4a22.861,22.861,0,0,1-7.2,6.229A35.722,35.722,0,0,1,37.2,34.194a.816.816,0,0,1-.389.065" transform="translate(11.597 3.639)" fill="#486aae"/>
    <path id="Path_5114" data-name="Path 5114" d="M35.36,55.813H28.287a.454.454,0,0,1-.519-.389c-1.233-3.5-2.4-7.073-3.634-10.577a1.321,1.321,0,0,0-.324-.584c-.065.13-.13.2-.13.324-1.233,3.569-2.465,7.138-3.634,10.707a.581.581,0,0,1-.649.454H12.455c.2-.454.325-.909.52-1.3,2.205-5.839,4.411-11.679,6.683-17.583a.624.624,0,0,1,.649-.455h7.2a.506.506,0,0,1,.585.39c2.4,6.164,4.8,12.393,7.2,18.557a.532.532,0,0,0,.065.454" transform="translate(4.414 12.905)" fill="#486aae"/>
    <path id="Path_5115" data-name="Path 5115" d="M63.463,55.8H56.455a.568.568,0,0,1-.584-.389c-1.233-3.569-2.465-7.138-3.7-10.772a2.252,2.252,0,0,0-.194-.454c-.065.2-.2.324-.2.454-1.233,3.569-2.465,7.138-3.634,10.707-.129.324-.259.454-.584.454H40.623c.2-.584.39-1.1.584-1.623,2.206-5.774,4.348-11.484,6.554-17.258a.624.624,0,0,1,.649-.455h7.2a.569.569,0,0,1,.585.39c2.4,6.164,4.8,12.393,7.2,18.557a.822.822,0,0,0,.065.389" transform="translate(14.398 12.923)" fill="#486aae"/>
    <path id="Path_5116" data-name="Path 5116" d="M9.343,36.508h8.824c.519,0,.519,0,.519.519v4.608c0,.324-.065.454-.454.454H13.884c-.584,0-.584,0-.584.584V55.325c0,.519,0,.519-.519.519H6.034c-.39,0-.455-.13-.455-.455V42.737c0-.584,0-.584-.649-.584H.454c-.389,0-.454-.13-.454-.455V37.027c0-.324.129-.454.454-.454,2.985-.065,5.9-.065,8.889-.065" transform="translate(0 12.94)" fill="#486aae"/>
    <path id="Path_5117" data-name="Path 5117" d="M37.451,36.508h8.824c.519,0,.519,0,.519.519V41.57c0,.519,0,.519-.519.519H41.928c-.519,0-.519,0-.519.519V55.325c0,.519,0,.519-.519.519H34.142c-.325,0-.455-.065-.455-.455V42.607c0-.519,0-.519-.519-.519H28.562c-.325,0-.454-.13-.389-.454V36.9c0-.324.129-.389.454-.389h8.824" transform="translate(9.98 12.94)" fill="#486aae"/>
  </g>
</svg>
