<svg data-name="icon 4" xmlns="http://www.w3.org/2000/svg" width="88.789" height="75.845"><defs><clipPath id="a"><path data-name="Rectangle 20621" fill="none" d="M0 0h88.789v75.845H0z"/></clipPath><clipPath id="b"><path data-name="Rectangle 20618" fill="none" d="M0 0h39.708v19.402H0z"/></clipPath><clipPath id="c"><path data-name="Rectangle 20619" fill="none" d="M0 0h39.708v5.606H0z"/></clipPath></defs><g data-name="Group 52822" clip-path="url(#a)"><path data-name="Path 32183" d="M52.256 21.883v1.7l16.829-3.18v-1.7Z" fill="#ff9f00"/><path data-name="Path 32184" d="m0 23.001 2.989 1.737v-1.7L0 21.305Z" fill="#280a38"/><path data-name="Path 32185" d="M36.9 0 0 21.3l2.989 1.737L58.5 12.554Z" fill="#3264ff"/><path data-name="Path 32186" d="M2.989 23.043v1.7l55.52-10.492v-1.7Z" fill="#00d273"/><path data-name="Path 32187" d="M2.989 23.043v1.7l10.58 6.148v-1.7Z" fill="#280a38"/><path data-name="Path 32188" d="M13.57 29.191v1.7l25.948-4.9v-1.7Z" fill="#ff9f00"/><path data-name="Path 32189" d="m52.256 21.883 12.389 22.2 24.139-13.937-19.7-11.448Z" fill="#00d273"/><path data-name="Path 32190" d="M52.256 21.883v1.7l12.39 22.2v-1.7Z" fill="#a1e1f9"/><path data-name="Path 32191" d="M64.645 44.088v1.7l24.139-13.937v-1.7Z" fill="#3264ff"/><path data-name="Path 32192" d="m2.989 23.043 10.58 6.148 25.949-4.9 14.479 25.947 10.649-6.148-12.389-22.2 16.829-3.18-10.58-6.148Z" fill="#ff9f00"/><path data-name="Path 32193" d="M39.518 24.285v1.7l14.479 25.947v-1.7Z" fill="#ff9f00"/><path data-name="Path 32194" d="m64.645 44.087-10.649 6.148-2.114 1.22v1.7l2.114-1.22 10.649-6.148Z" fill="#3264ff"/><path data-name="Path 32195" d="M13.57 29.191v1.7l38.313 22.265v-1.7Z" fill="#280a38"/><path data-name="Path 32196" d="m13.57 29.191 38.313 22.265 2.114-1.22-14.479-25.951Z" fill="#a1e1f9"/><g data-name="Group 52821"><g data-name="Group 52820" clip-path="url(#a)"><g data-name="Group 52816" opacity=".5"><g data-name="Group 52815"><g data-name="Group 52814" clip-path="url(#b)" transform="translate(4.336 37.919)"><path data-name="Path 32197" d="M39.708 8.961a7.645 7.645 0 0 1-3.061 5.328 24.859 24.859 0 0 1-5.319 3.062 35.653 35.653 0 0 1-11.622 2.051 29.314 29.314 0 0 1-14.5-3.445c-2.907-1.688-4.715-3.772-5.2-5.953a11.357 11.357 0 0 1 5.611-6.9c7.872-4.151 20.672-4.14 28.508.005 3.1 1.65 4.959 3.712 5.589 5.849" fill="#fff"/></g></g></g><g data-name="Group 52819" opacity=".5"><g data-name="Group 52818"><g data-name="Group 52817" clip-path="url(#c)" transform="translate(4.336 45.501)"><path data-name="Path 32198" d="M1.007 0h38.12a6.755 6.755 0 0 1 .585 1.38 6.86 6.86 0 0 1-1.923 4.225H1.714A7.284 7.284 0 0 1 0 2.422 10.072 10.072 0 0 1 1.007 0" fill="#fff"/></g></g></g><path data-name="Path 32199" d="M9.947 38.024c7.872-4.148 20.671-4.141 28.508 0 4.627 2.455 6.506 5.815 5.637 9.006-.586-2.19-2.464-4.308-5.637-5.992-7.836-4.148-20.636-4.157-28.508-.009a11.37 11.37 0 0 0-5.612 6.9c-.887-3.209.923-7.442 5.612-9.906" fill="#280a38"/><path data-name="Path 32200" d="m46.206 46.731.009 3.146a10.642 10.642 0 0 1-1.174 4.8 12.752 12.752 0 0 1-3.575 3.593l-.469-3.338s4.673-5.469 5.209-8.2" fill="#280a38"/><path data-name="Path 32201" d="M38.193 55.509c-2.608 1.023-3.545 1.332-4.5 1.612a33.09 33.09 0 0 1-5.687 1.113 36.492 36.492 0 0 1-10.133-.317 27.525 27.525 0 0 1-9.4-3.36 18.432 18.432 0 0 1-6.419-7.481l.013 2.371c.009 3.394 2.146 6.782 6.417 9.37a24.434 24.434 0 0 0 5.151 2.308 33.7 33.7 0 0 0 10.029 1.584c3.518 0 10.031-.444 14.529-2.8Z" fill="#280a38"/><path data-name="Path 32202" d="M47.196 59.682a7.016 7.016 0 0 0-1.717 3.583 4.651 4.651 0 0 0-.057.7 2.2 2.2 0 0 0 .915 2.014l16.579 9.655A2.2 2.2 0 0 1 62 73.618a6.6 6.6 0 0 1 1.477-3.921 6.052 6.052 0 0 1 1.516-1.414 2.658 2.658 0 0 1 1.91-.474 1.55 1.55 0 0 1 .46.174S50.749 58.309 50.73 58.3c-1.257-.682-2.735.508-3.532 1.383" fill="#3264ff"/><path data-name="Path 32203" d="M65.132 68.2a6.893 6.893 0 0 0-3.129 5.418c.005 1.991 1.409 2.8 3.15 1.795a6.907 6.907 0 0 0 3.129-5.418c-.006-1.99-1.418-2.793-3.149-1.795" fill="#280a38"/><path data-name="Path 32204" d="M46.146 61.223a6.91 6.91 0 0 0-.663 2.042 5.05 5.05 0 0 0-.055.581l-7.232-3.943v-3.015Z" fill="#280a38"/><path data-name="Path 32205" d="M2.053 46.944c.1 3.188 2.224 6.355 6.405 8.786 7.577 4.4 18.253 5.579 29.741 1.17l7.949 4.317a6.857 6.857 0 0 1 2.024-2.421l-6.849-3.7a9.338 9.338 0 0 0 4.882-8.332V46.533a6.134 6.134 0 0 0-.056-.844 2.1 2.1 0 0 0-.043-.3c-.033-.194-.077-.393-.124-.588-.016-.065-.139-.506-.2-.665-.024-.075-.056-.151-.08-.227-.056-.142-.112-.283-.171-.421-.039-.087-.079-.175-.119-.262-.048-.1-.1-.212-.158-.314-.084-.16-.355-.625-.4-.7-.072-.119-.148-.234-.232-.346 0-.011-.887-1.127-.962-1.214-.156-.167-.314-.333-.485-.5s-.363-.359-.561-.53a16.042 16.042 0 0 0-1.735-1.324c-.214-.148-.442-.29-.672-.435-.132-.079-.263-.155-.394-.234-8.592-4.99-22.6-4.99-31.249 0-.139.08-.274.16-.409.24-.259.158-.51.322-.755.485-.124.082-.243.166-.363.25-.239.169-.466.342-.689.515a14.7 14.7 0 0 0-1.217 1.066c-.184.183-.366.37-.534.557s-.326.37-.482.557a9.813 9.813 0 0 0-.807 1.162 8.09 8.09 0 0 0-1.253 4.484m3.108-3.4a7.95 7.95 0 0 1 .617-.882c.131-.164.27-.323.409-.478s.3-.318.446-.461a12.636 12.636 0 0 1 1.034-.911c.191-.152.394-.3.6-.446l.307-.214c.227-.152.461-.3.681-.439.123-.071.253-.147.378-.222a29.7 29.7 0 0 1 14.575-3.455 29.4 29.4 0 0 1 14.493 3.435l.171.1c.063.037.127.072.218.132.2.123.4.247.6.381a13.474 13.474 0 0 1 1.517 1.162c.155.132.3.271.469.442.127.127.251.259.374.389.147.175.7.872.848 1.062.047.072.095.139.134.212.057.084.256.426.323.553.043.08.084.163.115.227s.067.143.1.206c.044.108.087.216.132.327.019.056.039.112.056.16.039.123.127.43.143.489.036.143.067.286.091.43.008.032.016.1.024.128a.518.518 0 0 0 .011.107 4.147 4.147 0 0 1 .037.558v.19c-.033 1.911-1.095 3.8-3.072 5.484a25.18 25.18 0 0 1-5.324 3.06 35.6 35.6 0 0 1-11.631 2.049 29.337 29.337 0 0 1-14.5-3.446c-3.366-1.953-5.264-4.441-5.336-6.995a6.014 6.014 0 0 1 .959-3.336" fill="#f0324e"/></g></g></g></svg>