<svg data-name="icon 2" xmlns="http://www.w3.org/2000/svg" width="74.658" height="81.849"><path data-name="Path 32020" d="m.017 64.384 30.2 17.465.011-3.964L3.446 62.411Z" fill="#280a38"/><path data-name="Path 32021" d="m.017 64.384 3.432-1.972v-34.6L0 25.817Z" fill="#280a38"/><path data-name="Path 32022" d="m30.232 77.885-.011 3.964 44.426-25.817.011-3.964Z" fill="#3264ff"/><path data-name="Path 32023" d="m3.45 62.412 26.78 15.473 44.426-25.818-26.752-15.473Z" fill="#ff9f00"/><path data-name="Path 32024" d="m38.538 61.832 12.3-7.143 8.114 4.685-12.293 7.143Z" fill="#fff"/><path data-name="Path 32025" d="M3.45 27.809 47.875 1.992l.029 34.6L3.45 62.412Z" fill="#3264ff"/><path data-name="Path 32026" d="M5.511 29.535 45.818 6.111l.03 28.907L5.511 58.444Z" fill="#fff"/><path data-name="Path 32027" d="M44.426 0 0 25.817l3.45 1.992L47.876 1.992Z" fill="#fff"/><path data-name="Path 32028" d="M45.716 42.412v1.4l-2.871-1.669v-1.4Z" fill="#280a38"/><path data-name="Path 32029" d="M48.768 40.651v1.4l-3.052 1.762v-1.4Z" fill="#fff"/><path data-name="Path 32030" d="m45.716 42.413-2.871-1.669 3.052-1.762 2.872 1.669Z" fill="#ff9f00"/><path data-name="Path 32031" d="M42.055 44.526v1.4l-2.871-1.669v-1.4Z" fill="#280a38"/><path data-name="Path 32032" d="M45.108 42.764v1.4l-3.052 1.762v-1.4Z" fill="#fff"/><path data-name="Path 32033" d="m42.055 44.521-2.871-1.669 3.052-1.762 2.871 1.669Z" fill="#ff9f00"/><path data-name="Path 32034" d="M38.393 46.64v1.4l-2.871-1.669v-1.4Z" fill="#280a38"/><path data-name="Path 32035" d="M41.445 44.878v1.4l-3.052 1.762v-1.4Z" fill="#fff"/><path data-name="Path 32036" d="m38.393 46.64-2.871-1.669 3.052-1.762 2.872 1.669Z" fill="#ff9f00"/><path data-name="Path 32037" d="M34.731 48.755v1.4l-2.872-1.668v-1.4Z" fill="#280a38"/><path data-name="Path 32038" d="M37.783 46.993v1.4l-3.052 1.762v-1.4Z" fill="#fff"/><path data-name="Path 32039" d="m34.731 48.754-2.871-1.669 3.051-1.765 2.871 1.668Z" fill="#ff9f00"/><path data-name="Path 32040" d="M31.07 50.869v1.4L28.199 50.6v-1.4Z" fill="#280a38"/><path data-name="Path 32041" d="M34.121 49.107v1.4l-3.052 1.762v-1.4Z" fill="#fff"/><path data-name="Path 32042" d="m31.07 50.873-2.871-1.669 3.052-1.762 2.871 1.669Z" fill="#ff9f00"/><path data-name="Path 32043" d="M27.408 52.983v1.4l-2.872-1.668v-1.4Z" fill="#280a38"/><path data-name="Path 32044" d="M30.46 51.221v1.4l-3.052 1.762v-1.4Z" fill="#fff"/><path data-name="Path 32045" d="m27.408 52.983-2.871-1.669 3.052-1.762 2.871 1.672Z" fill="#ff9f00"/><path data-name="Path 32046" d="M23.743 55.097v1.4l-2.872-1.669v-1.4Z" fill="#280a38"/><path data-name="Path 32047" d="M26.797 53.334v1.4l-3.052 1.762v-1.4Z" fill="#fff"/><path data-name="Path 32048" d="m23.743 55.097-2.871-1.669 3.052-1.762 2.871 1.669Z" fill="#ff9f00"/><path data-name="Path 32049" d="M20.085 57.21v1.4l-2.871-1.669v-1.4Z" fill="#280a38"/><path data-name="Path 32050" d="M23.137 55.449v1.4l-3.052 1.762v-1.4Z" fill="#fff"/><path data-name="Path 32051" d="m20.085 57.21-2.872-1.669 3.052-1.762 2.871 1.669Z" fill="#ff9f00"/><path data-name="Path 32052" d="M16.423 59.321v1.4l-2.871-1.669v-1.4Z" fill="#280a38"/><path data-name="Path 32053" d="M19.474 57.563v1.4l-3.052 1.762v-1.4Z" fill="#fff"/><path data-name="Path 32054" d="m16.423 59.325-2.871-1.669 3.052-1.762 2.871 1.669Z" fill="#ff9f00"/><path data-name="Path 32055" d="M12.761 61.439v1.4l-2.867-1.668v-1.4Z" fill="#280a38"/><path data-name="Path 32056" d="M15.813 59.677v1.4l-3.052 1.762v-1.4Z" fill="#fff"/><path data-name="Path 32057" d="m15.813 59.677-3.052 1.762L9.89 59.77l3.052-1.762Z" fill="#ff9f00"/><path data-name="Path 32058" d="M49.194 44.434v1.4l-2.872-1.669v-1.4Z" fill="#280a38"/><path data-name="Path 32059" d="M52.246 42.671v1.4l-3.052 1.762v-1.4Z" fill="#fff"/><path data-name="Path 32060" d="m49.194 44.438-2.872-1.669 3.052-1.762 2.872 1.669Z" fill="#ff9f00"/><path data-name="Path 32061" d="M45.533 46.547v1.4l-2.872-1.669v-1.4Z" fill="#280a38"/><path data-name="Path 32062" d="M48.585 44.785v1.4l-3.052 1.762v-1.4Z" fill="#fff"/><path data-name="Path 32063" d="m45.533 46.548-2.872-1.669 3.052-1.762 2.872 1.669Z" fill="#ff9f00"/><path data-name="Path 32064" d="M41.872 48.662v1.4L39 48.393v-1.4Z" fill="#280a38"/><path data-name="Path 32065" d="M44.92 46.898v1.4l-3.052 1.762v-1.4Z" fill="#fff"/><path data-name="Path 32066" d="M41.872 48.662 39 46.993l3.052-1.762 2.872 1.669Z" fill="#ff9f00"/><path data-name="Path 32067" d="M38.209 50.776v1.4l-2.872-1.669v-1.4Z" fill="#280a38"/><path data-name="Path 32068" d="M41.261 49.014v1.4l-3.052 1.762v-1.4Z" fill="#fff"/><path data-name="Path 32069" d="m38.209 50.776-2.872-1.669 3.052-1.762 2.872 1.669Z" fill="#ff9f00"/><path data-name="Path 32070" d="M34.547 52.89v1.4l-2.869-1.667v-1.4Z" fill="#280a38"/><path data-name="Path 32071" d="M37.599 51.128v1.4l-3.052 1.762v-1.4Z" fill="#fff"/><path data-name="Path 32072" d="m34.547 52.89-2.869-1.669 3.052-1.762 2.872 1.669Z" fill="#ff9f00"/><path data-name="Path 32073" d="M30.886 55.004v1.4l-2.872-1.669v-1.4Z" fill="#280a38"/><path data-name="Path 32074" d="M33.938 53.242v1.4l-3.052 1.762v-1.4Z" fill="#fff"/><path data-name="Path 32075" d="m30.886 55.004-2.872-1.669 3.052-1.762 2.872 1.669Z" fill="#ff9f00"/><path data-name="Path 32076" d="M27.224 57.118v1.4l-2.872-1.669v-1.4Z" fill="#280a38"/><path data-name="Path 32077" d="M30.276 55.357v1.4l-3.052 1.762v-1.4Z" fill="#fff"/><path data-name="Path 32078" d="m27.224 57.117-2.872-1.669 3.052-1.762 2.872 1.669Z" fill="#ff9f00"/><path data-name="Path 32079" d="M23.559 59.232v1.4l-2.872-1.669v-1.4Z" fill="#280a38"/><path data-name="Path 32080" d="M26.615 57.47v1.4l-3.052 1.762v-1.4Z" fill="#fff"/><path data-name="Path 32081" d="m23.559 59.232-2.872-1.669 3.052-1.762 2.872 1.669Z" fill="#ff9f00"/><path data-name="Path 32082" d="M19.901 61.346v1.4l-2.872-1.669v-1.4Z" fill="#280a38"/><path data-name="Path 32083" d="M22.953 59.584v1.4l-3.052 1.762v-1.4Z" fill="#fff"/><path data-name="Path 32084" d="m19.901 61.348-2.872-1.669 3.052-1.762 2.872 1.669Z" fill="#ff9f00"/><path data-name="Path 32085" d="M16.239 63.46v1.4l-2.872-1.669v-1.4Z" fill="#280a38"/><path data-name="Path 32086" d="M19.291 61.698v1.4L16.24 64.86v-1.4Z" fill="#fff"/><path data-name="Path 32087" d="m16.239 63.46-2.872-1.669 3.052-1.762 2.872 1.669Z" fill="#ff9f00"/><path data-name="Path 32088" d="M52.672 46.454v1.4L49.8 46.185v-1.4Z" fill="#280a38"/><path data-name="Path 32089" d="M55.723 44.692v1.4l-3.052 1.762v-1.4Z" fill="#fff"/><path data-name="Path 32090" d="m52.672 46.454-2.871-1.669 3.052-1.762 2.872 1.669Z" fill="#ff9f00"/><path data-name="Path 32091" d="M49.01 48.569v1.4L46.139 48.3v-1.4Z" fill="#280a38"/><path data-name="Path 32092" d="M52.062 46.807v1.4l-3.052 1.762v-1.4Z" fill="#fff"/><path data-name="Path 32093" d="m49.01 48.568-2.871-1.669 3.052-1.762 2.871 1.669Z" fill="#ff9f00"/><path data-name="Path 32094" d="M45.348 50.682v1.4l-2.872-1.669v-1.4Z" fill="#280a38"/><path data-name="Path 32095" d="M48.401 48.921v1.4l-3.052 1.762v-1.4Z" fill="#fff"/><path data-name="Path 32096" d="m45.348 50.682-2.872-1.669 3.052-1.762L48.4 48.92Z" fill="#ff9f00"/><path data-name="Path 32097" d="M41.686 52.797v1.4l-2.872-1.669v-1.4Z" fill="#280a38"/><path data-name="Path 32098" d="M44.74 51.035v1.4l-3.052 1.762v-1.4Z" fill="#fff"/><path data-name="Path 32099" d="m41.686 52.797-2.871-1.669 3.052-1.762 2.872 1.669Z" fill="#ff9f00"/><path data-name="Path 32100" d="M38.025 54.911v1.4l-2.871-1.669v-1.4Z" fill="#280a38"/><path data-name="Path 32101" d="M41.076 53.149v1.4l-3.052 1.762v-1.4Z" fill="#fff"/><path data-name="Path 32102" d="m38.025 54.908-2.872-1.669 3.052-1.762 2.872 1.669Z" fill="#ff9f00"/><path data-name="Path 32103" d="M34.363 57.025v1.4l-2.872-1.669v-1.4Z" fill="#280a38"/><path data-name="Path 32104" d="M37.415 55.263v1.4l-3.052 1.762v-1.4Z" fill="#fff"/><path data-name="Path 32105" d="m34.363 57.025-2.874-1.665 3.052-1.762 2.872 1.669Z" fill="#ff9f00"/><path data-name="Path 32106" d="M30.702 59.138v1.4l-2.872-1.669v-1.4Z" fill="#280a38"/><path data-name="Path 32107" d="M33.753 57.377v1.4l-3.052 1.762v-1.4Z" fill="#fff"/><path data-name="Path 32108" d="m30.702 59.139-2.871-1.669 3.052-1.762 2.872 1.669Z" fill="#ff9f00"/><path data-name="Path 32109" d="M27.043 61.252v1.4l-2.871-1.669v-1.4Z" fill="#280a38"/><path data-name="Path 32110" d="M30.092 59.491v1.4l-3.052 1.762v-1.4Z" fill="#fff"/><path data-name="Path 32111" d="m27.043 61.253-2.872-1.669 3.052-1.762 2.872 1.669Z" fill="#ff9f00"/><path data-name="Path 32112" d="M23.378 63.367v1.4l-2.871-1.669v-1.4Z" fill="#280a38"/><path data-name="Path 32113" d="M26.43 61.605v1.4l-3.052 1.762v-1.4Z" fill="#fff"/><path data-name="Path 32114" d="m23.378 63.366-2.872-1.669 3.052-1.762 2.872 1.669Z" fill="#ff9f00"/><path data-name="Path 32115" d="M19.717 65.481v1.4l-2.872-1.668v-1.4Z" fill="#280a38"/><path data-name="Path 32116" d="M22.768 63.719v1.4l-3.052 1.762v-1.4Z" fill="#fff"/><path data-name="Path 32117" d="m19.717 65.48-2.871-1.669 3.052-1.762 2.872 1.669Z" fill="#ff9f00"/><path data-name="Path 32118" d="M56.149 48.475v1.4l-2.871-1.669v-1.4Z" fill="#280a38"/><path data-name="Path 32119" d="M59.201 46.713v1.4l-3.052 1.762v-1.4Z" fill="#fff"/><path data-name="Path 32120" d="m56.149 48.473-2.871-1.668 3.052-1.762 2.872 1.669Z" fill="#ff9f00"/><path data-name="Path 32121" d="M52.487 50.589v1.4l-2.871-1.669v-1.4Z" fill="#280a38"/><path data-name="Path 32122" d="M55.539 48.827v1.4l-3.052 1.762v-1.4Z" fill="#fff"/><path data-name="Path 32123" d="m52.487 50.589-2.872-1.669 3.05-1.761 2.871 1.668Z" fill="#ff9f00"/><path data-name="Path 32124" d="M48.826 52.704v1.4l-2.871-1.669v-1.4Z" fill="#280a38"/><path data-name="Path 32125" d="M51.877 50.941v1.4l-3.052 1.762v-1.4Z" fill="#fff"/><path data-name="Path 32126" d="m48.826 52.704-2.872-1.669 3.052-1.762 2.872 1.669Z" fill="#ff9f00"/><path data-name="Path 32127" d="M45.164 54.818v1.4l-2.871-1.668v-1.4Z" fill="#280a38"/><path data-name="Path 32128" d="M48.216 53.056v1.4l-3.052 1.762v-1.4Z" fill="#fff"/><path data-name="Path 32129" d="m45.164 54.818-2.871-1.669 3.052-1.762 2.871 1.669Z" fill="#ff9f00"/><path data-name="Path 32130" d="M41.503 56.932v1.4l-2.871-1.669v-1.4Z" fill="#280a38"/><path data-name="Path 32131" d="M44.557 55.17v1.4l-3.052 1.762v-1.4Z" fill="#fff"/><path data-name="Path 32132" d="m41.503 56.932-2.871-1.669 3.052-1.762 2.871 1.669Z" fill="#ff9f00"/><path data-name="Path 32133" d="M37.841 59.045v1.4l-2.865-1.667v-1.4Z" fill="#280a38"/><path data-name="Path 32134" d="M40.893 57.286v1.4l-3.052 1.762v-1.4Z" fill="#fff"/><path data-name="Path 32135" d="m37.841 59.045-2.871-1.669 3.052-1.762 2.871 1.669Z" fill="#ff9f00"/><path data-name="Path 32136" d="M34.179 61.16v1.4l-2.872-1.669v-1.4Z" fill="#280a38"/><path data-name="Path 32137" d="M37.231 59.398v1.4l-3.052 1.762v-1.4Z" fill="#fff"/><path data-name="Path 32138" d="m34.179 61.16-2.875-1.669 3.052-1.762 2.871 1.669Z" fill="#ff9f00"/><path data-name="Path 32139" d="M30.517 63.272v1.4l-2.871-1.669v-1.4Z" fill="#280a38"/><path data-name="Path 32140" d="M33.569 61.512v1.4l-3.052 1.762v-1.4Z" fill="#fff"/><path data-name="Path 32141" d="m30.517 63.273-2.871-1.669 3.052-1.762 2.871 1.669Z" fill="#ff9f00"/><path data-name="Path 32142" d="M26.859 65.388v1.4l-2.871-1.669v-1.4Z" fill="#280a38"/><path data-name="Path 32143" d="M29.908 63.625v1.4l-3.052 1.762v-1.4Z" fill="#fff"/><path data-name="Path 32144" d="m26.859 65.383-2.871-1.669 3.052-1.762 2.871 1.669Z" fill="#ff9f00"/><path data-name="Path 32145" d="M23.194 67.502v1.4l-2.872-1.669v-1.4Z" fill="#280a38"/><path data-name="Path 32146" d="M26.246 65.74v1.4l-3.052 1.762v-1.4Z" fill="#fff"/><path data-name="Path 32147" d="m23.194 67.501-2.871-1.667 3.052-1.762 2.871 1.669Z" fill="#ff9f00"/><path data-name="Path 32148" d="m29.786 24.361-2.064 3.574-4.141 2.391 2.064-3.574Z" fill="#00d273"/><path data-name="Path 32149" d="m27.736 32.692-2.064 3.575-4.141 2.391 2.064-3.575Z" fill="#ff6429"/><path data-name="Path 32150" d="m23.574 27.946.007 2.379.014 4.758-2.064 3.574-.02-7.137Z" fill="#14b4ef"/><path data-name="Path 32151" d="m29.786 24.361.02 7.137-2.064 3.575-.02-7.137Z" fill="#b066ff"/></svg>