<svg xmlns="http://www.w3.org/2000/svg" width="73.091" height="65.702"><g data-name="icon 3"><path data-name="Path 32152" d="m25.244 2.88 1.972-1.146 7.655-.458-1.972 1.146Z" fill="#533b60"/><path data-name="Path 32153" d="M32.898 2.426 34.87 1.28l7.639 4.645-1.972 1.146Z" fill="#fff"/><path data-name="Path 32154" d="m50.18 0-1.972 1.146 7.624 9.8L57.804 9.8Z" fill="#fff"/><path data-name="Path 32155" d="m55.832 10.941 1.972-1.146 7.651.764-1.972 1.146Z" fill="#533b60"/><path data-name="Path 32156" d="m48.208 1.146 7.624 9.8 7.651.764 7.635 6.082-.128 45.125-45.841-26.472.1-33.561 7.655-.458 7.639 4.645Z" fill="#00d273"/><path data-name="Path 32157" d="m63.484 11.705 7.635 6.082 1.972-1.146-7.635-6.082Z" fill="#fff"/><path data-name="Path 32158" d="m71.118 17.787-.128 45.125 1.972-1.146.128-45.125Z" fill="#fff"/><path data-name="Path 32159" d="m16.855 7.127 1.972-1.146 7.635 5.965-1.972 1.146Z" fill="#fff"/><path data-name="Path 32160" d="m24.491 13.091 1.971-1.144 7.658-1.566-1.972 1.146Z" fill="#533b60"/><path data-name="Path 32161" d="m32.15 11.525 1.972-1.146 7.633 6.619-1.972 1.146Z" fill="#fff"/><path data-name="Path 32162" d="m39.781 18.141 1.972-1.146 7.657-1.141L47.438 17Z" fill="#533b60"/><path data-name="Path 32163" d="m47.438 17.003 1.972-1.146 7.635 6.721-1.972 1.146Z" fill="#fff"/><path data-name="Path 32164" d="m55.073 23.725 1.972-1.146 7.647 1.557-1.972 1.146Z" fill="#533b60"/><path data-name="Path 32165" d="m62.72 25.281 1.972-1.146-.11 38.74-1.972 1.146Z" fill="#fff"/><path data-name="Path 32166" d="m62.72 25.281-.11 38.74-45.841-26.464.086-30.428 7.635 5.965 7.658-1.566 7.633 6.619 7.657-1.141 7.635 6.721Z" fill="#b066ff"/><path data-name="Path 32167" d="m8.445 15.572 1.972-1.146 7.634 6.342-1.972 1.146Z" fill="#fff"/><path data-name="Path 32168" d="m16.081 21.914 1.972-1.146 7.656-.815-1.972 1.146Z" fill="#533b60"/><path data-name="Path 32169" d="m23.735 21.099 1.972-1.146 7.633 6.517-1.972 1.146Z" fill="#fff"/><path data-name="Path 32170" d="m31.369 27.616 1.972-1.146 7.662-3.018-1.972 1.148Z" fill="#533b60"/><path data-name="Path 32171" d="m39.031 24.6 1.972-1.146 7.628 8.391-1.972 1.146Z" fill="#fff"/><path data-name="Path 32172" d="m46.659 32.987 1.972-1.146 7.66-2.394-1.972 1.146Z" fill="#533b60"/><path data-name="Path 32173" d="m54.32 30.596 1.972-1.146-.1 33.967-1.972 1.146Z" fill="#fff"/><path data-name="Path 32174" d="m54.319 30.597-.1 33.967L8.381 38.097l.064-22.524 7.634 6.342 7.656-.818 7.633 6.517 7.667-3.017 7.628 8.391Z" fill="#14b4ef"/><path data-name="Path 32175" d="M2.004 26.535.032 27.682l7.657-1.018 1.972-1.146Z" fill="#533b60"/><path data-name="Path 32176" d="m7.689 26.663 1.972-1.146 7.628 8.49-1.977 1.146Z" fill="#fff"/><path data-name="Path 32177" d="m15.316 35.153 1.972-1.146 7.659-1.85-1.972 1.146Z" fill="#533b60"/><path data-name="Path 32178" d="m22.976 33.303 1.972-1.146 7.633 6.593-1.972 1.146Z" fill="#fff"/><path data-name="Path 32179" d="m30.609 39.896 1.972-1.146 7.661-2.527-1.972 1.146Z" fill="#533b60"/><path data-name="Path 32180" d="m45.9 44.819-.059 20.882 1.972-1.146.059-20.882Z" fill="#fff"/><path data-name="Path 32181" d="m38.27 37.369 1.972-1.146 7.631 7.451-1.972 1.146Z" fill="#fff"/><path data-name="Path 32182" d="M.032 27.681 0 39.235l45.841 26.467.059-20.887-7.631-7.451-7.661 2.527-7.633-6.593-7.659 1.85-7.628-8.49Z" fill="#ff6429"/></g></svg>