<svg xmlns="http://www.w3.org/2000/svg" width="56.26" height="75.45"><g data-name="icon 1"><path data-name="Path 32206" d="m21.517 68.178.016 5.707-2.71 1.564-.016-5.707Z" fill="#ff9f00"/><path data-name="Path 32207" d="m18.823 75.449-5.607-3.258-.016-5.708 5.607 3.259Z" fill="#2c073a"/><path data-name="Path 32208" d="m32.355 61.921.016 5.708-2.709 1.564-.016-5.708Z" fill="#ff9f00"/><path data-name="Path 32209" d="m29.662 69.193-5.607-3.259-.016-5.707 5.607 3.258Z" fill="#2c073a"/><path data-name="Path 32210" d="m56.218 23.199.008 3.113-4.966 2.867-.009-3.112Z" fill="#b066ff"/><path data-name="Path 32211" d="m51.251 26.066-5.607-3.258 4.967-2.868 5.608 3.259Z" fill="#c085ff"/><path data-name="Path 32212" d="m56.181 10.746.009 3.114-4.967 2.867-.009-3.114Z" fill="#b066ff"/><path data-name="Path 32213" d="m51.214 13.613-5.607-3.258 4.967-2.868 5.607 3.259Z" fill="#c085ff"/><path data-name="Path 32214" d="m56.252 35.651.008 3.113-4.967 2.865-.009-3.114Z" fill="#b066ff"/><path data-name="Path 32215" d="m51.284 38.518-5.607-3.258 4.966-2.868 5.608 3.259Z" fill="#c085ff"/><path data-name="Path 32216" d="m43.193 55.663.016 5.707-2.71 1.564-.016-5.707Z" fill="#ff9f00"/><path data-name="Path 32217" d="m40.499 62.936-5.607-3.258-.016-5.708 5.607 3.259Z" fill="#2c073a"/><path data-name="Path 32218" d="m47.168 48.606-5.607-3.259-.106-37.186 5.608 3.259Z" fill="#b066ff"/><path data-name="Path 32219" d="m14.805 67.291-.1-34.982 30.444-17.577.1 34.982Z" fill="#fff"/><path data-name="Path 32220" d="m10.548 27.737-5.609-3.259L45.58 1.015l5.608 3.259Z" fill="#ff9f00"/><path data-name="Path 32221" d="M10.549 27.737 51.191 4.273l.132 46.7-8.127 4.692-2.71 1.564-8.127 4.693-2.708 1.564-8.128 4.692-2.709 1.564-8.128 4.693-.026-9.34-.009-3.119-.026-9.34-.009-3.113-.026-9.339-.009-3.119Zm36.618 20.868-.1-37.186L14.7 30.104l.106 37.185 32.363-18.684" fill="#b066ff"/><path data-name="Path 32222" d="m47.066 11.42.1 37.186-1.918 1.108-.1-34.982-30.444 17.577-.006-2.2Z" fill="#2c073a"/><path data-name="Path 32223" d="m10.575 74.434-5.608-3.258-.026-46.7 5.607 3.259Z" fill="#b066ff"/><path data-name="Path 32224" d="M5.677 64.85.069 61.591l4.966-2.868 5.607 3.258Z" fill="#c085ff"/><path data-name="Path 32225" d="M5.686 67.963.078 64.704l-.009-3.113 5.607 3.258Z" fill="#2c073a"/><path data-name="Path 32226" d="m10.645 61.981.009 3.115-4.968 2.867-.009-3.113Z" fill="#ff9f00"/><path data-name="Path 32227" d="M5.643 52.397.035 49.139l4.968-2.868 5.607 3.259Z" fill="#c085ff"/><path data-name="Path 32228" d="M5.652 55.51.044 52.252l-.009-3.113 5.607 3.258Z" fill="#2c073a"/><path data-name="Path 32229" d="m10.61 49.526.009 3.113-4.968 2.867-.009-3.112Z" fill="#ff9f00"/><path data-name="Path 32230" d="M5.607 39.944.002 36.686l4.967-2.868 5.608 3.259Z" fill="#c085ff"/><path data-name="Path 32231" d="m10.575 37.076.008 3.114-4.967 2.868-.009-3.115Z" fill="#ff9f00"/><path data-name="Path 32232" d="M5.616 43.054.009 39.8l-.007-3.114 5.607 3.258Z" fill="#2c073a"/><path data-name="Path 32233" d="m40.334 4.824-5.608-3.259 2.71-1.566 5.607 3.259Z" fill="#c085ff"/><path data-name="Path 32234" d="m40.35 10.531-5.608-3.258-.016-5.708 5.608 3.259Z" fill="#2c073a"/><path data-name="Path 32235" d="m43.044 3.26.016 5.707-2.709 1.564-.016-5.707Z" fill="#b066ff"/><path data-name="Path 32236" d="M29.498 11.08 23.89 7.822l2.709-1.563 5.607 3.258Z" fill="#c085ff"/><path data-name="Path 32237" d="m32.206 9.516.016 5.708-2.708 1.563-.016-5.707Z" fill="#b066ff"/><path data-name="Path 32238" d="m29.514 16.787-5.607-3.258-.017-5.707 5.608 3.258Z" fill="#2c073a"/><path data-name="Path 32239" d="m21.369 15.773.016 5.707-2.709 1.564-.016-5.707Z" fill="#b066ff"/><path data-name="Path 32240" d="m18.661 17.338-5.608-3.259 2.71-1.564 5.607 3.259Z" fill="#c085ff"/><path data-name="Path 32241" d="m18.677 23.044-5.607-3.258-.017-5.708 5.608 3.259Z" fill="#2c073a"/><path data-name="Path 32242" d="M37.61 46.18v-18.4l-2.636 1.52v18.4Z" fill="#2c073a"/><path data-name="Path 32243" d="m28.558 32.883-2.959 1.712-4.611 21.063 2.517-1.452.988-5.185 4.675-2.695 1 4.033 2.672-1.543Zm-3.551 13.442 1.821-9.468 1.821 7.37Z" fill="#2c073a"/></g></svg>