<svg data-name="icon 5" xmlns="http://www.w3.org/2000/svg" width="72.641" height="85.054"><path data-name="Path 32244" d="M44.481 52.058v1.364L41.692 51.8v-1.364Z" fill="#280a38"/><path data-name="Path 32245" d="M47.451 50.344v1.364l-2.969 1.714v-1.364Z" fill="#fff"/><path data-name="Path 32246" d="m44.481 52.058-2.793-1.624 2.97-1.714 2.793 1.624Z" fill="#14b4ef"/><path data-name="Path 32247" d="M40.919 54.116v1.364l-2.793-1.624v-1.365Z" fill="#280a38"/><path data-name="Path 32248" d="M43.887 52.4v1.365l-2.969 1.714v-1.364Z" fill="#fff"/><path data-name="Path 32249" d="m40.919 54.116-2.794-1.625 2.969-1.714 2.793 1.624Z" fill="#14b4ef"/><path data-name="Path 32250" d="M37.356 56.172v1.364l-2.794-1.624v-1.364Z" fill="#280a38"/><path data-name="Path 32251" d="M40.325 54.458v1.364l-2.969 1.714v-1.364Z" fill="#fff"/><path data-name="Path 32252" d="m37.356 56.172-2.794-1.624 2.969-1.714 2.794 1.624Z" fill="#14b4ef"/><path data-name="Path 32253" d="M33.792 58.229v1.364l-2.793-1.623v-1.365Z" fill="#280a38"/><path data-name="Path 32254" d="M36.761 56.514v1.364l-2.97 1.714v-1.364Z" fill="#fff"/><path data-name="Path 32255" d="m33.792 58.229-2.793-1.624 2.969-1.714 2.793 1.624Z" fill="#14b4ef"/><path data-name="Path 32256" d="M30.226 60.287v1.364l-2.793-1.624v-1.364Z" fill="#280a38"/><path data-name="Path 32257" d="M33.199 58.572v1.364l-2.97 1.714v-1.364Z" fill="#fff"/><path data-name="Path 32258" d="m30.226 60.287-2.794-1.624 2.97-1.714 2.793 1.624Z" fill="#14b4ef"/><path data-name="Path 32259" d="M26.667 62.343v1.364l-2.794-1.624v-1.364Z" fill="#280a38"/><path data-name="Path 32260" d="M29.637 60.629v1.364l-2.968 1.714v-1.364Z" fill="#fff"/><path data-name="Path 32261" d="m26.667 62.343-2.794-1.624 2.969-1.714 2.793 1.624Z" fill="#14b4ef"/><path data-name="Path 32262" d="M23.105 64.4v1.364l-2.794-1.624v-1.364Z" fill="#280a38"/><path data-name="Path 32263" d="M26.073 62.681v1.364l-2.969 1.714v-1.364Z" fill="#fff"/><path data-name="Path 32264" d="m23.105 64.4-2.794-1.624 2.97-1.709 2.793 1.624Z" fill="#14b4ef"/><path data-name="Path 32265" d="M19.542 66.459v1.364L16.748 66.2v-1.365Z" fill="#280a38"/><path data-name="Path 32266" d="M22.512 64.742v1.364l-2.969 1.714v-1.364Z" fill="#fff"/><path data-name="Path 32267" d="m19.542 66.456-2.794-1.624 2.969-1.714 2.791 1.624Z" fill="#14b4ef"/><path data-name="Path 32268" d="M15.979 68.514v1.364l-2.794-1.624V66.89Z" fill="#280a38"/><path data-name="Path 32269" d="M18.949 66.8v1.364l-2.969 1.714v-1.364Z" fill="#fff"/><path data-name="Path 32270" d="m15.979 68.514-2.793-1.624 2.969-1.714 2.794 1.624Z" fill="#14b4ef"/><path data-name="Path 32271" d="M12.416 70.571v1.364l-2.793-1.624v-1.364Z" fill="#280a38"/><path data-name="Path 32272" d="M15.387 68.856v1.364l-2.97 1.714V70.57Z" fill="#fff"/><path data-name="Path 32273" d="m15.386 68.857-2.969 1.714-2.794-1.622 2.969-1.714Z" fill="#14b4ef"/><path data-name="Path 32274" d="M47.865 54.025v1.364l-2.794-1.624V52.4Z" fill="#280a38"/><path data-name="Path 32275" d="M50.835 52.311v1.364l-2.969 1.714v-1.364Z" fill="#fff"/><path data-name="Path 32276" d="m47.865 54.022-2.794-1.625 2.969-1.714 2.8 1.625Z" fill="#14b4ef"/><path data-name="Path 32277" d="M44.302 56.082v1.364l-2.794-1.624v-1.364Z" fill="#280a38"/><path data-name="Path 32278" d="M47.272 54.367v1.364l-2.969 1.714v-1.364Z" fill="#fff"/><path data-name="Path 32279" d="m44.302 56.082-2.794-1.624 2.97-1.714 2.794 1.624Z" fill="#14b4ef"/><path data-name="Path 32280" d="M40.739 58.138v1.364l-2.794-1.624v-1.364Z" fill="#280a38"/><path data-name="Path 32281" d="M43.709 56.42v1.364l-2.97 1.714v-1.364Z" fill="#fff"/><path data-name="Path 32282" d="m40.739 58.138-2.794-1.624 2.969-1.714 2.794 1.624Z" fill="#14b4ef"/><path data-name="Path 32283" d="M37.177 60.196v1.364l-2.794-1.624v-1.364Z" fill="#280a38"/><path data-name="Path 32284" d="M40.145 58.482v1.364l-2.969 1.714v-1.364Z" fill="#fff"/><path data-name="Path 32285" d="m37.177 60.196-2.794-1.624 2.969-1.715 2.794 1.625Z" fill="#14b4ef"/><path data-name="Path 32286" d="M33.614 62.253v1.364l-2.794-1.624v-1.364Z" fill="#280a38"/><path data-name="Path 32287" d="M36.584 60.538v1.364l-2.97 1.714v-1.364Z" fill="#fff"/><path data-name="Path 32288" d="m33.614 62.253-2.794-1.624 2.97-1.714 2.794 1.624Z" fill="#14b4ef"/><path data-name="Path 32289" d="M30.047 64.309v1.365l-2.794-1.625v-1.364Z" fill="#280a38"/><path data-name="Path 32290" d="M33.021 62.595v1.364l-2.97 1.715v-1.365Z" fill="#fff"/><path data-name="Path 32291" d="m30.047 64.309-2.79-1.622 2.969-1.714 2.794 1.624Z" fill="#14b4ef"/><path data-name="Path 32292" d="M26.488 66.367v1.364l-2.794-1.625v-1.364Z" fill="#280a38"/><path data-name="Path 32293" d="M29.459 64.652v1.365l-2.969 1.714v-1.364Z" fill="#fff"/><path data-name="Path 32294" d="m26.488 66.367-2.794-1.625 2.969-1.714 2.794 1.624Z" fill="#14b4ef"/><path data-name="Path 32295" d="M22.925 68.424v1.364l-2.794-1.624V66.8Z" fill="#280a38"/><path data-name="Path 32296" d="M25.895 66.709v1.364l-2.969 1.712v-1.364Z" fill="#fff"/><path data-name="Path 32297" d="M22.925 68.424 20.131 66.8l2.97-1.719 2.794 1.625Z" fill="#14b4ef"/><path data-name="Path 32298" d="M19.364 70.48v1.364L16.57 70.22v-1.364Z" fill="#280a38"/><path data-name="Path 32299" d="M22.332 68.766v1.364l-2.969 1.714V70.48Z" fill="#fff"/><path data-name="Path 32300" d="m19.364 70.48-2.8-1.624 2.97-1.714 2.795 1.626Z" fill="#14b4ef"/><path data-name="Path 32301" d="M15.8 72.537v1.365L13 72.278v-1.364Z" fill="#280a38"/><path data-name="Path 32302" d="M18.77 70.822v1.365l-2.968 1.714v-1.365Z" fill="#fff"/><path data-name="Path 32303" d="m15.8 72.537-2.794-1.624 2.969-1.714 2.794 1.624Z" fill="#14b4ef"/><path data-name="Path 32304" d="M51.249 55.991v1.364l-2.794-1.624v-1.364Z" fill="#280a38"/><path data-name="Path 32305" d="M54.218 54.277v1.364l-2.969 1.714v-1.364Z" fill="#fff"/><path data-name="Path 32306" d="m51.249 55.991-2.794-1.624 2.969-1.714 2.794 1.624Z" fill="#14b4ef"/><path data-name="Path 32307" d="M47.686 58.048v1.364l-2.794-1.624v-1.364Z" fill="#280a38"/><path data-name="Path 32308" d="M50.656 56.338v1.364l-2.969 1.714v-1.364Z" fill="#fff"/><path data-name="Path 32309" d="m47.686 58.048-2.794-1.622 2.97-1.714 2.793 1.624Z" fill="#14b4ef"/><path data-name="Path 32310" d="M44.123 60.106v1.364l-2.794-1.625v-1.364Z" fill="#280a38"/><path data-name="Path 32311" d="M47.092 58.39v1.365l-2.969 1.714v-1.364Z" fill="#fff"/><path data-name="Path 32312" d="m44.123 60.105-2.794-1.625 2.97-1.713 2.794 1.623Z" fill="#14b4ef"/><path data-name="Path 32313" d="M40.56 62.162v1.364l-2.794-1.624v-1.364Z" fill="#280a38"/><path data-name="Path 32314" d="M43.53 60.448v1.364l-2.968 1.714v-1.364Z" fill="#fff"/><path data-name="Path 32315" d="m40.56 62.162-2.794-1.624 2.969-1.714 2.794 1.624Z" fill="#14b4ef"/><path data-name="Path 32316" d="M36.997 64.219v1.364l-2.794-1.624v-1.364Z" fill="#280a38"/><path data-name="Path 32317" d="M39.967 62.504v1.364l-2.97 1.714v-1.364Z" fill="#fff"/><path data-name="Path 32318" d="m36.997 64.219-2.794-1.624 2.97-1.714 2.794 1.624Z" fill="#14b4ef"/><path data-name="Path 32319" d="M33.435 66.277v1.364l-2.794-1.624v-1.365Z" fill="#280a38"/><path data-name="Path 32320" d="M36.404 64.561v1.365l-2.969 1.714v-1.364Z" fill="#fff"/><path data-name="Path 32321" d="m33.435 66.276-2.794-1.625 2.969-1.714 2.794 1.624Z" fill="#14b4ef"/><path data-name="Path 32322" d="M29.868 68.333v1.364l-2.794-1.624v-1.364Z" fill="#280a38"/><path data-name="Path 32323" d="M32.842 66.618v1.364l-2.97 1.714v-1.364Z" fill="#fff"/><path data-name="Path 32324" d="m29.868 68.333-2.794-1.624 2.969-1.714 2.794 1.624Z" fill="#14b4ef"/><path data-name="Path 32325" d="M26.309 70.39v1.364l-2.794-1.624v-1.364Z" fill="#280a38"/><path data-name="Path 32326" d="M29.278 68.675v1.364l-2.969 1.714v-1.364Z" fill="#fff"/><path data-name="Path 32327" d="m26.309 70.388-2.793-1.624 2.969-1.714 2.794 1.624Z" fill="#14b4ef"/><path data-name="Path 32328" d="M22.746 72.446v1.364l-2.793-1.622v-1.365Z" fill="#280a38"/><path data-name="Path 32329" d="M25.716 70.732v1.364l-2.969 1.714v-1.364Z" fill="#fff"/><path data-name="Path 32330" d="m22.746 72.446-2.793-1.624 2.968-1.714 2.794 1.624Z" fill="#14b4ef"/><path data-name="Path 32331" d="M19.183 74.504v1.364l-2.793-1.624V72.88Z" fill="#280a38"/><path data-name="Path 32332" d="M22.154 72.788v1.365l-2.969 1.714v-1.364Z" fill="#fff"/><path data-name="Path 32333" d="M19.183 74.504 16.39 72.88l2.969-1.714 2.794 1.623Z" fill="#14b4ef"/><path data-name="Path 32334" d="M54.632 57.957v1.364l-2.793-1.624v-1.364Z" fill="#280a38"/><path data-name="Path 32335" d="M57.602 56.243v1.364l-2.97 1.714v-1.364Z" fill="#fff"/><path data-name="Path 32336" d="m54.632 57.957-2.794-1.624 2.97-1.714 2.79 1.626Z" fill="#14b4ef"/><path data-name="Path 32337" d="M51.07 60.014v1.365l-2.794-1.624V58.39Z" fill="#280a38"/><path data-name="Path 32338" d="M54.038 58.299v1.364l-2.968 1.715v-1.365Z" fill="#fff"/><path data-name="Path 32339" d="m51.07 60.014-2.794-1.624 2.97-1.714 2.793 1.624Z" fill="#14b4ef"/><path data-name="Path 32340" d="M47.507 62.072v1.364l-2.794-1.624v-1.364Z" fill="#280a38"/><path data-name="Path 32341" d="M50.477 60.357v1.364l-2.968 1.714v-1.364Z" fill="#fff"/><path data-name="Path 32342" d="m47.507 62.071-2.794-1.624 2.97-1.714 2.794 1.624Z" fill="#14b4ef"/><path data-name="Path 32343" d="M43.943 64.128v1.364l-2.793-1.624v-1.364Z" fill="#280a38"/><path data-name="Path 32344" d="M46.913 62.414v1.364l-2.969 1.714v-1.364Z" fill="#fff"/><path data-name="Path 32345" d="m43.943 64.126-2.793-1.624 2.97-1.714 2.793 1.624Z" fill="#14b4ef"/><path data-name="Path 32346" d="M40.381 66.186v1.364l-2.793-1.624v-1.365Z" fill="#280a38"/><path data-name="Path 32347" d="M43.35 64.471v1.364l-2.969 1.714v-1.364Z" fill="#fff"/><path data-name="Path 32348" d="m40.381 66.186-2.794-1.625 2.97-1.714 2.793 1.625Z" fill="#14b4ef"/><path data-name="Path 32349" d="M36.818 68.242v1.364l-2.794-1.624v-1.364Z" fill="#280a38"/><path data-name="Path 32350" d="m39.787 66.524.005 1.364-2.97 1.714v-1.364Z" fill="#fff"/><path data-name="Path 32351" d="m36.818 68.242-2.794-1.624 2.969-1.714 2.793 1.624Z" fill="#14b4ef"/><path data-name="Path 32352" d="M33.255 70.301v1.364l-2.794-1.626v-1.364Z" fill="#280a38"/><path data-name="Path 32353" d="M36.225 68.585v1.364l-2.969 1.714v-1.364Z" fill="#fff"/><path data-name="Path 32354" d="m33.255 70.299-2.794-1.624 2.969-1.714 2.794 1.624Z" fill="#14b4ef"/><path data-name="Path 32355" d="M29.693 72.356v1.364l-2.794-1.624v-1.364Z" fill="#280a38"/><path data-name="Path 32356" d="M32.662 70.641v1.364l-2.969 1.714v-1.364Z" fill="#fff"/><path data-name="Path 32357" d="M29.693 72.356 26.9 70.732l2.969-1.714 2.794 1.624Z" fill="#14b4ef"/><path data-name="Path 32358" d="M26.13 74.413v1.364l-2.793-1.624v-1.365Z" fill="#280a38"/><path data-name="Path 32359" d="M29.099 72.699v1.364l-2.969 1.714v-1.364Z" fill="#fff"/><path data-name="Path 32360" d="m26.13 74.413-2.793-1.625 2.969-1.714 2.794 1.625Z" fill="#14b4ef"/><path data-name="Path 32361" d="M22.567 76.47v1.364l-2.793-1.624v-1.364Z" fill="#280a38"/><path data-name="Path 32362" d="M25.536 74.756v1.364l-2.969 1.714V76.47Z" fill="#fff"/><path data-name="Path 32363" d="m22.567 76.47-2.793-1.624 2.969-1.714 2.793 1.624Z" fill="#14b4ef"/><path data-name="Path 32364" d="m28.982 34.49-2.008 3.478-4.029 2.325 2.008-3.477Z" fill="#00d273"/><path data-name="Path 32365" d="m26.987 42.601-2.008 3.478-4.029 2.326 2.008-3.478Z" fill="#ff6429"/><path data-name="Path 32366" d="m22.938 37.983.007 2.314.013 4.63-2.008 3.478-.02-6.944Z" fill="#14b4ef"/><path data-name="Path 32367" d="m28.981 34.49.02 6.944-2.008 3.478-.02-6.944Z" fill="#b066ff"/><path data-name="Path 32368" d="m3.357 66.141 26.058 15.056-.011 3.857L.017 68.06Z" fill="#280a38"/><path data-name="Path 32369" d="M3.357 32.474v33.667L.017 68.06 0 30.536Z" fill="#280a38"/><path data-name="Path 32370" d="m29.415 81.196 43.225-25.12-.011 3.857-43.225 25.12Z" fill="#b066ff"/><path data-name="Path 32371" d="m3.357 66.141 43.253-25.12 26.027 15.056-43.225 25.12Z" fill="#14b4ef"/><path data-name="Path 32372" d="m37.498 65.575 11.967-6.949 7.9 4.558-11.96 6.949Z" fill="#fff"/><path data-name="Path 32373" d="m3.357 32.474 43.226-25.12.028 33.667-43.254 25.12Z" fill="#b066ff"/><path data-name="Path 32374" d="m5.361 34.152 39.218-22.79.025 28.126L5.361 62.282Z" fill="#fff"/><path data-name="Path 32375" d="M0 30.536 43.225 5.412l3.357 1.938L3.357 32.474Z" fill="#fff"/><path data-name="Path 32376" d="M44.481 46.683v1.364l-2.789-1.622v-1.364Z" fill="#280a38"/><path data-name="Path 32377" d="M47.451 44.968v1.364l-2.969 1.714v-1.364Z" fill="#fff"/><path data-name="Path 32378" d="m44.481 46.682-2.793-1.624 2.97-1.714 2.793 1.624Z" fill="#14b4ef"/><path data-name="Path 32379" d="M40.919 48.74v1.364l-2.793-1.624v-1.365Z" fill="#280a38"/><path data-name="Path 32380" d="M43.887 47.025v1.365l-2.969 1.714V48.74Z" fill="#fff"/><path data-name="Path 32381" d="m40.919 48.74-2.794-1.625 2.969-1.714 2.793 1.624Z" fill="#14b4ef"/><path data-name="Path 32382" d="M37.356 50.797v1.364l-2.794-1.624v-1.364Z" fill="#280a38"/><path data-name="Path 32383" d="M40.325 49.082v1.364l-2.969 1.714v-1.364Z" fill="#fff"/><path data-name="Path 32384" d="m37.356 50.797-2.794-1.624 2.969-1.714 2.794 1.624Z" fill="#14b4ef"/><path data-name="Path 32385" d="M33.792 52.853v1.364l-2.793-1.623v-1.365Z" fill="#280a38"/><path data-name="Path 32386" d="M36.761 51.139v1.364l-2.97 1.714v-1.364Z" fill="#fff"/><path data-name="Path 32387" d="m33.792 52.853-2.793-1.624 2.969-1.714 2.793 1.624Z" fill="#14b4ef"/><path data-name="Path 32388" d="M30.226 54.911v1.364l-2.793-1.624v-1.364Z" fill="#280a38"/><path data-name="Path 32389" d="M33.199 53.197v1.364l-2.97 1.714v-1.364Z" fill="#fff"/><path data-name="Path 32390" d="m30.226 54.911-2.794-1.624 2.97-1.714 2.793 1.624Z" fill="#14b4ef"/><path data-name="Path 32391" d="M26.667 56.968v1.364l-2.794-1.624v-1.364Z" fill="#280a38"/><path data-name="Path 32392" d="M29.637 55.253v1.364l-2.968 1.714v-1.364Z" fill="#fff"/><path data-name="Path 32393" d="m26.667 56.968-2.794-1.624 2.969-1.714 2.793 1.624Z" fill="#14b4ef"/><path data-name="Path 32394" d="M23.105 59.024v1.364l-2.794-1.624V57.4Z" fill="#280a38"/><path data-name="Path 32395" d="M26.073 57.306v1.364l-2.969 1.714V59.02Z" fill="#fff"/><path data-name="Path 32396" d="M23.105 59.024 20.311 57.4l2.97-1.709 2.793 1.624Z" fill="#14b4ef"/><path data-name="Path 32397" d="M19.542 61.083v1.364l-2.794-1.623v-1.365Z" fill="#280a38"/><path data-name="Path 32398" d="M22.512 59.367v1.364l-2.969 1.714v-1.364Z" fill="#fff"/><path data-name="Path 32399" d="m19.542 61.081-2.794-1.624 2.969-1.714 2.791 1.624Z" fill="#14b4ef"/><path data-name="Path 32400" d="M15.979 63.139v1.364l-2.794-1.624v-1.364Z" fill="#280a38"/><path data-name="Path 32401" d="M18.949 61.424v1.364l-2.969 1.714v-1.364Z" fill="#fff"/><path data-name="Path 32402" d="m15.979 63.138-2.793-1.624 2.969-1.714 2.794 1.624Z" fill="#14b4ef"/><path data-name="Path 32403" d="M12.416 65.195v1.364l-2.793-1.624v-1.364Z" fill="#280a38"/><path data-name="Path 32404" d="M15.387 63.481v1.364l-2.97 1.714v-1.364Z" fill="#fff"/><path data-name="Path 32405" d="m15.386 63.481-2.969 1.714-2.794-1.622 2.969-1.714Z" fill="#14b4ef"/><path data-name="Path 32406" d="M47.865 48.65v1.364l-2.794-1.624v-1.365Z" fill="#280a38"/><path data-name="Path 32407" d="M50.835 46.935v1.364l-2.969 1.714v-1.364Z" fill="#fff"/><path data-name="Path 32408" d="m47.865 48.646-2.794-1.625 2.969-1.714 2.8 1.625Z" fill="#14b4ef"/><path data-name="Path 32409" d="M44.302 50.706v1.364l-2.794-1.624v-1.364Z" fill="#280a38"/><path data-name="Path 32410" d="M47.272 48.992v1.364l-2.969 1.714v-1.364Z" fill="#fff"/><path data-name="Path 32411" d="m44.302 50.706-2.794-1.624 2.97-1.714 2.794 1.624Z" fill="#14b4ef"/><path data-name="Path 32412" d="M40.739 52.763v1.364l-2.794-1.624v-1.364Z" fill="#280a38"/><path data-name="Path 32413" d="M43.709 51.044v1.364l-2.97 1.714v-1.364Z" fill="#fff"/><path data-name="Path 32414" d="m40.739 52.763-2.794-1.624 2.969-1.714 2.794 1.624Z" fill="#14b4ef"/><path data-name="Path 32415" d="M37.177 54.821v1.364l-2.794-1.624v-1.364Z" fill="#280a38"/><path data-name="Path 32416" d="M40.145 53.106v1.364l-2.969 1.714V54.82Z" fill="#fff"/><path data-name="Path 32417" d="m37.177 54.82-2.794-1.624 2.969-1.715 2.794 1.625Z" fill="#14b4ef"/><path data-name="Path 32418" d="M33.614 56.877v1.364l-2.794-1.624v-1.364Z" fill="#280a38"/><path data-name="Path 32419" d="M36.584 55.163v1.364l-2.97 1.714v-1.364Z" fill="#fff"/><path data-name="Path 32420" d="m33.614 56.877-2.794-1.624 2.97-1.714 2.794 1.624Z" fill="#14b4ef"/><path data-name="Path 32421" d="M30.047 58.934v1.365l-2.794-1.625V57.31Z" fill="#280a38"/><path data-name="Path 32422" d="M33.021 57.219v1.364l-2.97 1.715v-1.365Z" fill="#fff"/><path data-name="Path 32423" d="m30.047 58.934-2.79-1.622 2.969-1.714 2.794 1.624Z" fill="#14b4ef"/><path data-name="Path 32424" d="M26.488 60.992v1.364l-2.794-1.625v-1.364Z" fill="#280a38"/><path data-name="Path 32425" d="M29.459 59.276v1.365l-2.969 1.714v-1.364Z" fill="#fff"/><path data-name="Path 32426" d="m26.488 60.992-2.794-1.625 2.969-1.714 2.794 1.624Z" fill="#14b4ef"/><path data-name="Path 32427" d="M22.925 63.048v1.364l-2.794-1.624v-1.364Z" fill="#280a38"/><path data-name="Path 32428" d="M25.895 61.334v1.364l-2.969 1.712v-1.364Z" fill="#fff"/><path data-name="Path 32429" d="m22.925 63.048-2.794-1.624 2.97-1.719 2.794 1.625Z" fill="#14b4ef"/><path data-name="Path 32430" d="M19.364 65.105v1.364l-2.794-1.624v-1.364Z" fill="#280a38"/><path data-name="Path 32431" d="M22.332 63.39v1.364l-2.969 1.714v-1.364Z" fill="#fff"/><path data-name="Path 32432" d="m19.364 65.105-2.8-1.624 2.97-1.714 2.795 1.626Z" fill="#14b4ef"/><path data-name="Path 32433" d="M15.8 67.162v1.365L13 66.902v-1.364Z" fill="#280a38"/><path data-name="Path 32434" d="M18.77 65.447v1.365l-2.968 1.714v-1.365Z" fill="#fff"/><path data-name="Path 32435" d="m15.8 67.161-2.794-1.624 2.969-1.714 2.794 1.624Z" fill="#14b4ef"/><path data-name="Path 32436" d="M51.249 50.616v1.364l-2.794-1.624v-1.364Z" fill="#280a38"/><path data-name="Path 32437" d="M54.218 48.901v1.364l-2.969 1.714v-1.364Z" fill="#fff"/><path data-name="Path 32438" d="m51.249 50.615-2.794-1.624 2.969-1.714 2.794 1.624Z" fill="#14b4ef"/><path data-name="Path 32439" d="M47.686 52.672v1.364l-2.794-1.624v-1.364Z" fill="#280a38"/><path data-name="Path 32440" d="M50.656 50.963v1.364l-2.969 1.714v-1.364Z" fill="#fff"/><path data-name="Path 32441" d="m47.686 52.672-2.794-1.622 2.97-1.714 2.793 1.624Z" fill="#14b4ef"/><path data-name="Path 32442" d="M44.123 54.73v1.364l-2.794-1.625v-1.364Z" fill="#280a38"/><path data-name="Path 32443" d="M47.092 53.014v1.365l-2.969 1.714v-1.364Z" fill="#fff"/><path data-name="Path 32444" d="m44.123 54.73-2.794-1.625 2.97-1.713 2.794 1.622Z" fill="#14b4ef"/><path data-name="Path 32445" d="M40.56 56.787v1.364l-2.794-1.624v-1.364Z" fill="#280a38"/><path data-name="Path 32446" d="M43.53 55.072v1.364l-2.968 1.714v-1.364Z" fill="#fff"/><path data-name="Path 32447" d="m40.56 56.786-2.794-1.624 2.969-1.714 2.794 1.624Z" fill="#14b4ef"/><path data-name="Path 32448" d="M36.997 58.843v1.364l-2.794-1.624v-1.364Z" fill="#280a38"/><path data-name="Path 32449" d="M39.967 57.129v1.364l-2.97 1.714v-1.364Z" fill="#fff"/><path data-name="Path 32450" d="m36.997 58.843-2.794-1.624 2.97-1.714 2.794 1.624Z" fill="#14b4ef"/><path data-name="Path 32451" d="M33.435 60.901v1.364l-2.794-1.624v-1.365Z" fill="#280a38"/><path data-name="Path 32452" d="M36.404 59.185v1.365l-2.969 1.714V60.9Z" fill="#fff"/><path data-name="Path 32453" d="m33.435 60.901-2.794-1.625 2.969-1.714 2.794 1.624Z" fill="#14b4ef"/><path data-name="Path 32454" d="M29.868 62.958v1.364l-2.794-1.624v-1.364Z" fill="#280a38"/><path data-name="Path 32455" d="M32.842 61.243v1.364l-2.97 1.714v-1.364Z" fill="#fff"/><path data-name="Path 32456" d="m29.868 62.957-2.794-1.624 2.969-1.714 2.794 1.624Z" fill="#14b4ef"/><path data-name="Path 32457" d="M26.309 65.014v1.364l-2.794-1.624V63.39Z" fill="#280a38"/><path data-name="Path 32458" d="M29.278 63.3v1.364l-2.969 1.714v-1.364Z" fill="#fff"/><path data-name="Path 32459" d="m26.309 65.012-2.793-1.624 2.969-1.714 2.794 1.624Z" fill="#14b4ef"/><path data-name="Path 32460" d="M22.746 67.071v1.364l-2.793-1.623v-1.365Z" fill="#280a38"/><path data-name="Path 32461" d="M25.716 65.356v1.364l-2.969 1.714V67.07Z" fill="#fff"/><path data-name="Path 32462" d="m22.746 67.071-2.793-1.624 2.968-1.714 2.794 1.624Z" fill="#14b4ef"/><path data-name="Path 32463" d="M19.183 69.128v1.364l-2.793-1.624v-1.364Z" fill="#280a38"/><path data-name="Path 32464" d="M22.154 67.413v1.365l-2.969 1.714v-1.364Z" fill="#fff"/><path data-name="Path 32465" d="m19.183 69.128-2.793-1.624 2.969-1.714 2.794 1.623Z" fill="#14b4ef"/><path data-name="Path 32466" d="M54.632 52.582v1.364l-2.793-1.624v-1.364Z" fill="#280a38"/><path data-name="Path 32467" d="M57.602 50.867v1.364l-2.97 1.714v-1.364Z" fill="#fff"/><path data-name="Path 32468" d="m54.632 52.581-2.794-1.624 2.97-1.714 2.79 1.626Z" fill="#14b4ef"/><path data-name="Path 32469" d="M51.07 54.638v1.365l-2.794-1.624v-1.365Z" fill="#280a38"/><path data-name="Path 32470" d="M54.038 52.924v1.364l-2.968 1.715v-1.365Z" fill="#fff"/><path data-name="Path 32471" d="m51.07 54.638-2.794-1.624 2.97-1.714 2.793 1.624Z" fill="#14b4ef"/><path data-name="Path 32472" d="M47.507 56.696v1.364l-2.794-1.624v-1.364Z" fill="#280a38"/><path data-name="Path 32473" d="M50.477 54.981v1.364l-2.968 1.714v-1.364Z" fill="#fff"/><path data-name="Path 32474" d="m47.507 56.696-2.794-1.624 2.97-1.714 2.794 1.624Z" fill="#14b4ef"/><path data-name="Path 32475" d="M43.943 58.753v1.364l-2.793-1.624v-1.364Z" fill="#280a38"/><path data-name="Path 32476" d="M46.913 57.038v1.364l-2.969 1.714v-1.364Z" fill="#fff"/><path data-name="Path 32477" d="m43.943 58.751-2.793-1.624 2.97-1.714 2.793 1.624Z" fill="#14b4ef"/><path data-name="Path 32478" d="M40.381 60.81v1.364l-2.793-1.624v-1.365Z" fill="#280a38"/><path data-name="Path 32479" d="M43.35 59.096v1.364l-2.969 1.714V60.81Z" fill="#fff"/><path data-name="Path 32480" d="m40.381 60.81-2.794-1.625 2.97-1.714 2.793 1.625Z" fill="#14b4ef"/><path data-name="Path 32481" d="M36.818 62.867v1.364l-2.794-1.624v-1.364Z" fill="#280a38"/><path data-name="Path 32482" d="m39.787 61.148.005 1.364-2.97 1.714v-1.364Z" fill="#fff"/><path data-name="Path 32483" d="m36.818 62.867-2.794-1.624 2.969-1.714 2.793 1.624Z" fill="#14b4ef"/><path data-name="Path 32484" d="M33.255 64.926v1.364l-2.794-1.626V63.3Z" fill="#280a38"/><path data-name="Path 32485" d="M36.225 63.209v1.364l-2.969 1.714v-1.364Z" fill="#fff"/><path data-name="Path 32486" d="m33.255 64.923-2.794-1.624 2.969-1.714 2.794 1.624Z" fill="#14b4ef"/><path data-name="Path 32487" d="M29.693 66.98v1.364l-2.794-1.624v-1.364Z" fill="#280a38"/><path data-name="Path 32488" d="M32.662 65.266v1.364l-2.969 1.714V66.98Z" fill="#fff"/><path data-name="Path 32489" d="M29.693 66.98 26.9 65.356l2.969-1.714 2.794 1.624Z" fill="#14b4ef"/><path data-name="Path 32490" d="M26.13 69.038v1.364l-2.793-1.624v-1.365Z" fill="#280a38"/><path data-name="Path 32491" d="M29.099 67.323v1.364l-2.969 1.714v-1.364Z" fill="#fff"/><path data-name="Path 32492" d="m26.13 69.038-2.793-1.625 2.969-1.714 2.794 1.625Z" fill="#14b4ef"/><path data-name="Path 32493" d="M22.567 71.095v1.364l-2.793-1.624v-1.364Z" fill="#280a38"/><path data-name="Path 32494" d="M25.536 69.38v1.364l-2.969 1.714v-1.364Z" fill="#fff"/><path data-name="Path 32495" d="m22.567 71.094-2.793-1.624 2.969-1.714 2.793 1.624Z" fill="#14b4ef"/><path data-name="Path 32496" d="M4.529 59.387c.206-.119.373-.024.374.214a.819.819 0 0 1-.372.644c-.205.119-.373.023-.374-.214a.82.82 0 0 1 .372-.644Z" fill="#280a38"/><path data-name="Path 32497" d="m32.335 34.695-5.719-3.324-2.053-1.716 5.72 3.324Z" fill="#280a38"/><path data-name="Path 32498" d="m38.929 15.796-5.719-3.319 2.85.134 5.72 3.324Z" fill="#fff"/><path data-name="Path 32499" d="m21.449 40.197-5.719-3.324.313-3.92 5.72 3.324Z" fill="#280a38"/><path data-name="Path 32500" d="m35.928 8.133-5.719-3.324L33.3 1.951l5.719 3.323Z" fill="#280a38"/><path data-name="Path 32501" d="M32.711 15.731a2.92 2.92 0 0 0-1.008-1l-5.72-3.324a2.918 2.918 0 0 1 1.007 1c1.49 2.376.444 6.987-2.347 10.341-.016.021-.034.04-.05.06a10.255 10.255 0 0 1-2.626 2.26 4.059 4.059 0 0 1-4.057.4l5.719 3.324a4.057 4.057 0 0 0 4.057-.4 10.2 10.2 0 0 0 2.626-2.259l.05-.061c2.794-3.353 3.839-7.968 2.349-10.341Z" fill="#280a38"/><path data-name="Path 32502" d="M29.881 4.602a5.449 5.449 0 0 0-2.032-.683l5.719 3.324a5.434 5.434 0 0 1 2.032.683Z" fill="#ff6429"/><path data-name="Path 32503" d="m16.311 38.246-5.719-3.324-2.107-3.344 5.726 3.324Z" fill="#280a38"/><path data-name="Path 32504" d="m14.211 34.903-5.719-3.324 2.5-3.818 5.719 3.324Z" fill="#fff"/><path data-name="Path 32505" d="m16.707 31.085-5.72-3.324a12.628 12.628 0 0 1-.3-3.358l5.719 3.324a12.628 12.628 0 0 0 .301 3.358Z" fill="#280a38"/><path data-name="Path 32506" d="m28.083 8.46-5.719-3.323L23.889.955l5.719 3.324Z" fill="#280a38"/><path data-name="Path 32507" d="M29.608 4.279 23.889.955 28.163 0l5.719 3.324Z" fill="#fff"/><path data-name="Path 32508" d="M25.052 10.544 19.333 7.22a17.091 17.091 0 0 1 2.536-1.812q.247-.143.495-.275l5.72 3.323c-.165.092-.331.178-.5.275a17 17 0 0 0-2.532 1.813Z" fill="#ff6429"/><path data-name="Path 32509" d="m18.064 20.428-5.719-3.324a26.347 26.347 0 0 1 1.934-3.847l5.719 3.324a26.4 26.4 0 0 0-1.934 3.847Z" fill="#ff6429"/><path data-name="Path 32510" d="m14.85 21.908-5.719-3.324 3.214-1.48 5.719 3.324Z" fill="#280a38"/><path data-name="Path 32511" d="m13.554 27.595-5.719-3.324 1.3-5.687 5.719 3.324Z" fill="#fff"/><path data-name="Path 32512" d="m38.93 15.795 2.851.135-1.3 5.687-3.214 1.48a26.31 26.31 0 0 1-1.935 3.847l.938 3.059-3.939 4.69-2.053-1.716a17.058 17.058 0 0 1-2.543 1.815l-.49.275-1.524 4.181-4.277.952.313-3.92a5.364 5.364 0 0 1-2.356-.889l-3.092 2.858-2.107-3.344 2.5-3.818a12.619 12.619 0 0 1-.3-3.358l-2.85-.132 1.3-5.687 3.214-1.48A26.39 26.39 0 0 1 20 16.583l-.937-3.059 3.938-4.692 2.054 1.716a17 17 0 0 1 2.536-1.812l.5-.275 1.525-4.181 4.273-.955-.313 3.919a5.381 5.381 0 0 1 2.36.89l3.09-2.859 2.107 3.345-2.5 3.818a12.589 12.589 0 0 1 .297 3.357Zm-8.565 10.277c2.791-3.354 3.838-7.968 2.347-10.341-.992-1.594-2.944-1.832-5.069-.6a10.33 10.33 0 0 0-2.673 2.321c-2.79 3.353-3.837 7.968-2.347 10.341 1.022 1.653 3.011 1.79 5.066.6a10.233 10.233 0 0 0 2.625-2.26Z" fill="#ff9f00"/><path data-name="Path 32513" d="m19.999 16.58-5.719-3.324-.937-3.059 5.719 3.324Z" fill="#280a38"/><path data-name="Path 32514" d="m19.062 13.521-5.719-3.324 3.938-4.692L23 8.829Z" fill="#fff"/></svg>