<svg xmlns="http://www.w3.org/2000/svg" id="Layer_1" data-name="Layer 1" version="1.1" viewBox="0 0 120 126"><defs><clipPath id="clippath"><path d="M49 18.4h22.4v23H49z" style="fill:none;stroke-width:0"/></clipPath><filter id="Rectangle_20701" width="120" height="126" x="0" y="0"><feOffset dy="3"/><feGaussianBlur result="blur" stdDeviation="3"/><feFlood flood-opacity=".161"/><feComposite in2="blur" operator="in"/><feComposite in="SourceGraphic"/></filter><style>.cls-3,.cls-4,.cls-5,.cls-6{stroke-width:0}.cls-3{fill:#00d273}.cls-4{fill:#ff492c}.cls-9{isolation:isolate}.cls-5{fill:#290a38}.cls-6{fill:#fff}</style></defs><g id="g2"><g style="filter:url(#Rectangle_20701)"><g id="Rectangle_20701-2" data-name="Rectangle 20701-2"><path d="M9 6h102v108H9z" class="cls-6"/><path d="M9.5 6.5h101v107H9.5z" style="stroke:#3363ff;fill:none"/></g></g><g id="_4.5" class="cls-9" data-name="4.5"><g class="cls-9"><path d="M54.6 96.1h-5.8v-1.3l5.8-8.2H56v8.2h1.8v1.3H56V99h-1.4v-2.9Zm0-1.3v-6l-4.3 6h4.3ZM59.3 98.1c0-.3.1-.6.3-.8.2-.2.5-.3.8-.3s.6.1.8.3c.2.2.3.5.3.8s-.1.6-.3.8c-.2.2-.5.3-.8.3s-.6-.1-.8-.3-.3-.5-.3-.8ZM67.4 99.2c-1 0-1.8-.2-2.5-.6-.7-.4-1.2-.9-1.6-1.6l1.3-.8c.3.5.6.9 1.1 1.2.5.3 1 .5 1.7.5s.7 0 1.1-.2c.3-.1.6-.3.9-.6.2-.2.4-.5.6-.9.1-.3.2-.7.2-1.1s0-.9-.2-1.2c-.2-.4-.4-.7-.6-.9l-.9-.6c-.3-.2-.7-.2-1.1-.2-.6 0-1.1.1-1.6.4-.4.3-.8.6-1 1l-1.3-.5 1-6.5h6.4v1.3h-5.2l-.6 3.9c.3-.2.7-.5 1.1-.6.4-.2.9-.2 1.4-.2s1.1 0 1.6.3c.5.2.9.4 1.3.8s.7.8.9 1.3.3 1.1.3 1.8-.1 1.2-.3 1.7c-.2.5-.5.9-.9 1.3s-.8.6-1.3.9-1.1.3-1.7.3Z" class="cls-5"/></g></g><g id="Group_50143" data-name="Group 50143"><path id="Path_32633" d="m31.6 59.6-1.3 3.9h-4.1l3.4 2.4-1.3 3.9 3.4-2.4 3.4 2.4-1.3-3.9 3.4-2.4h-4.1l-1.3-3.9Z" class="cls-3" data-name="Path 32633"/><path id="Path_32640" d="m45.8 59.6-1.3 3.9h-4.1l3.4 2.4-1.3 3.9 3.4-2.4 3.4 2.4-1.3-3.9 3.4-2.4h-4.1L46 59.6Z" class="cls-3" data-name="Path 32640"/><path id="Path_32641" d="m60.1 59.6-1.3 3.9h-4.1l3.4 2.4-1.3 3.9 3.4-2.4 3.4 2.4-1.3-3.9 3.4-2.4h-4.1l-1.3-3.9Z" class="cls-3" data-name="Path 32641"/><path id="Path_32642" d="m74.4 59.6-1.3 3.9H69l3.4 2.4-1.3 3.9 3.4-2.4 3.4 2.4-1.3-3.9 3.4-2.4h-4.1l-1.3-3.9Z" class="cls-3" data-name="Path 32642"/><path id="Path_32643" d="m88.6 59.6-1.3 3.9h-4.1l3.4 2.4-1.3 3.9 3.4-2.4 3.4 2.4-1.3-3.9 3.4-2.4h-4.1l-1.3-3.9Z" class="cls-3" data-name="Path 32643"/><path id="Path_32657" d="M88.6 59.6v7.9l3.4 2.4-1.3-3.9 3.4-2.4H90l-1.3-3.9Z" class="cls-6" data-name="Path 32657"/></g><g id="logo-co2" style="clip-path:url(#clippath)"><g id="Group_9849" data-name="Group 9849"><path id="Path_5004" d="m64.8 34.8 2.5 4.4C62.2 43 55 41.9 51.2 36.7c-2.7-3.6-3-8.5-.8-12.4 2.4-4.4 7.4-6.7 12.3-5.6 0 .2-2.3 4.7-2.3 4.7h-.3c-1 0-1.9.3-2.7.7-1.9 1-3.2 2.9-3.5 5-.1 1.1 0 2.2.4 3.2.3.8.8 1.6 1.5 2.2 1 1 2.2 1.6 3.6 1.8 1.3.2 2.6 0 3.8-.6.4-.2.9-.5 1.3-.8 0 0 .1 0 .2-.1" class="cls-4" data-name="Path 5004"/><path id="Path_5005" d="m64.8 21.9-.6-.6-.4-.4c.2-.6.6-.9 1-1.2.5-.3 1-.5 1.6-.4.7 0 1.4.2 2 .7.4.3.6.8.7 1.4 0 .8-.3 1.7-1.1 2.1-.4.3-.9.5-1.4.8-.3.1-.5.3-.7.5-.1.1-.2.3-.2.5h3.4v1.5h-5.3c0-.9 0-1.6.4-2.3.3-.6.8-1.1 1.4-1.4.5-.3.9-.5 1.4-.8.3-.1.5-.4.5-.8 0-.3-.2-.6-.5-.7-.7-.2-1.5.1-1.9.8 0 0-.1.2-.2.3" class="cls-4" data-name="Path 5005"/><path id="Path_5006" d="m71.4 33.2-2.9-5h-5.7l-2.9 5h5.7l2.8 4.9 2.9-5Z" class="cls-4" data-name="Path 5006"/></g></g></g></svg>