<svg xmlns="http://www.w3.org/2000/svg" id="Layer_1" data-name="Layer 1" version="1.1" viewBox="0 0 120 126"><defs><filter id="Rectangle_20701" width="120" height="126" x="0" y="0"><feOffset dy="3"/><feGaussianBlur result="blur" stdDeviation="3"/><feFlood flood-opacity=".161"/><feComposite in2="blur" operator="in"/><feComposite in="SourceGraphic"/></filter><style>.cls-5,.cls-6,.cls-7,.cls-8,.cls-9{stroke-width:0}.cls-5{fill:#40e3e3}.cls-12{isolation:isolate}.cls-6{fill:#14b5f0}.cls-7{fill:#424a52}.cls-8{fill:#290a38}.cls-9{fill:#fff}</style></defs><g id="getapp"><g style="filter:url(#Rectangle_20701)"><g id="Rectangle_20701-2" data-name="Rectangle 20701-2"><path d="M9 6h102v108H9z" class="cls-9"/><path d="M9.5 6.5h101v107H9.5z" style="fill:none;stroke:#3363ff"/></g></g><g id="_4.6" class="cls-12" data-name="4.6"><g class="cls-12"><path d="M54.6 96.1h-5.8v-1.3l5.8-8.2H56v8.2h1.8v1.3H56V99h-1.4v-2.9Zm0-1.3v-6l-4.3 6h4.3ZM59.3 98.1c0-.3.1-.6.3-.8.2-.2.5-.3.8-.3s.6.1.8.3c.2.2.3.5.3.8s-.1.6-.3.8c-.2.2-.5.3-.8.3s-.6-.1-.8-.3-.3-.5-.3-.8ZM68 99.2c-.7 0-1.3-.1-1.9-.4s-1.1-.6-1.5-1.2c-.2-.2-.4-.5-.5-.8-.1-.3-.3-.6-.4-.9s-.2-.7-.2-1.2v-1.5c0-1.1.1-2.1.4-2.9.3-.8.7-1.6 1.2-2.2.5-.6 1.2-1 1.9-1.3.7-.3 1.6-.5 2.5-.5h1.1c.3 0 .6.1.9.2l-.5 1.3c-.2 0-.4-.1-.7-.2s-.6 0-.9 0c-1.4 0-2.5.4-3.3 1.2-.8.8-1.2 2.1-1.3 3.7.3-.6.8-1.1 1.4-1.5s1.3-.5 2.1-.5 1.1.1 1.6.3c.5.2.9.5 1.3.9s.7.8.9 1.3c.2.5.3 1.1.3 1.7s-.1 1.1-.3 1.7c-.2.5-.5 1-.9 1.4s-.8.7-1.4.9c-.5.2-1.1.3-1.8.3Zm0-1.4c.4 0 .8 0 1.2-.2.4-.1.7-.4.9-.6.3-.3.5-.6.6-.9.2-.4.2-.7.2-1.2s0-.8-.2-1.2c-.1-.4-.4-.7-.6-.9-.3-.3-.6-.5-.9-.6s-.8-.2-1.2-.2-.8 0-1.2.2c-.4.1-.7.4-1 .6-.3.3-.5.6-.6.9-.2.4-.2.8-.2 1.2s0 .8.2 1.2c.2.4.4.7.6.9.3.3.6.5.9.6s.8.2 1.2.2Z" class="cls-8"/></g></g><g id="Group_50143" data-name="Group 50143"><path id="Path_32633" d="m31.6 59.6-1.3 3.9h-4.1l3.4 2.4-1.3 3.9 3.4-2.4 3.4 2.4-1.3-3.9 3.4-2.4h-4.1l-1.3-3.9Z" class="cls-6" data-name="Path 32633"/><path id="Path_32640" d="m45.8 59.6-1.3 3.9h-4.1l3.4 2.4-1.3 3.9 3.4-2.4 3.4 2.4-1.3-3.9 3.4-2.4h-4.1L46 59.6Z" class="cls-6" data-name="Path 32640"/><path id="Path_32641" d="m60.1 59.6-1.3 3.9h-4.1l3.4 2.4-1.3 3.9 3.4-2.4 3.4 2.4-1.3-3.9 3.4-2.4h-4.1l-1.3-3.9Z" class="cls-6" data-name="Path 32641"/><path id="Path_32642" d="m74.4 59.6-1.3 3.9H69l3.4 2.4-1.3 3.9 3.4-2.4 3.4 2.4-1.3-3.9 3.4-2.4h-4.1l-1.3-3.9Z" class="cls-6" data-name="Path 32642"/><path id="Path_32643" d="m88.6 59.6-1.3 3.9h-4.1l3.4 2.4-1.3 3.9 3.4-2.4 3.4 2.4-1.3-3.9 3.4-2.4h-4.1l-1.3-3.9Z" class="cls-6" data-name="Path 32643"/><path id="Path_32657" d="M88.6 59.6v7.9l3.4 2.4-1.3-3.9 3.4-2.4H90l-1.3-3.9Z" class="cls-9" data-name="Path 32657"/></g><g id="getapp-vector-logo"><path id="Path_24488" d="m40.9 31.2-5.1-5.1c-.2-.2-.4-.2-.6 0l-1 1 4.1 4.1c.2.2.2.4 0 .6L34.1 36l1 1c.2.2.4.2.6 0l5.2-5.2c.2-.2.2-.4 0-.6" data-name="Path 24488" style="fill:#009c9c;stroke-width:0"/><path id="Path_24489" d="m32.2 26.5-.4-.4c-.2-.2-.4-.2-.6 0l-1 1 .7.7 1.3 1.3 1.3-1.3-1.3-1.3Z" class="cls-5" data-name="Path 24489"/><path id="Path_24490" d="m32.1 34-1.3 1.3-.7.7 1 1c.2.2.4.2.6 0l.4-.4 1.3-1.3-1.3-1.3Z" class="cls-5" data-name="Path 24490"/><path id="Path_24491" d="M34.4 31.2c.2.2.2.4 0 .6L32.2 34l1.3 1.3 3.5-3.5c.2-.2.2-.4 0-.6l-3.4-3.4-1.3 1.3 2.1 2.1Z" data-name="Path 24491" style="fill:#1abab8;stroke-width:0"/><path id="Path_24492" d="m26.1 31.3 3.5-3.5-1.3-1.3-.4-.4c-.2-.2-.4-.2-.6 0l-5.2 5.2c-.2.2-.2.4 0 .6l5.1 5.1c.2.2.4.2.6 0l.4-.4 1.3-1.3-3.4-3.4c-.2-.2-.2-.4 0-.6" data-name="Path 24492" style="stroke-width:0;fill:#87f0f0"/><path id="Path_24493" d="m30 31.3 1.6-1.6-1.3-1.3-.7-.7-3.5 3.5c-.2.2-.2.4 0 .6l3.4 3.4.7-.7 1.3-1.3-1.4-1.4c-.2-.2-.2-.4 0-.6" class="cls-5" data-name="Path 24493"/><path id="Path_24494" d="m30 31.9 1.4 1.4 1.6-1.6c.2-.2.2-.4 0-.6l-1.4-1.4-1.6 1.6c-.1.2-.1.4 0 .6" data-name="Path 24494" style="fill:#17cfcf;stroke-width:0"/><path id="Path_24495" d="M45 30.1c0-.6.1-1.1.3-1.7.2-.5.5-.9.9-1.3s.9-.7 1.4-.8c1.4-.4 2.8-.4 4.2 0 .5.2 1 .5 1.4.8.3.3.6.6.7 1 .1.3.2.6.2.9 0 .1 0 .2-.1.3 0 0-.2.1-.3.1h-1.5s-.1-.1-.1-.2c0 0 0-.1-.2-.3-.1-.2-.3-.3-.4-.4-.5-.4-1.2-.6-1.9-.6s-1.3.2-1.8.6c-.5.4-.7 1-.7 1.7v2.6c0 .7.2 1.4.7 1.8.5.4 1.2.6 1.8.6.4 0 .7 0 1-.1.3 0 .6-.2.8-.4.2-.2.4-.4.5-.7.1-.4.2-.7.2-1.1 0-.1-1.9-.1-1.9-.1-.1 0-.2 0-.3-.1 0 0-.1-.2-.1-.3v-1.1c0-.2.2-.4.4-.4h3.5c.2 0 .4.2.4.4V33c0 .6 0 1.2-.3 1.7-.2.5-.5 1-.9 1.3-.4.4-.9.7-1.5.9-1.3.4-2.7.4-4.1 0-.5-.2-1-.5-1.4-.8-.4-.4-.7-.8-.9-1.3-.2-.5-.3-1.1-.3-1.7v-2.6" class="cls-7" data-name="Path 24495"/><path id="Path_24496" d="M59 30.6c-.3 0-.5 0-.8.1-.2 0-.4.2-.5.3-.1.1-.3.3-.3.5 0 .1-.1.3-.1.5h3.5c0-.2 0-.3-.1-.5 0-.2-.2-.3-.3-.5-.1-.1-.3-.3-.5-.3-.3 0-.5-.1-.8-.1m-3.8 2.3c0-.6 0-1.1.3-1.6.2-.5.4-.9.8-1.3.3-.4.7-.7 1.2-.9.5-.2 1-.3 1.5-.3s1.1 0 1.5.3c.5.2.9.5 1.2.9.3.4.6.8.8 1.2.2.5.3 1 .3 1.5v.7c0 .2-.2.4-.4.4h-5.1c0 .2 0 .4.1.6 0 .2.2.3.4.4l.6.3h.7c.3 0 .5 0 .8-.1.2 0 .3-.1.5-.3 0 0 .2-.1.3-.2h1.5c.1 0 .2 0 .3.1 0 0 .1.2.1.3 0 .2-.1.4-.2.6-.2.3-.4.5-.7.7-.3.2-.7.4-1.1.6-.5.2-1 .2-1.5.2s-1.1-.1-1.5-.3c-.5-.2-.9-.5-1.2-.8-.3-.4-.6-.8-.8-1.3-.2-.5-.3-1.1-.3-1.6" class="cls-7" data-name="Path 24496"/><path id="Path_24497" d="M66.5 34c0 .3 0 .5.3.8.3.2.6.3.9.3h.9c.2 0 .4.2.4.4v1c0 .2-.2.4-.4.4h-1.1c-.8 0-1.6-.2-2.2-.7-.6-.6-.8-1.3-.8-2.1v-3.3h-1c-.1 0-.2 0-.3-.1 0 0-.1-.2-.1-.3v-1c0-.1 0-.2.1-.3 0 0 .2-.1.3-.1h1v-2.5c0-.2.2-.4.4-.4h1.2c.2 0 .4.2.4.4V29h2c.2 0 .4.2.4.4v1c0 .2-.2.4-.4.4h-2V34Z" class="cls-7" data-name="Path 24497"/><path id="Path_24498" d="m76.6 32.9-1.7-4.4-1.7 4.4h3.4Zm-.9-6.7c.1 0 .3 0 .4.1 0 .1.2.2.2.4l3.8 9.7v.1c0 .2-.2.4-.4.4h-1.1c-.2 0-.3 0-.4-.1 0 0-.1-.2-.2-.3l-.7-1.7h-4.8l-.7 1.7s0 .2-.2.3c-.1.1-.3.1-.4.1h-1.1c-.2 0-.4-.2-.4-.4v-.1l3.8-9.7c0-.1.1-.3.2-.4 0 0 .2-.1.4-.1h1.7Z" class="cls-7" data-name="Path 24498"/><path id="Path_24499" d="M86.6 33.3v-.9c0-.5-.2-1.1-.6-1.4-.7-.6-1.8-.6-2.5 0-.4.3-.6.8-.6 1.3v1.2c0 .5.2.9.6 1.3.3.3.8.5 1.3.5s.9-.1 1.3-.4c.4-.4.6-.9.6-1.4m-1.5 3.6h-.9c-.2 0-.5-.1-.7-.2-.2 0-.3-.2-.5-.3-.1 0-.2-.2-.3-.3v3.3c0 .2-.2.4-.4.4h-1.2c-.2 0-.4-.2-.4-.4V29.5c0-.2.2-.4.4-.4h1.2c.2 0 .4.2.4.4v.4c0-.1.2-.2.3-.3.3-.3.7-.4 1.2-.5h.9c.9 0 1.8.4 2.4 1.1.3.3.5.7.7 1.2.2.4.3.9.3 1.4v1c0 .5-.1.9-.3 1.4-.2.4-.4.8-.7 1.2-.3.3-.7.6-1.1.8-.4.2-.9.3-1.4.3" class="cls-7" data-name="Path 24499"/><path id="Path_24500" d="M95.3 33.3v-.9c0-.5-.2-1.1-.6-1.4-.7-.6-1.8-.6-2.5 0-.4.3-.6.8-.6 1.3v1.2c0 .5.2.9.6 1.3.3.3.8.5 1.3.5s.9-.1 1.3-.4c.4-.4.6-.9.6-1.4M93.9 37H93c-.2 0-.5-.1-.7-.2-.2 0-.3-.2-.5-.3-.1 0-.2-.2-.3-.3v3.3c0 .2-.2.4-.4.4h-1.2c-.2 0-.4-.2-.4-.4V29.4c0-.2.2-.4.4-.4h1.2c.2 0 .4.2.4.4v.4c0-.1.2-.2.3-.3.2-.1.3-.2.5-.3.2 0 .4-.2.7-.2h.9c.9 0 1.8.4 2.4 1.1.3.3.5.7.7 1.2.2.4.3.9.3 1.4v1c0 .5-.1.9-.3 1.4-.2.4-.4.8-.7 1.2-.3.3-.7.6-1.1.8-.4.2-.9.3-1.4.3" class="cls-7" data-name="Path 24500"/></g></g></svg>