<svg xmlns="http://www.w3.org/2000/svg" id="Layer_1" data-name="Layer 1" version="1.1" viewBox="0 0 120 126"><defs><clipPath id="clippath"><path d="M18 21.4h84V40H18z" style="fill:none;stroke-width:0"/></clipPath><filter id="Rectangle_20701" width="120" height="126" x="0" y="0"><feOffset dy="3"/><feGaussianBlur result="blur" stdDeviation="3"/><feFlood flood-opacity=".161"/><feComposite in2="blur" operator="in"/><feComposite in="SourceGraphic"/></filter><style>.cls-1{fill:#044d80}.cls-1,.cls-4,.cls-7,.cls-8{stroke-width:0}.cls-4{fill:#ff6429}.cls-12{isolation:isolate}.cls-7{fill:#290a38}.cls-8{fill:#fff}</style></defs><g id="capterra"><g style="filter:url(#Rectangle_20701)"><g id="Rectangle_20701-2" data-name="Rectangle 20701-2"><path d="M9 6h102v108H9z" class="cls-8"/><path d="M9.5 6.5h101v107H9.5z" style="stroke:#3363ff;fill:none"/></g></g><g id="_4.6" class="cls-12" data-name="4.6"><g class="cls-12"><path d="M54.6 96.1h-5.8v-1.3l5.8-8.2H56v8.2h1.8v1.3H56V99h-1.4v-2.9Zm0-1.3v-6l-4.3 6h4.3ZM59.3 98.1c0-.3.1-.6.3-.8.2-.2.5-.3.8-.3s.6.1.8.3c.2.2.3.5.3.8s-.1.6-.3.8c-.2.2-.5.3-.8.3s-.6-.1-.8-.3-.3-.5-.3-.8ZM68 99.2c-.7 0-1.3-.1-1.9-.4s-1.1-.6-1.5-1.2c-.2-.2-.4-.5-.5-.8-.1-.3-.3-.6-.4-.9s-.2-.7-.2-1.2v-1.5c0-1.1.1-2.1.4-2.9.3-.8.7-1.6 1.2-2.2.5-.6 1.2-1 1.9-1.3.7-.3 1.6-.5 2.5-.5h1.1c.3 0 .6.1.9.2l-.5 1.3c-.2 0-.4-.1-.7-.2s-.6 0-.9 0c-1.4 0-2.5.4-3.3 1.2-.8.8-1.2 2.1-1.3 3.7.3-.6.8-1.1 1.4-1.5s1.3-.5 2.1-.5 1.1.1 1.6.3c.5.2.9.5 1.3.9s.7.8.9 1.3c.2.5.3 1.1.3 1.7s-.1 1.1-.3 1.7c-.2.5-.5 1-.9 1.4s-.8.7-1.4.9c-.5.2-1.1.3-1.8.3Zm0-1.4c.4 0 .8 0 1.2-.2.4-.1.7-.4.9-.6.3-.3.5-.6.6-.9.2-.4.2-.7.2-1.2s0-.8-.2-1.2c-.1-.4-.4-.7-.6-.9-.3-.3-.6-.5-.9-.6s-.8-.2-1.2-.2-.8 0-1.2.2c-.4.1-.7.4-1 .6-.3.3-.5.6-.6.9-.2.4-.2.8-.2 1.2s0 .8.2 1.2c.2.4.4.7.6.9.3.3.6.5.9.6s.8.2 1.2.2Z" class="cls-7"/></g></g><g id="Group_50143" data-name="Group 50143"><path id="Path_32633" d="m31.6 59.6-1.3 3.9h-4.1l3.4 2.4-1.3 3.9 3.4-2.4 3.4 2.4-1.3-3.9 3.4-2.4h-4.1l-1.3-3.9Z" class="cls-4" data-name="Path 32633"/><path id="Path_32640" d="m45.8 59.6-1.3 3.9h-4.1l3.4 2.4-1.3 3.9 3.4-2.4 3.4 2.4-1.3-3.9 3.4-2.4h-4.1L46 59.6Z" class="cls-4" data-name="Path 32640"/><path id="Path_32641" d="m60.1 59.6-1.3 3.9h-4.1l3.4 2.4-1.3 3.9 3.4-2.4 3.4 2.4-1.3-3.9 3.4-2.4h-4.1l-1.3-3.9Z" class="cls-4" data-name="Path 32641"/><path id="Path_32642" d="m74.4 59.6-1.3 3.9H69l3.4 2.4-1.3 3.9 3.4-2.4 3.4 2.4-1.3-3.9 3.4-2.4h-4.1l-1.3-3.9Z" class="cls-4" data-name="Path 32642"/><path id="Path_32643" d="m88.6 59.6-1.3 3.9h-4.1l3.4 2.4-1.3 3.9 3.4-2.4 3.4 2.4-1.3-3.9 3.4-2.4h-4.1l-1.3-3.9Z" class="cls-4" data-name="Path 32643"/><path id="Path_32657" d="M88.6 59.6v7.9l3.4 2.4-1.3-3.9 3.4-2.4H90l-1.3-3.9Z" class="cls-8" data-name="Path 32657"/></g><g id="logo-capterra"><path id="Path_4966" d="M18 28.2h12.4v-4.6L18 28.2Z" data-name="Path 4966" style="fill:#ff9d28;stroke-width:0"/><path id="Path_4967" d="M30.4 23.6V40l5.8-18.6-5.8 2.2Z" data-name="Path 4967" style="fill:#68c5ed;stroke-width:0"/><path id="Path_4968" d="M30.4 39.9V28.2h-4.7l4.7 11.7Z" class="cls-1" data-name="Path 4968"/><path id="Path_4969" d="m26.9 31.2-1.2-3H18l8.9 3Z" data-name="Path 4969" style="fill:#e54747;stroke-width:0"/><g id="Group_9843" data-name="Group 9843" style="clip-path:url(#clippath)"><g id="Group_9842" data-name="Group 9842"><path id="Path_4970" d="M46.4 35.6c-.1 0-.2.2-.3.3l-.6.3-.9.3c-.4 0-.8.1-1.3.1-.8 0-1.6-.1-2.4-.4-.6-.3-1.2-.7-1.7-1.2-.4-.5-.8-1.2-1-1.9-.2-.8-.3-1.6-.3-2.4 0-.8.1-1.6.3-2.4.2-.7.5-1.3 1-1.9.4-.5 1-1 1.7-1.2.7-.3 1.5-.5 2.3-.4.4 0 .8 0 1.2.1.3 0 .6.2.9.3.2 0 .5.2.7.3.1 0 .3.2.4.3.1 0 .2.2.3.3 0 .1.1.3.1.4 0 .2 0 .5-.3.7l-.6.6c-.1-.1-.3-.3-.5-.4-.2-.1-.4-.3-.6-.4-.2-.1-.5-.2-.7-.3-.3 0-.6-.1-.9-.1-1 0-1.9.4-2.4 1.3-.2.4-.4.8-.5 1.3-.1.5-.2 1-.2 1.5s0 1 .2 1.5c0 .5.3.9.5 1.3s.6.7 1 .9c.7.4 1.6.4 2.4.2.2 0 .5-.2.7-.3.2-.1.4-.2.5-.4.2-.1.3-.2.4-.3 0 0 .1.2.2.3 0 .1.2.2.3.4 0 .1.1.2.2.4v.7c0 .1-.2.2-.3.3Zm8.7-1.3c0 .7 0 1.4.4 2-.2 0-.4.1-.6.2h-.6c-.3 0-.7 0-.9-.2-.2-.2-.4-.4-.4-.7-.3.3-.6.5-1 .7-.5.2-1 .3-1.5.3-.3 0-.6 0-.9-.1-.3 0-.6-.2-.8-.4-.3-.2-.5-.5-.6-.8-.2-.4-.3-.8-.2-1.2 0-.5.1-1 .4-1.4.3-.4.6-.7 1-.9.4-.2.9-.4 1.4-.4.4 0 .9-.1 1.3-.2h.8v-.3c0-.3 0-.7-.3-.9-.3-.2-.7-.3-1.1-.3-.4 0-.9 0-1.3.2s-.8.3-1.1.5c-.2-.2-.3-.4-.4-.6 0-.2-.1-.3-.1-.5s.1-.4.3-.5c.2-.2.5-.3.7-.4.3-.1.7-.2 1.1-.3.4 0 .8-.1 1.3-.1s1.1 0 1.6.2c.4.1.7.3 1 .6.3.3.5.6.6 1 .1.4.2.9.2 1.4v3.2Zm-2.2-2h-.4c-.3 0-.6 0-.8.1-.3 0-.5.1-.7.2-.2.1-.4.3-.5.4-.1.2-.2.5-.2.7 0 .3 0 .6.3.8.2.2.6.4.9.3h.6c.2 0 .4-.1.5-.2.1 0 .3-.2.3-.3 0 0 .1-.2.1-.3v-1.7Zm6.5-3.3c.2-.3.5-.5.9-.7.5-.2 1-.4 1.5-.3.4 0 .8 0 1.2.2.4.1.7.4 1 .7.3.4.6.8.7 1.3.2.6.3 1.3.3 1.9 0 .7 0 1.5-.3 2.2-.2.5-.4 1-.8 1.4-.3.3-.7.6-1.1.7-.4.1-.8.2-1.2.2-.3 0-.6 0-.9-.1-.2 0-.4-.1-.6-.2-.2-.1-.4-.3-.6-.5V40h-2.3V28.3h.7c.3 0 .7 0 1 .2.3.1.4.4.5.6Zm3 3.1v-1c0-.3-.1-.5-.3-.8-.1-.2-.3-.4-.5-.5-.2-.1-.5-.2-.8-.2-.4 0-.7 0-1 .3-.2.2-.3.4-.3.6v3.6c.1.1.3.2.5.3.2.1.5.2.8.2.5 0 1-.2 1.3-.7.3-.6.4-1.2.4-1.9m4.1 3.1c0-.2-.1-.5-.2-.7V25.7h1.4c.2 0 .3.1.5.2s.3.3.4.4c0 .2.1.5.1.7v1.2h2.4v1.7h-2.4v3.6c0 .8.3 1.2 1 1.2h.5c.1 0 .3-.1.4-.2.1 0 .2-.1.3-.2l.2-.2c.1.2.3.4.4.7 0 .2.1.3.1.5s0 .3-.2.4c-.1.2-.3.3-.5.4-.2.1-.5.2-.8.3-.3 0-.7.1-1 .1-.6 0-1.2-.1-1.6-.4-.4-.3-.7-.6-.8-1.1Zm10.4-.2h.8c.2 0 .4-.1.6-.2.2 0 .3-.2.4-.3l.3-.3c.2.2.3.4.4.7.1.2.2.4.2.7 0 .3-.2.5-.4.7-.3.2-.7.4-1 .5-.5.1-1 .2-1.5.2s-1.1 0-1.6-.2c-.5-.1-1-.4-1.4-.7-.4-.4-.8-.8-1-1.4-.3-.7-.4-1.4-.4-2.2 0-.6 0-1.3.3-1.9.2-.5.5-.9.9-1.3.4-.3.8-.6 1.3-.8.5-.2.9-.2 1.4-.2.6 0 1.1 0 1.6.3.4.2.8.5 1.1.8.3.3.5.7.6 1.2.1.4.2.9.2 1.4v1h-5c0 .6.2 1.1.6 1.6.4.4 1 .7 1.6.6Zm.8-3.5c0-.5 0-.9-.3-1.3s-.7-.6-1.1-.5c-.4 0-.8.2-1.1.5-.3.4-.4.9-.4 1.4h3ZM84 29c0-.1.2-.2.3-.3.1-.1.3-.2.4-.3.2-.1.4-.2.5-.3.2 0 .4-.1.6-.1h.4c.1 0 .3 0 .4.1.1 0 .2.1.3.3 0 .1.1.3.1.4 0 .3 0 .6-.2.9-.1.3-.2.6-.4.8-.2-.1-.4-.3-.6-.4-.2 0-.4-.1-.7-.1-.3 0-.6 0-.9.3-.2.2-.4.4-.4.7v5.5h-2.3v-8.3h.7c.3 0 .7 0 .9.2.3.1.4.4.5.7Zm6.6 0c0-.1.2-.2.3-.3.1-.1.3-.2.4-.3.2-.1.4-.2.5-.3.2 0 .4-.1.6-.1h.4c.1 0 .3 0 .4.1.1 0 .2.1.3.3 0 .1.1.3.1.4 0 .3 0 .6-.2.9-.1.3-.2.6-.4.8-.2-.1-.4-.3-.6-.4-.2 0-.4-.1-.7-.1-.3 0-.6 0-.9.3-.2.2-.4.4-.4.7v5.5h-2.3v-8.3h.7c.3 0 .7 0 .9.2.3.1.4.4.5.6Zm11 5.3c0 .7 0 1.4.4 2-.2 0-.4.1-.6.2h-.6c-.3 0-.7 0-.9-.2-.2-.2-.4-.4-.4-.7-.3.3-.6.5-1 .7-.5.2-1 .3-1.5.3-.3 0-.6 0-.9-.1-.3 0-.6-.2-.8-.4-.3-.2-.5-.5-.6-.8-.2-.4-.3-.8-.2-1.2 0-.5.1-1 .4-1.4.3-.4.6-.7 1-.9.4-.2.9-.4 1.4-.4.4 0 .9-.1 1.3-.2h.8v-.3c0-.3 0-.7-.3-.9-.3-.2-.7-.3-1.1-.3-.4 0-.9 0-1.3.2s-.8.3-1.1.5c-.2-.2-.3-.4-.4-.6 0-.2-.1-.3-.1-.5s.1-.4.3-.5c.2-.2.5-.3.7-.4.3-.1.7-.2 1.1-.3.4 0 .8-.1 1.3-.1s1.1 0 1.6.2c.4.1.7.3 1 .6.3.3.5.6.6 1 .1.4.2.9.2 1.4v3.2Zm-2.1-2h-.4c-.3 0-.6 0-.8.1-.3 0-.5.1-.7.2-.2.1-.4.3-.5.4-.1.2-.2.5-.2.7 0 .3 0 .6.3.8.2.2.6.4.9.3h.6c.2 0 .4-.1.5-.2.1 0 .3-.2.3-.3 0 0 .1-.2.1-.3v-1.7Z" class="cls-1" data-name="Path 4970"/></g></g></g></g></svg>