<svg xmlns="http://www.w3.org/2000/svg" id="Layer_1" data-name="Layer 1" version="1.1" viewBox="0 0 120 126"><defs><filter id="Rectangle_20701" width="120" height="126" x="0" y="0"><feOffset dy="3"/><feGaussianBlur result="blur" stdDeviation="3"/><feFlood flood-opacity=".161"/><feComposite in2="blur" operator="in"/><feComposite in="SourceGraphic"/></filter><style>.cls-2,.cls-3,.cls-4,.cls-5{stroke-width:0}.cls-3{fill-rule:evenodd}.cls-2{fill:#b066ff}.cls-8{isolation:isolate}.cls-3{fill:#2d294e}.cls-4{fill:#290a38}.cls-5{fill:#fff}</style></defs><g id="software_advice" data-name="software advice"><g style="filter:url(#Rectangle_20701)"><g id="Rectangle_20701-2" data-name="Rectangle 20701-2"><path d="M9 6h102v108H9z" class="cls-5"/><path d="M9.5 6.5h101v107H9.5z" style="fill:none;stroke:#3363ff"/></g></g><g id="_4.6" class="cls-8" data-name="4.6"><g class="cls-8"><path d="M54.6 96.1h-5.8v-1.3l5.8-8.2H56v8.2h1.8v1.3H56V99h-1.4v-2.9Zm0-1.3v-6l-4.3 6h4.3ZM59.3 98.1c0-.3.1-.6.3-.8.2-.2.5-.3.8-.3s.6.1.8.3c.2.2.3.5.3.8s-.1.6-.3.8c-.2.2-.5.3-.8.3s-.6-.1-.8-.3-.3-.5-.3-.8ZM68 99.2c-.7 0-1.3-.1-1.9-.4s-1.1-.6-1.5-1.2c-.2-.2-.4-.5-.5-.8-.1-.3-.3-.6-.4-.9s-.2-.7-.2-1.2v-1.5c0-1.1.1-2.1.4-2.9.3-.8.7-1.6 1.2-2.2.5-.6 1.2-1 1.9-1.3.7-.3 1.6-.5 2.5-.5h1.1c.3 0 .6.1.9.2l-.5 1.3c-.2 0-.4-.1-.7-.2s-.6 0-.9 0c-1.4 0-2.5.4-3.3 1.2-.8.8-1.2 2.1-1.3 3.7.3-.6.8-1.1 1.4-1.5s1.3-.5 2.1-.5 1.1.1 1.6.3c.5.2.9.5 1.3.9s.7.8.9 1.3c.2.5.3 1.1.3 1.7s-.1 1.1-.3 1.7c-.2.5-.5 1-.9 1.4s-.8.7-1.4.9c-.5.2-1.1.3-1.8.3Zm0-1.4c.4 0 .8 0 1.2-.2.4-.1.7-.4.9-.6.3-.3.5-.6.6-.9.2-.4.2-.7.2-1.2s0-.8-.2-1.2c-.1-.4-.4-.7-.6-.9-.3-.3-.6-.5-.9-.6s-.8-.2-1.2-.2-.8 0-1.2.2c-.4.1-.7.4-1 .6-.3.3-.5.6-.6.9-.2.4-.2.8-.2 1.2s0 .8.2 1.2c.2.4.4.7.6.9.3.3.6.5.9.6s.8.2 1.2.2Z" class="cls-4"/></g></g><g id="Group_50143" data-name="Group 50143"><path id="Path_32633" d="m31.6 59.6-1.3 3.9h-4.1l3.4 2.4-1.3 3.9 3.4-2.4 3.4 2.4-1.3-3.9 3.4-2.4h-4.1l-1.3-3.9Z" class="cls-2" data-name="Path 32633"/><path id="Path_32640" d="m45.8 59.6-1.3 3.9h-4.1l3.4 2.4-1.3 3.9 3.4-2.4 3.4 2.4-1.3-3.9 3.4-2.4h-4.1L46 59.6Z" class="cls-2" data-name="Path 32640"/><path id="Path_32641" d="m60.1 59.6-1.3 3.9h-4.1l3.4 2.4-1.3 3.9 3.4-2.4 3.4 2.4-1.3-3.9 3.4-2.4h-4.1l-1.3-3.9Z" class="cls-2" data-name="Path 32641"/><path id="Path_32642" d="m74.4 59.6-1.3 3.9H69l3.4 2.4-1.3 3.9 3.4-2.4 3.4 2.4-1.3-3.9 3.4-2.4h-4.1l-1.3-3.9Z" class="cls-2" data-name="Path 32642"/><path id="Path_32643" d="m88.6 59.6-1.3 3.9h-4.1l3.4 2.4-1.3 3.9 3.4-2.4 3.4 2.4-1.3-3.9 3.4-2.4h-4.1l-1.3-3.9Z" class="cls-2" data-name="Path 32643"/><path id="Path_32657" d="M88.6 59.6v7.9l3.4 2.4-1.3-3.9 3.4-2.4H90l-1.3-3.9Z" class="cls-5" data-name="Path 32657"/></g><g id="Normal-Registered"><path id="Fill-1" d="M96.8 23.7c0-.5.4-.9.9-.9h6.3c.5 0 .9.4.9.9v3.1c0 .5-.4.9-.9.9h-.7c-.6 0-1.1.2-1.6.4l-2.3 1.3c-.4.2-.6 0-.4-.4l.3-.6c.2-.2 0-.5-.2-.7H97.7c-.5 0-.9-.4-.9-.9v-3.1" style="fill-rule:evenodd;stroke-width:0;fill:#fd810b"/><path id="Fill-21" d="M96.8 31.8h.1v-.1h-.2v.3h.2Zm0-.5h.3s.1.1 0 .2v.2h-.2l.3.4h-.3l-.2-.4v.4h-.2v-1h.4Zm-.6.8s0 .2.1.2c0 0 .1.1.2.1h.5s.2 0 .2-.1c0 0 .1-.1.1-.2v-.3c0-.2 0-.4-.2-.5 0 0-.1-.1-.2-.1h-.5c-.2 0-.3.2-.4.4v.6Zm-.3-.6c0-.1.1-.2.2-.3 0 0 .2-.2.3-.2h.8c.1 0 .2.1.3.2 0 0 .2.2.2.3v.4c0 .3 0 .5-.3.7 0 0-.2.2-.3.2h-.8c-.1 0-.2-.1-.3-.2 0 0-.2-.2-.2-.3v-.8Z" class="cls-3"/><path id="Fill-19" d="M93.7 29h-1.4s-.1 0-.1-.1v-.2c0-.4.4-.7.8-.6.4 0 .8.2.8.6v.2s0 .2-.1.2Zm-.8-2.4c-1.3 0-2.5.9-2.6 2.3v1.6c0 1.3 1 2.3 2.3 2.3h.3c.7 0 1.4-.2 1.9-.7.2-.2.4-.4.5-.7v-.3l-1.3-.6h-.2c-.1.4-.5.7-.9.6-.4 0-.8-.3-.8-.7v-.3s0-.1.2-.1h3.2v-1.1c0-1.3-1.2-2.4-2.5-2.3Z" class="cls-3"/><path id="Fill-18" d="M87.4 28.1c.4 0 .7.3.9.8 0 0 0 .1.2 0l1.2-.6v-.2c-.1-.3-.2-.5-.4-.7-.5-.6-1.2-.9-2-.9-1.3-.1-2.4.8-2.5 2v1.8c0 1.3 1 2.3 2.2 2.3h.3c.7 0 1.4-.2 1.9-.7.2-.3.4-.5.5-.9v-.2l-1.2-.6h-.2c-.2.5-.5.8-.9.8s-.7-.3-.8-.7v-1.7c0-.4.3-.7.7-.7" class="cls-3"/><path id="Fill-17" d="M83.8 26.7h-1.5s-.1 0-.1.1v5.7s0 .1.1.1h1.5s.1 0 .1-.1v-5.8" class="cls-3"/><path id="Fill-20" d="M83 24.2c-.5 0-.9.4-.9.9s.4.9.9.9.9-.4.9-.9-.4-.9-.9-.9" class="cls-3"/><path id="Fill-16" d="M81.3 26.7H79.6l-1 2.7c0 .2-.1.4-.2.6 0-.2 0-.4-.2-.6l-1-2.7H75.5c-.1 0-.2 0-.1.2l2.3 5.6H79.1l2.3-5.6s0-.2-.1-.2" class="cls-3"/><path id="Fill-15" d="M73 30.4c0 .4-.3.7-.8.7-.4 0-.7-.3-.8-.7v-1.5c0-.4.3-.7.7-.7.4 0 .8.3.8.7v1.5Zm1.6-5.8h-1.5s-.1 0-.1.1v2.4c-.3-.2-.6-.3-1-.4-1.2 0-2.3.9-2.4 2.1v1.5c-.1 1.2.8 2.2 2 2.3h.5c.4 0 .7-.1 1-.3h.2v.2h1.3v-7.8s0-.1-.1-.1Z" class="cls-3"/><path id="Fill-14" d="M66.4 29.9h-.8c-.1 0-.2 0-.2-.2l.3-1c.1-.4.2-.9.3-1.4 0 .5.1.9.2 1.4l.3 1s0 .2-.1.2Zm.3-5.2H65.4l-2.5 7.8s0 .2.1.2H64.7l.4-1.2H67l.4 1.2H69.1c.1 0 .2 0 .1-.2l-2.5-7.8Z" class="cls-3"/><path id="Fill-13" d="M58.2 29h-1.4s-.1 0-.1-.1v-.2c.1-.5.6-.7 1.1-.6.3 0 .5.3.6.6v.2s0 .2-.1.2Zm-.7-2.4c-1.3 0-2.5.9-2.6 2.3v1.6c0 1.3 1 2.3 2.3 2.3h.3c.7 0 1.4-.2 1.9-.7.2-.2.4-.4.5-.7v-.3l-1.3-.6h-.2c-.1.4-.5.7-.9.6-.4 0-.8-.3-.8-.7v-.3s0-.1.2-.1h3.2v-1.1c0-1.3-1.2-2.4-2.5-2.3Z" class="cls-3"/><path id="Fill-12" d="M54.1 26.8h-.3c-.4 0-.8.2-1.1.5h-.2V27s0-.1-.1-.1h-1.3v5.8h1.6v-3.4c0-.4.3-.7.7-.8h.5c.1 0 .2 0 .2-.1V27s0-.1-.1-.1" class="cls-3"/><path id="Fill-11" d="M47.4 31.3h-.5c-.3 0-.4-.2-.4-.5 0-.2.2-.4.4-.4H48s.1.1.1.2c0 .4-.3.7-.7.8Zm0-4.7c-.7 0-1.3.2-1.8.6-.2.2-.4.5-.6.8v.3l1.3.6h.2c.1-.4.5-.7.9-.6.4 0 .7.3.8.7 0 .2 0 .2-.1.2H47c-1.1 0-2 .6-2 1.7s.8 1.9 1.7 1.9H47.3c.4 0 .7-.1 1-.3h.1v.2s.1.1.2 0h1.3v-3.6c0-1.3-1-2.3-2.2-2.3h-.3Z" class="cls-3"/><path id="Fill-10" d="M44.3 26.7h-1.6l-.6 2.4c0 .3-.1.6-.1.9 0-.3 0-.6-.1-.9l-.6-2.4s0-.1-.1 0H39.8l-.6 2.4c0 .3-.1.6-.1.9 0-.3 0-.6-.1-.9l-.6-2.4s0-.1-.1-.1h-1.6c-.1 0-.2 0-.1.2l1.8 5.7H39.7l.7-2.6c0-.3.1-.5.1-.8s0 .5.1.8l.7 2.6s0 .1.1.1H42.6l1.8-5.7s0-.2-.1-.2" class="cls-3"/><path id="Fill-9" d="M35.8 26.7h-.9c-.1 0-.1 0-.1-.1v-.8s0-.1-.1-.1h-.9l-1.6 1.6v.9s0 .1.1.1h.6c.1 0 .1 0 .1.1v2c-.1 1.2.7 2.2 1.9 2.3h.8c.1 0 .2 0 .2-.1V31.2h-.2c-.5 0-.8-.3-.8-.9v-1.9s0-.1.1-.1h.9s.1 0 .1-.1v-1.4s0-.1-.1-.1" class="cls-3"/><path id="Fill-8" d="M32 24.6h-.9c-1.3-.1-2.4.8-2.6 2.1v.5s0 .1-.1.1H28V28.7h.3c.1 0 .1 0 .1.1v3.5s0 .1.1.1H30s.1 0 .1-.1v-3.5s0-.1.1-.1h.8s.1 0 .1-.1v-1.3s0-.1-.1-.1h-.8c-.1 0-.1 0-.1-.1v-.3c0-.4.3-.7.7-.7h.7l.4-1.3v-.2" class="cls-3"/><path id="Fill-7" d="M25.4 30.5c0 .4-.3.7-.8.7-.4 0-.8-.3-.8-.7v-1.7c0-.4.4-.8.8-.7.4 0 .8.3.8.7v1.7Zm-.8-3.9c-1.3-.1-2.4.8-2.6 2.1v1.8c.1 1.4 1.4 2.4 2.8 2.3 1.2-.1 2.2-1.1 2.3-2.3V29c0-1.3-1-2.3-2.3-2.3h-.3Z" class="cls-3"/><path id="Fill-4" d="M19.3 27.9c-.7-.3-1.5-.5-1.5-1 0-.4.3-.8.7-.8h.2c.4 0 .8.3.9.6 0 .1.1.1.2.1l1.3-.6s.1-.2 0-.3c-.5-.9-1.4-1.4-2.4-1.4h-.2c-1.3-.1-2.4.8-2.6 2v.3c0 1.5.9 2 2.1 2.5.8.3 1.4.5 1.4 1.1s-.4.8-.9.8h-.3c-.4 0-.8-.3-.9-.6 0-.1-.1-.1-.2 0l-1.3.6s-.1.2 0 .3c.1.2.3.4.4.6.5.5 1.2.8 2 .8h.4c1.3.2 2.4-.7 2.5-2v-.4c0-1.5-.9-2.1-2.1-2.6" class="cls-3"/></g></g></svg>