<svg width="103" height="26" fill="none" xmlns="http://www.w3.org/2000/svg"><path d="M19.5 7H6.9L13.2.6h12.7L19.5 7z" fill="#00D273"/><path d="M13.2 26H.5l6.4-6.3h12.6L13.2 26z" fill="#FF6429"/><path d="M.5 7v19l6.4-6.3V.6L.5 7z" fill="#14B4EF"/><path d="M19.5 7v19l6.4-6.3V.6L19.5 7z" fill="#B066FF"/><path d="M32.2 3.8H35v16.3h9.3v2.8H32.2V3.8zM52.3 23.1c-1 0-2-.2-2.9-.6-.9-.4-1.7-.9-2.3-1.6-.7-.7-1.2-1.4-1.6-2.3-.4-.9-.6-1.8-.6-2.9 0-1 .2-2 .6-2.9.4-.9.9-1.7 1.6-2.3.7-.7 1.4-1.2 2.3-1.6.9-.4 1.8-.6 2.9-.6 1 0 2 .2 2.9.6.9.4 1.7.9 2.3 1.6.7.7 1.2 1.4 1.6 2.3.4.9.6 1.8.6 2.9 0 1-.2 2-.6 2.9-.4.9-.9 1.7-1.6 2.3-.7.7-1.4 1.2-2.3 1.6-1 .4-1.9.6-2.9.6zm0-2.6c.6 0 1.2-.1 1.8-.4.5-.2 1-.6 1.4-1 .4-.4.7-.9 1-1.5.2-.6.4-1.2.4-1.8 0-.6-.1-1.3-.4-1.8-.2-.6-.6-1.1-1-1.5-.4-.4-.9-.8-1.4-1-.6-.2-1.1-.4-1.8-.4-.6 0-1.2.1-1.8.4-.5.2-1 .6-1.4 1-.4.4-.7.9-1 1.5-.2.6-.3 1.2-.3 1.8 0 .7.1 1.3.3 1.8.2.6.5 1.1 1 1.5.4.4.9.8 1.4 1 .5.3 1.1.4 1.8.4zM68.4 23.1c-1 0-2-.2-2.9-.6-.9-.4-1.7-.9-2.3-1.6-.7-.7-1.2-1.4-1.6-2.3-.4-.9-.6-1.8-.6-2.9 0-1 .2-2 .6-2.9.4-.9.9-1.7 1.6-2.3.7-.7 1.4-1.2 2.3-1.6.9-.4 1.9-.6 2.9-.6.8 0 1.5.1 2.2.3.7.2 1.3.5 1.9.9.6.4 1.1.8 1.5 1.4.4.5.8 1.1 1.1 1.7l-2.5 1.1c-.4-.9-.9-1.5-1.6-2-.7-.5-1.6-.7-2.5-.7-.7 0-1.3.1-1.8.4-.6.2-1 .6-1.4 1-.4.4-.7.9-1 1.5-.2.6-.4 1.2-.4 1.8 0 .6.1 1.3.4 1.8.2.6.6 1.1 1 1.5.4.4.9.8 1.5 1 .6.2 1.2.4 1.8.4 1 0 1.9-.3 2.6-.8.7-.5 1.2-1.2 1.6-2l2.6 1.1c-.6 1.3-1.4 2.4-2.6 3.2-1.4.8-2.8 1.2-4.4 1.2zM82.6 23.1c-1.9 0-3.3-.6-4.3-1.7s-1.5-2.6-1.5-4.6V8.7h2.9v8c0 1.2.3 2.2.9 2.9.6.7 1.5 1.1 2.7 1.1.5 0 1-.1 1.5-.3.5-.2.9-.5 1.2-.8.3-.4.6-.8.8-1.3.2-.5.3-1.1.3-1.7V8.8h2.8v14.1H87V21c-.5.7-1.1 1.2-1.9 1.6-.7.3-1.6.5-2.5.5zM102.6 16.8c-.3-.5-.7-.9-1.2-1.2-.5-.3-1-.6-1.6-.7-.6-.2-1.2-.3-1.8-.5-1.1-.2-1.9-.5-2.5-.7-.6-.2-.9-.6-.9-1.2 0-.5.2-.9.6-1.3.4-.3 1.1-.5 1.9-.5.8 0 1.4.1 1.9.4.5.3 1 .7 1.3 1.2l2-2c-.5-.6-1.1-1-1.8-1.4-.9-.5-2-.7-3.4-.7-.8 0-1.6.1-2.3.3-.7.2-1.2.5-1.7.9s-.8.8-1.1 1.4c-.3.5-.4 1-.4 1.6 0 .7.1 1.3.4 1.8.3.5.7.9 1.1 1.2.4.3 1 .5 1.6.7.6.2 1.2.3 1.8.5.5.1.9.2 1.3.3.4.1.8.2 1.1.3.3.1.6.3.8.5.2.2.3.5.3.8 0 .5-.2 1-.7 1.4-.5.4-1.2.6-2.1.6-.9 0-1.6-.2-2.2-.5-.6-.4-1.1-.9-1.6-1.5l-2.1 2.1c.5.7 1.2 1.3 2 1.7 1 .5 2.3.8 3.8.8 1 0 1.8-.1 2.5-.4.7-.3 1.3-.6 1.8-1s.8-.9 1.1-1.4c.2-.5.4-1.1.4-1.6.1-.8 0-1.4-.3-1.9z" fill="#fff"/></svg>